<?xml version="1.0" encoding="utf-8"?>
<!-- Generator: Adobe Illustrator 24.1.0, SVG Export Plug-In . SVG Version: 6.00 Build 0)  -->
<svg version="1.1" id="Layer_1" xmlns="http://www.w3.org/2000/svg" xmlns:xlink="http://www.w3.org/1999/xlink" x="0px" y="0px"
	 viewBox="0 0 762.63 436.98" style="enable-background:new 0 0 762.63 436.98;" xml:space="preserve">
<style type="text/css">
	.st0{fill:#312783;}
	.st1{fill:#0075BF;}
</style>
<g>
	<g>
		<path class="st0" d="M679.63,206.55l2.05-0.93l0.4-0.3l1.23-0.79l3.68-2.37l4.7-3.19c1.41-0.94,2.66-1.91,4.24-2.8
			c2.1-1.42,4.56-2.72,7.01-3.97c1.92-1.01,3.9-1.91,5.79-2.83c1.84-1.16,3.58-2.33,5.26-3.42c1.23-0.72,2.46-1.39,3.68-2.04
			c2.01-1.08,4.07-1.91,6.14-3.03l3.64-1.71l2.29-1.22l2.09-1.25l0.9-0.56l0.9-0.53l0.63-0.3l1.83-0.66l-1.23,2.05l-0.17,0.6
			l-0.57,1.23c-0.48,1.15-0.89,2.31-1.27,3.49l-0.73,2.45l-0.3,1.23l-0.41,2.46l-0.23,1.23v1.23l0.26,2.46l0.48,2.46l0.74,2.46
			l0.98,2.46h2.05h1.63l1.22-0.39l1.11-0.35l1.97-1.23l1.51-1.71l1.07-2.45l0.78-2.26l0.51-1.83l0.43-2.05l-1.47,0.77l-0.98,1.01
			l-0.4,0.86l-0.28,0.41l-0.55,1.85l-2.58-0.72l-1.12-0.5l-1.72-1.62l-0.72-0.84l-0.67-2.46l0.14-2.46l0.88-2.46l0.64-1.23
			l1.47-2.46l1.54-2.46l1.43-2.46c1.07-1.93,1.94-3.93,2.94-5.94l0.49-1.23l0.26-0.6l0.7-2.05l-2.05,0.13l-0.6,0.1l-1.23,0.19
			l-2.29,0.81c-1.73,0.48-3.3,1.4-4.88,2.46l-1.23,0.61l-2.46,1.46c-1.23,0.69-2.46,1.38-3.68,2.02l-2.46,1.21
			c-1.65,0.84-3.31,1.49-4.91,2.33c-1.68,0.96-3.28,1.91-4.91,2.87l-4.91,3l-3.68,1.93l-2.46,1.37l-3.68,1.98
			c-1.25,0.85-2.47,1.41-3.68,2.15l-3.68,2.38l-3.68,2.22c-2.46,1.53-4.91,3.06-6.64,5.37l-1.32,2.25l-0.8,2.44l-0.5,1.63
			L679.63,206.55"/>
		<path class="st0" d="M590.01,183.22l-0.02-4.91l-0.12-2.46l-0.15-1.21l-0.63-2.31l-0.54-1.05l-0.69-0.94l-0.85-0.63l-2.06-1.23
			l-2.34-0.42l-2.44,0.56l-1.23,0.64l-1.98,1.85l-1.74,2.29l-0.74,1.21l-1.23,2.45l-0.89,2.46l-0.52,2.46l-0.26,1.23v1.23v3.68
			l2.05,0.24l0.4,0.14l1.23,0.25l3.49,0.9l1.23,0.32l0.6,0.17l2.05,0.43l-0.75,2.05l-1,1.78l-1.48,2.31l-1.68,1.94l-2.64,3.18
			l-2.82,3.49l-4.01,4.89l-3.67,4.2l-1.71,2.11l-1.54,2.28l-1.09,1.64l-0.93,2.05l2.05-0.37l1.63-0.69c1.23-0.61,2.46-1.24,3.48-2.1
			l1.08-0.95l1.05-1.04c1.44-1.53,2.82-3.1,4.2-4.68c1.77-2.03,3.49-4.08,5.21-6.14c1.35-1.61,2.72-3.22,3.97-4.91l1.71-2.45
			l2.14-3.55l0.7-1.08l1.58-1.82l1.84-1.23l1.13-0.39l2.58-0.52l1.03-2.02l0.9-1.66l0.52-1.09l0.35-0.58l0.88-2.02H590.01z
			 M583.05,181.37l-0.59-0.01l-1.21,0.1c-1.11-0.08-2.29-0.21-3.52-0.36l-0.41-0.1l-2.05-0.22l0.88-2.31l0.57-0.92l1.51-1.19
			l1.91-0.49l1.87,0.42l1.45,1.19l0.89,1.4l0.73,1.9L583.05,181.37z"/>
		<path class="st0" d="M469.7,188.13l-3.68,4.97l-0.78,1.2l-1.68,2.42l-0.7,1.23l-1.06,2.46l-0.69,1.63v2.05
			c1.23,0.44,2.46,0.84,3.68,1.35l3.68,1.5l2.46,1.2l1.23,0.63l1.23,0.6l1.23,0.52l1.22,0.38l2.41,0.11
			c1.23-0.15,2.4-0.87,3.33-1.69l1.89-1.87l0.83-1.01l1.36-2.08l1.16-2.1l0.42-2.41l-0.52-2.17l-0.63-0.95l-1.85-1.58l-1.11-0.65
			l-2.39-1.2l-2.45-1.18c-1.56-0.75-3.11-1.51-4.91-2.14l-1.63-0.7L469.7,188.13"/>
		<path class="st0" d="M499.17,184.45c-1.23,1.59-2.17,3.2-3.32,4.91c-1.02,1.23-2.09,2.58-3.06,4l-1.17,2.13l-0.67,1.65l-0.37,2.03
			l2.05,0.81l1.63,0.84l1.23,0.53l3.68,1.7l2.46,1.08l2.46,0.86l1.23,0.31h1.23l1.23-0.36c1.23-0.45,2.46-1.36,3.63-2.1l2.23-2.46
			l0.97-1.2l0.85-1.2l1.25-2.31l0.31-0.6l0.58-2.05l-2.05-1.23l-1.83-0.98l-5.94-2.7l-4.91-2.39l-1.23-0.48l-0.4-0.26L499.17,184.45
			"/>
		<path class="st0" d="M49.86,206.55c-0.86-1.22-1.7-2.46-2.61-3.67l-1.53-1.97l-1.71-2.03l-1.92-2.05c-1.04-1.06-2.18-2-3.33-2.92
			l-2.41-1.67l-2.45-1.31l-2.46-0.85l-1.23-0.23l-1.23-0.08l-1.23,0.09l-1.92,0.77l-1.54,1.57l-0.54,1.02l-0.63,2.3l-0.28,1.21v2.46
			v4.91l2.46,0.72l2.46,0.51h1.19l2.08-0.41l0.75-0.41l0.48-0.75l0.41-2.11l2.05,0.8l0.4,0.42l1.23,0.75
			c1.82,1.26,3.31,2.66,4.68,4.18l2,2.43l0.68,1.23l1,1.23l1.39,2.46l1.13,2.46l0.5,1.23l0.27,0.4l0.63,2.05l-2.05,0.06l-1.83,0.22
			c-1.19,0.27-2.35,0.57-3.49,1.17l-2.12,1.54l-0.95,0.97l-1.58,2.23l-1.26,2.41l-0.58,1.22l-1.72,3.68l-1.03,2.46l-0.83,2.46
			l-0.54,1.63l-0.44,2.05l2.05-0.36l1.63-0.62c2.46-0.97,4.88-2.2,7.37-2.94l2.46-0.59l1.23-0.21l2.46-0.18l2.45-0.49l1.22-0.14
			l1.2-0.06l1.16,0.07l1.07,0.25l0.91,0.46l1.03,1.54c0.21,1.2-0.45,2.34-1.03,3.31l-0.91,1.21l-2.21,2.45l-2.44,2.25l-3.14,3.18
			l-1.94,2.11l-1.65,2.28l-1.08,1.64l-0.78,2.05l2.05,0.25l1.63-0.17l2.46-0.69l1.23-0.54c1.69-0.86,3.33-1.79,4.91-2.82l2.45-1.68
			l1.21-0.94l1.2-1.02l1.16-0.97l1.11-1.23l2-2.46l1.65-2.46l1.32-2.46l1.11-2.46l0.5-1.23l0.9-2.46l0.69-2.46l0.42-2.46l0.17-2.45
			l-0.02-2.44l-0.31-2.34l-0.35-1.08l-0.52-0.97l-0.71-0.85l-1.9-1.23l-1.12-0.38l-1.18-0.25l-1.21-0.15l-1.22-0.08l-2.46-0.05
			l-6.14,0l0.22-2.05l0.11-0.4c0.25-1.77,0.5-3.34,0.68-4.91c0.14-1.23,0.16-2.46,0.19-3.68c0.02-2.05-0.01-4.09,0.02-6.14
			l0.53-2.43l0.38-1.18l1.23-2.13l0.84-0.86l0.96-0.66l2.07-0.58l1.84,0.48l0.74,0.55l1.23,1.9l1.75-0.8l0.38-0.42l1.38-1.62
			l0.49-0.84l0.44-2.46l-0.06-1.18l-0.27-1.14l-1.18-2.05l-1.89-1.52l-2.3-0.8l-1.2-0.12l-1.23,0.07l-1.23,0.24l-2.12,0.94
			l-1.79,1.46l-0.73,0.91l-1.16,2.1l-0.83,2.34l-0.29,1.21l-0.21,1.22c-0.26,2.02-0.27,4.06-0.47,6.14l-0.37,2.46l-0.11,0.4
			L49.86,206.55"/>
		<path class="st0" d="M135.79,201.64l-1.62-1.23l-0.43-0.63l-0.91-0.99l-4.43-5.73l-1.97-2.34l-1.01-1.09l-2.12-1.92l-1.12-0.79
			c-1.12-0.69-2.35-1.21-3.58-1.66l-1.63-0.52l-2.05-0.28l-0.64,2.65l-0.23,1.23l-0.35,2.26v2.46v3.68h2.05
			c1.38,0,2.8,0.05,4.09,0.55l1.18,0.67l2.28,1.52l1.07,1.06l1.99,2.34c1.53,1.93,2.88,4,4.11,6.13l1.93,3.68l1.17,2.06l0.68,0.99
			l0.3,0.63l1.24,1.23l0.74-2.05l0.1-0.4l0.3-1.23l0.09-1.23c0.44-2.08,0.79-4.1,1.04-6.14l0.19-3.68l0.37-1.23l0.52-2.45l0.34-1.22
			l0.53-1.21l0.62-1.17l0.77-1.1l0.91-0.97l0.86-0.77l2.46-0.68l2.34,0.6l1.1,0.66l1.98,1.5l1.01,0.7l0.48,0.4l1.67,0.8l0.38-2.05
			l0.31-1.63l0.19-2.46l-0.05-1.23l-0.54-2.38l-1.21-2.14l-1.82-1.58l-2.23-0.85l-2.4-0.16l-2.45,0.49l-1.23,0.52l-2.18,1.58
			l-1.87,2.14l-0.86,1.18l-0.52,1.21l-0.7,1.22l-0.57,2.45l-0.43,2.46C135.75,197.51,135.79,199.58,135.79,201.64"/>
		<path class="st0" d="M360.45,197.95l-4.97-4.91l-2.41-2.44l-2.45-2.29l-1.23-1.02l-2.46-1.61c-1.66-0.94-3.68-1.23-5.31-1.9
			l-2.05-0.55l-1.39,2.65l-0.55,1.23l-0.73,2.28l-0.23,1.2l-0.02,2.46l0.74,1.92l1.5,1.49l1.92,0.73l1.23,0.12l2.46,0.12l1.23,0.2
			l1.22,0.41l1.21,0.64l2.36,1.84l2.17,2.37c1.24,1.23,2.45,2.53,3.5,4.03c0.98,1.4,1.75,2.92,2.61,4.56l1.24,1.71l0.82,0.75
			l0.37,0.42l1.69,0.8c0.31-1.65,0.66-3.3,0.88-4.91c0.21-1.67,0.29-3.28,0.33-4.91l0.02-6.14l0.28-2.45l0.25-1.21l0.91-2.3
			l0.69-1.01l0.85-0.86l1.92-1.09l1.23-0.19l1.22,0.03l1.19,0.21l2.31,0.68l0.6,0.22l2.05,0.61l0.51-2.05l0.23-1.63l-0.01-1.23
			l-0.46-2.28l-1.18-1.89l-0.84-0.71l-0.97-0.52l-2.22-0.54h-2.41l-1.23,0.19l-1,0.34l-2,1.23l-1.63,1.9l-0.66,1.12l-0.56,1.18
			l-0.84,2.43c-0.44,1.54-0.67,3.14-0.97,4.91l-0.39,1.63L360.45,197.95"/>
		<path class="st0" d="M94.05,180.77l-0.96,2.05l-0.27,0.6l-0.44,1.23l-2.02,5.94l-1.23,3.68c-0.41,1.61-0.81,3.23-0.89,4.91
			c-0.08,1.65,0.13,3.3,0.49,4.91c0.27,1.24,0.4,2.46,0.92,3.68l1.03,3.68l0.61,2.46c0.29,2.05,0.88,4.1,1.39,6.14
			c0.72,2.87,1.66,5.68,2.2,8.59l0.38,3.68l0.75,3.68l1.18,6.14l0.82,4.91l0.58,3.68c0.26,2.04,0.35,4.09,0.56,6.14
			c0.17,1.66,0.53,3.28,0.88,4.91l0.82,3.68l0.85,4.91l0.4,2.46l0.33,2.46l0.19,3.68l1.07,6.14l0.49,3.68
			c0.21,1.62,0.52,3.26,0.42,4.91l-0.43,2.46l-0.44,1.23l-1.28,2.46l-0.8,1.23l-0.89,1.23l-0.98,1.23l-1.05,1l-2.28,2.05l-1.2,0.94
			l-2.44,1.79l-2.45,1.76l-3.68,2.63c-2.46,1.67-4.91,3.34-7.37,4.8l-3.68,2.22c-2.01,1.23-4.03,2.46-6.14,3.29
			c-1.99,0.93-4.05,1.71-6.14,2.41c-2.02,0.68-4.07,1.28-6.14,1.79c-1.62,0.41-3.26,0.78-4.91,1.1c-1.62,0.21-3.27,0.4-4.91,0.3
			c-2.12-0.12-4.17-0.67-6.14-1.44c-3.08-1.21-6.14-2.94-8.37-5.25c-2.12-2.05-3.91-4.52-5.24-7.1c-1.25-2.32-2.35-4.8-2.74-7.37
			c-0.46-2.02-0.84-4.07-0.84-6.14c0.22-2.08,0.62-4.12,1.1-6.14c0.61-2.46,1.35-4.91,2.42-7.37c0.69-1.66,1.38-3.28,2.25-4.91
			l1.59-3.68c0.83-1.62,1.57-3.23,2.23-4.88l0.77-2.29l0.43-1.83l0.25-2.05l-2,0.8l-1.68,1.17l-1.8,1.89l-0.84,1.12l-1.47,2.39
			c-1.24,2.45-2.27,4.9-3.25,7.36c-0.61,2.03-1.23,4.1-1.85,6.14l-1.22,3.68l-1.12,3.68l-1.04,3.68c-0.61,2.46-1.03,4.91-1.42,7.37
			c-0.19,1.23-0.42,2.46-0.51,3.68l-0.21,2.46v2.46v2.25c0.26,1.06,0.38,2.13,0.57,3.18c0.27,1.51,0.66,3.16,1.13,4.44l0.75,2.41
			c1.17,2.57,2.46,5,4.13,7.36c0.78,1.02,1.68,2.11,2.65,3.11c1.3,1.35,2.77,2.53,4.27,3.58c1.21,0.78,2.43,1.49,3.68,2.1
			c1.57,0.77,3.2,1.4,4.91,1.78c1.6,0.48,3.27,0.48,4.91,0.48c1.23,0,2.45,0,3.68,0l1.23-0.21l2.46-0.36
			c1.65-0.33,3.29-0.66,4.91-1.18c4.2-1.18,8.3-2.72,12.28-4.39c1.67-0.91,3.29-1.8,4.91-2.68c1.23-0.68,2.46-1.38,3.68-2.13
			c2.98-1.85,5.76-3.79,8.59-6.06c2.05-1.41,4.14-2.92,6.13-4.48c2-1.56,3.96-3.07,5.74-5.02c0.99-1,1.95-2.05,2.81-3.17
			c1.28-1.92,2.8-3.93,4.16-5.92l1.71-2.39l1.55-2.13l1.76-1.52l1.93-1.33v2.05l0.51,1.83l0.72,2.29l0.59,1.2l1.27,2.45
			c0.59,1.23,1.49,2.46,2.4,3.47c1.27,1.49,2.75,2.78,4.33,3.91c1.54,1.22,3.17,1.97,4.91,2.6l2.46,0.66l1.23,0.19l1.23,0.23h2.46
			h2.46c1.65,0,3.3,0,4.91-0.51c1.76-0.43,3.37-1.18,4.91-1.94l2.44-1.88l1.19-0.98l1.15-1.05l2.11-2.23l1.71-2.46
			c1.07-1.56,1.88-3.25,2.77-4.89c0.61-1.12,1.22-2.24,1.91-3.31l1.16-1.52l1.53-1.33v2.05l0.63,1.83l0.94,2.27l1.36,2.44l1.58,2.05
			l0.83,0.98l0.8,0.9l1.86,1.53c1.82,1.39,4.27,2.11,6.73,2.57l2.46,0.36l1.23,0.22h1.23l2.46-0.23l2.46-0.42
			c1.23-0.26,2.46-0.57,3.68-1.28l1.22-0.52l1.21-0.86l2.34-1.87l2.11-2.18l0.92-1.23l1.57-2.46l0.66-1.23l0.61-1.23l1.06-2.46
			l0.84-2.46c0.51-1.59,0.77-3.27,0.96-4.91l0.65-3.68l0.11-1.23v-2.46l-0.28-2.46l-0.48-2.46c-0.19-1.65-0.5-3.29-1.02-4.88
			c-0.69-2.13-1.72-4.14-2.66-6.17h-2.46l-0.96,2.05l-0.27,0.6l-0.85,2.32l-0.93,2.41l-0.68,1.22c-0.61,1.98-1.57,3.97-1.65,6.14
			c-0.1,2.57,1.08,4.93,1.86,7.37l0.62,2.46l0.16,0.4l0.25,2.05l-2.05,0.43l-0.6,0.17c-1.96,0.63-3.91,1.05-5.95,1.09l-2.45-0.17
			l-1.23-0.22l-2.46-0.66l-2.46-0.96l-2.05-1.32l-0.98-0.8l-0.91-0.88l-1.6-1.96l-0.69-1.07l-0.6-1.01l-0.81-2.46l-0.13-2.45
			l0.18-1.22l0.6-2.41l0.3-1.09l0.38-1.83l0.17-2.05l-2.05,0.42l-1.81,0.84l-2.28,1.58l-0.97,1.02l-1.93,2.3
			c-0.86,1.2-1.57,2.43-2.27,3.66c-0.96,1.64-1.77,3.32-2.77,4.91l-1.62,2.46l-0.91,1.23l-2.03,2.46l-1.11,1l-1.16,1.05l-2.41,1.87
			l-2.45,1.51l-1.23,0.7l-1.23,0.36l-2.46,0.58l-2.46,0.28h-1.23l-2.46-0.42l-2.46-0.63l-1.23-0.46l-1.23-0.56l-2.46-1.43
			l-2.46-1.82l-1-1.04l-1.99-2.22c-0.86-1.17-1.63-2.4-2.23-3.68c-0.93-1.99-1.65-4.06-2.35-6.14c-0.68-2.03-1.29-4.08-1.9-6.14
			l-1.02-3.64c-0.73-2.88-1.15-5.81-1.51-8.64l-0.48-4.91l-0.7-4.91l-0.67-4.91c-0.44-2.88-1.08-5.73-1.6-8.59
			c-0.52-2.05-0.68-4.11-1.13-6.14l-0.93-3.68l-0.53-2.46c-0.38-1.63-0.48-3.27-0.71-4.91l-0.89-4.91l-0.19-3.68
			c-0.15-1.23-0.34-2.46-0.56-3.68c-0.47-2.06-0.83-4.11-1.39-6.14c-0.68-2.46-1.55-4.88-2.18-7.37c-0.59-2.03-0.91-4.09-1.32-6.14
			l-1.47-7.37l-0.77-3.68l-0.7-2.39l-0.6-2.13l-0.63-0.99l-0.11-0.53L94.05,180.77"/>
		<path class="st0" d="M281.88,177.08l-1.23,2.05l-0.22,0.6l-0.63,1.23l-0.52,1.09l-1.21,2.41l-1.88,3.68
			c-0.78,1.61-1.67,3.25-2.15,4.91c-1.13,2.79-2.28,5.62-2.79,8.59c-0.4,2.02-0.4,4.09-0.4,6.14c0,1.23,0,2.46,0,3.68l0.42,2.46
			l0.28,1.23l0.39,1.23l0.52,1.23l1.47,1.81l1.82,1.38l2.46,0.65l2.44-0.04l1.19-0.11l1.15-0.58l2.1-1.34l1.7-1.76l0.68-1.23
			l1.03-2.46l0.38-1.2l0.6-2.29l0.45-1.83l0.55-2.05l-2.05,0.78l-0.6,0.45l-1.23,0.55l-2.28,1.22l-2.43,0.69h-1.23l-1.92-0.98
			l-1.54-1.76l-0.52-0.94l-0.35-1.23l-0.22-2.46c0.03-2.12,0.72-4.17,1.41-6.14l0.94-2.46l1.5-3.68l1.04-2.46l0.52-1.23l0.92-2.45
			l0.63-2.39l0.06-2.13l-0.16-0.99l-0.05-0.53L281.88,177.08"/>
		<path class="st0" d="M221.73,197.95l2.05-0.53l1.63-0.7l2.46-1.11l4.91-2.57c1.21-0.84,2.44-1.47,3.68-2.06
			c2.02-0.96,4.09-1.62,6.14-2.68l4.91-2.25l3.63-1.6l1.15-0.65l2.06-1.41l1.53-1.63l0.57-1.16l0.88-2.52
			c-1.29,0.03-2.59,0-3.88,0.13c-1.18,0.12-2.35,0.33-3.49,0.65c-1.68,0.48-3.31,1.18-4.9,1.9l-2.46,1.13l-6.14,2.97l-3.68,1.81
			l-2.46,0.96l-2.46,1.24l-2.18,1.47l-0.97,0.78l-1.54,1.91l-0.91,2.22L222,195.5l-0.28,0.41V197.95"/>
		<path class="st0" d="M415.69,205.88l-0.62-0.18l-1.83-0.39v-2.05l0.35-1.63l0.53-3.68c0.15-1.23,0.27-2.45,0.28-3.68l-0.07-2.45
			l-0.14-1.21l-0.63-2.3l-0.54-1.01l-1.54-1.52l-2.05-0.55l-1.14,0.14l-1.18,0.41l-2.46,1.52l-1.98,2.13l-0.92,1.18l-1.56,2.43
			l-1.23,2.45l-0.89,2.46l-0.29,1.23l-0.17,1.23l-0.02,1.23l0.45,2.46l1.2,2.22l0.85,1.04l1.97,1.78l1.76,1.22l2.05,1.11l-2,2.05
			l-4.66,4.97c-1.93,1.85-3.75,3.58-5.63,5.36l-6.12,6.03l-2.46,2.1l-4.91,4.24l-4.91,4.7c-1.23,1.01-2.46,2.09-3.68,3.14
			l-2.46,2.01l-3.68,2.92l-3.68,2.98c-1.59,1.23-3.19,2.24-4.91,3.68l-1.71,1.6l-0.76,1.02l-0.42,0.47l-0.8,1.82l2.05-0.68l0.4-0.32
			l1.23-0.58l7.37-4.29c2.46-1.45,4.91-2.74,7.37-4.43c3.92-2.7,7.37-5.93,11.05-9.02l4.91-4.02l4.91-4.71l4.89-4.24
			c1.2-1.09,2.38-2.1,3.49-3.33l2.1-2.46l1.8-2.45c1.09-1.17,1.97-2.41,3.02-3.49c0.94-0.96,1.89-1.85,3.11-2.41l2.28-0.56
			l1.22,0.01l0.59,0.01l2.05,0.31l0.53-2.02l0.34-1.66l0.23-1.66l0.12-2.02L415.69,205.88z M407.5,202.34l-0.58-0.25l-2.28-1.01
			l-0.84-0.67l-1.4-1.66l-0.31-1.87l0.88-1.71l1.66-1.21l1.11-0.39l2.58-0.52l0.64,2.64l0.23,1.21l0.24,2.29l0.09,1.63l0.02,2.05
			L407.5,202.34z"/>
		<path class="st0" d="M699.27,223.73l2.05,1.23l0.4,0.17l1.23,0.57c1.75,0.63,3.33,1.17,4.91,1.71l5.32,1.8l2.05,0.66l1.91-2.05
			l1.48-1.63l1.52-2.46l0.67-1.23l0.98-2.45c0.8-2.78,0.78-5.72,0.8-8.6l-2.05-0.4l-1.83-0.43l-3.49-0.92l-1.22-0.34l-2.45-0.6
			l-1.23-0.18l-2.19,0.15l-1.01,0.41l-0.92,0.64l-0.82,0.85l-1.44,2.12l-1.27,2.39l-0.61,1.22c-0.55,1.23-1.09,2.46-1.58,3.68
			l-0.67,1.63L699.27,223.73"/>
		<polyline class="st0" points="234,199.18 232.77,201.23 232.61,201.83 230.68,205.35 229.43,207.77 228.3,210.23 227.42,212.69 
			226.92,214.32 226.64,216.37 228.69,217.18 230.32,218.02 235.23,220.35 236.46,220.95 238.91,222 240.14,222.51 242.58,222.51 
			244.92,221.64 246.01,220.84 247.02,220.05 248.72,217.6 249.95,215.14 250.68,212.69 250.85,211.46 250.88,210.25 250.74,209.07 
			249.92,206.92 249.22,206.01 247.32,204.58 246.21,204.09 243.82,203.04 242.59,202.56 240.35,201.64 237.36,200.11 
			236.31,199.74 235.83,199.53 234,199.18 		"/>
		<path class="st0" d="M661.14,285.11l-0.11-1.23l-0.56-2.44l-1.23-2.34l-0.88-1.08l-1.02-0.97l-2.3-1.54l-2.43-0.91l-2.45-0.39
			l-2.46-0.07l-2.46,0.2l-2.46,0.58c-1.73,0.56-3.33,1.6-4.91,2.33l-2.46,1.39l-2.46,1.56c-1.23,0.66-2.46,1.45-3.47,2.46
			c-1.46,0.98-2.85,2.18-4.24,3.37c-2.1,1.69-3.88,3.41-5.79,5.27c-1.4,1.56-2.79,3.22-4.2,4.86c-1.07,1.24-2.15,2.48-3.27,3.68
			l-7.26,7.37c-1.01,1.23-2.08,2.46-3.16,3.68c-1.05,1.23-2.07,2.46-3.18,3.68c-2.25,2.19-4.73,4.21-7.16,6.3l-3.68,3.17
			c-1.99,1.64-4.02,3.24-6.14,4.72l-2.46,1.77l-2.46,1.23l-2.46,1.23c-1.23,0.31-2.46,0.57-3.68,0.8l-2.46,0.18l-1.23-0.07
			l-1.23-0.19l-1.23-0.3l-2.46-0.98l-2.46-1.47l-0.84-0.91l-0.88-1.01l-0.74-0.96l-0.84-2.46l-0.39-1.23v-2.46v-2.46l0.28-1.23
			l0.63-2.43l1.23-2.31l1.82-2.01c1.37-1.23,3.04-2.08,4.63-2.97c1.65-0.92,3.3-1.83,4.91-2.83c3.68-2.17,7.33-5.03,11.05-7.46
			l7.37-4.54c2.08-1.23,4.13-2.77,6.14-4.21l3.68-2.7c2.06-1.54,4.11-2.91,6.14-4.66c2.82-2.2,5.65-4.39,8.19-6.85
			c0.99-1.08,1.92-2.13,2.84-3.18c0.9-1.04,1.8-2.08,2.47-3.17l1.89-2.25l0.8-1.23l0.75-1.23l1.31-2.46l1.11-2.46l1.44-3.68
			c0.6-1.62,1.13-3.26,1.64-4.91l1.48-4.91c0.47-1.56,0.95-3.1,1.25-4.71c0.26-1.4,0.36-2.66,0.44-4.24l0.13-3.33
			c0.03-1.67,0.03-3.29-0.02-4.91l-0.18-2.46l-0.41-2.46l-0.61-2.46l-0.71-2.46c-0.5-1.23-0.71-2.46-1.14-3.68l-0.91-2.46
			c-0.53-1.23-1.07-2.46-1.7-3.68c-0.66-1.23-1.42-2.44-2.18-3.63l-0.74-1.09l-0.8-1.23l-0.43-0.6l-1.21-2.05h-1.67l-0.48-0.3
			l-1.01-0.27l-0.92-0.35l-2.16-0.74l-2.36-0.51l-1.21-0.12l-1.22-0.03l-2.45,0.22l-2.46,0.88l-2.46,1.23l-1.23,0.7l-1.23,0.95
			l-1.99,2.15l-1.8,2.36l-1.51,2.44c-0.84,1.23-1.32,2.45-1.85,3.68c-0.85,2.01-1.59,4.06-2.24,6.14c-0.43,1.23-0.75,2.46-1.02,3.68
			c-0.26,1.23-0.42,2.46-0.64,3.68c0,1.57,0,3.14,0.21,4.7l0.12,1.09l0.18,1.06l0.58,2.09l0.42,1.07l1.16,2.27l0.74,0.96l1.82,1.81
			l0.9,0.69l2.46,0.91l2.46,0.54h1.23l1.23-0.22l1.23-0.12l1.23-0.13c1.23-0.11,2.45-0.25,3.68-0.14l2.46,0.62l1.23,0.2l1.22,0.51
			l1.21,0.63l2.25,1.63l1.67,2.07l0.46,1.15l0.14,1.19l-0.18,1.21l-0.62,1.23l-1.42,2.23c-1.85,2.11-4,3.92-6.15,5.72
			c-2.73,2.28-5.54,4.47-8.38,6.78c-1.62,1.23-3.24,2.46-4.91,3.43c-1.61,1.12-3.27,2.16-4.91,3.23l-3.68,2.46l-3.68,2.53
			l-6.14,3.92l-3.68,2.29c-2.01,1.19-4.09,2.26-6.14,3.39c-2.49,1.37-4.95,2.8-7.37,4.31c-1.24,0.77-2.48,1.56-3.68,2.4
			c-2.05,1.51-4.04,2.96-6.14,4.32c-1.61,1.05-3.27,2.1-4.91,3l-3.68,2.27l-3.68,2.26l-4.91,3.16c-1.62,1.23-3.24,2.13-4.91,3.13
			c-2.8,1.78-5.73,3.08-8.59,4.62c-1.66,0.89-3.28,1.85-4.91,2.79l-6.14,3.54l-2.46,1.58l-4.91,3.46c-1.23,0.84-2.46,1.76-3.68,2.42
			c-1.6,0.97-3.26,1.83-4.91,2.71l-1.23,0.63l-2.46,1.34l-1.23,0.8l-1.71,1.51l-1.17,1.49l-0.8,1.91h2.05l0.4-0.22l1.23-0.18
			l2.46-0.56c1.69-0.47,3.3-1.11,4.91-1.74c2.45-0.96,4.87-1.96,7.37-2.8l3.68-1.14c1.65-0.5,3.29-1.01,4.91-1.57l7.37-2.73
			l6.14-1.89c1.23-0.4,2.46-0.87,3.68-1.39c2.97-1.28,5.79-2.87,8.59-4.46c2.02-0.95,3.99-2.42,6.14-3.32l1.22-0.48l2.41-0.68
			l1.09-0.16l1.23-0.39l0.6-0.1l2.05-0.74v7.37c0,1.97-0.04,3.98,0.32,5.92c0.35,1.86,1.12,3.59,1.86,5.33l1.03,2.29l0.48,1.18
			l0.89,1.23l1.85,2.06l0.95,0.88l1.23,0.74l2.46,0.85l1.23,0.37c1.22,0.03,2.45,0.15,3.68,0.23c1.22,0.08,2.46,0.17,3.68,0.12
			l2.46-0.16l2.46-0.19c1.65-0.39,3.29-0.7,4.91-1.1c2.42-0.61,4.84-1.33,7.02-2.58c1.52-0.87,2.81-1.98,4.24-3.09l3.47-2.95
			c2.02-1.7,4.07-3.35,5.93-5.21c1.44-1.48,2.67-3.09,4.13-4.7l3.98-4.91l5.27-6.14c1.41-1.64,2.78-3.31,4.22-4.91
			c1.52-1.68,3.1-3.3,4.7-4.91l3.68-3.57l2.46-2.17l2.46-1.89c1.57-0.96,3.23-2.16,4.91-3.13c1.2-0.69,2.42-1.38,3.68-1.95
			c2.3-1.03,4.8-1.88,7.37-1.57l2.45,0.77l1.21,0.39l1.18,0.84l1.13,0.65l1.99,1.84l0.53,0.49l1.33,1.93h2.46l0.51-2.45l0.19-1.08
			l0.24-1.93l0.16-2.11c0.05-1.02,0.1-2.25,0.1-3.47L661.14,285.11z M610.06,223.22l-1.83,0.51h-2.29c-1.22,0-2.42-0.23-3.65-0.46
			c-2.1-0.41-4.11-1.25-6.14-1.99l0.8-1.98l0.42-0.48l1.62-1.76l2.07-1.12l2.46-0.3l2.4,0.46l2.23,1l0.97,0.64l1.53,1.46l0.57,0.97
			l0.88,2.33L610.06,223.22z"/>
		<path class="st0" d="M165.26,245.83l-1.23,2.05l-0.87,1.82l-0.82,2.26l-0.29,1.23l-0.48,1.63v2.05l2.05-0.8l0.4-0.4l1.23-0.72
			l3.68-2.58c1.2-0.87,2.42-1.63,3.68-2.47l2.46-1.43c1.62-0.91,3.24-1.81,4.91-2.63l2.43-1.12l1.18-0.59l2.14-1.45l1.58-1.77
			l0.87-2.28l0.21-1.21l0.1-0.59l0.08-2.05l-2.05,0.24l-1.83,0.39l-4.72,1.19l-2.45,0.41c-1.23,0.23-2.46,0.23-3.68,0.23
			c-1.23,0-2.46,0-3.68,0l-2.46-0.35l-1.23-0.23l-2.46-0.64v-2.46l2.05-0.7l0.41-0.27l2.37-0.81l1.99-0.36l1.48,0.19l1.52,0.72
			l1.1-2.05l0.63-1.63l0.22-1.23l0.18-2.26l-0.21-1.82l-0.7-2.05l-2.65,0.68l-1.23,0.55l-2.28,1.23l-2.43,1.57l-1.23,1.05l-1,1.13
			l-1.04,1.18l-0.95,1.21l-1.54,2.45l-0.99,2.46l-0.28,1.23l-0.35,1.23v2.46l0.63,2.03l0.96,1.78l1.37,1.27l0.94,0.44L165.26,245.83
			"/>
		<path class="st0" d="M560.33,245.83c-0.15-1.65-0.44-3.29-0.78-4.91l-0.53-2.46c-0.31-1.23-0.64-2.46-1.04-3.68l-0.89-2.46
			c-0.64-1.63-1.45-3.25-1.99-4.86l-1.52-3.38c-0.51-1.07-1.02-2.16-1.67-3.16l-1.61-2.11l-2.11-2.35l-2.38-2.1l-2.45-1.69
			l-2.46-1.57l-2.46-1.11l-2.46-0.65l-1.23-0.14l-2.46,0.04l-2.46,0.4l-1.23,0.32l-1.23,0.39l-1.23,0.46l-1.23,0.63l-1,0.51
			l-2.03,1.51l-1.88,1.92l-0.64,1.09l-0.7,1.15l-0.65,1.19l-1.1,2.44l-0.85,2.45c-0.6,2-0.96,4.08-1.26,6.14
			c-0.48,2.84-0.96,5.7-0.93,8.59l0.28,2.46l0.24,1.23l0.71,2.46l1.23,2.46l0.99,1.23l0.9,0.95l2.03,1.82l1,0.69l2.46,0.91
			l2.46,0.54l2.46-0.23l2.46-0.34c1.23-0.25,2.46-0.53,3.68-0.66l3.68-1.2l2.46-0.55l2.45-0.09l1.22,0.24l1.2,0.46l2.23,1.54
			l0.91,1.02l0.57,1.12l0.56,2.38l-0.26,1.23l-1.26,2.25l-0.88,1.09l-0.99,1.06l-2.19,2.09l-2.36,2.17
			c-1.61,1.46-3.22,2.91-4.89,4.28l-3.68,3.02l-4.91,3.68c-1.63,1.28-3.25,2.58-4.91,3.81c-2.02,1.5-4.08,2.97-6.14,4.42
			c-1.63,1.15-3.25,2.29-4.91,3.38l-2.46,1.51c-1.99,1.17-4.04,2.25-6.14,3.23l-3.68,1.6l-2.46,1.06c-2.82,1.22-5.63,2.51-8.59,3.36
			c-2.01,0.58-4.08,0.96-6.14,1.26c-2.03,0.34-4.07,0.72-6.14,0.71c-2.92-0.01-5.8-0.74-8.59-1.53c-3.38-0.96-6.73-1.93-9.82-3.79
			l-2.46-1.46l-2.46-1.58l-1.02-0.93l-1.08-0.93l-2.04-2.05c-1.63-1.8-3.23-3.78-4.2-5.91c-0.64-1.18-1.21-2.43-1.7-3.68l-1.02-2.46
			c-0.31-1.22-0.69-2.44-1.23-3.68c-0.24-1.6-0.62-3.23-0.92-4.86c-0.3-1.28-0.48-2.95-0.57-4.44c-0.13-2.23,0.04-4.45,0.16-6.66
			c0.08-1.65,0.11-3.29,0.31-4.91c0.25-2.06,0.58-4.12,1.02-6.14l0.73-2.46l0.92-2.46l1.61-3.68l0.87-2.41l0.52-2.32l0.12-0.6
			l0.14-2.05l-1.65,1.33l-1.36,1.52c-0.8,1.06-1.59,2.13-2.22,3.31l-1.19,2.43l-1.45,3.68c-0.91,2.46-1.95,4.91-2.35,7.37
			c-0.48,2.03-0.83,4.09-1.15,6.14l-0.91,3.68l-0.66,3.68c-0.23,1.23-0.57,2.46-0.57,3.68c0,1.23,0,2.46,0,3.68
			c0,2.06,0,4.1,0.37,6.14c0.35,2.48,0.86,4.91,1.52,7.37c0.46,2.46,0.56,4.97,1.34,7.37c0.45,2.14,1.62,4.15,2.61,6.14
			c1.05,2.1,2.13,4.22,3.53,6.14c0.92,1.23,1.93,2.46,2.9,3.47l2.46,2.09l1.23,0.96l1.23,0.91l2.46,1.63l2.46,1.31l2.46,1.02
			l2.46,0.87l2.46,0.8c1.22,0.43,2.43,0.76,3.68,1.02l2.46,0.41l2.46,0.23c1.64,0,3.27,0,4.91,0h3.68l2.46-0.23l2.46-0.41
			c1.67-0.35,3.31-0.88,4.91-1.45c2.06-0.73,4.11-1.52,6.14-2.34c1.65-0.49,3.29-1.35,4.91-2.09l3.68-1.78
			c2.08-1.04,4.14-2.12,6.14-3.31c1.67-0.99,3.3-1.9,4.91-3.13c2.06-1.23,4.12-2.77,6.14-4.21c2.07-1.48,4.1-3.02,6.14-4.39
			l6.14-4.77c1.65-1.27,3.28-2.57,4.86-3.82l3.36-3.07c1.34-1.2,2.64-2.43,3.91-3.7c1.37-1.38,2.6-2.85,3.83-4.28
			c1.44-1.62,2.76-3.22,3.95-4.91c0.96-1.56,2.1-3.2,2.95-4.91l1.1-2.46l0.46-1.23l0.73-2.46l0.28-1.23l0.66-3.68
			c0.27-1.63,0.57-3.26,0.71-4.91C560.48,249.1,560.48,247.47,560.33,245.83z M537.63,233.68l-0.6,0.09l-1.23,0.16l-2.29,0.44
			l-2.42,0.5l-2.46,0.29l-2.22-0.21c-1.47-0.18-2.38-0.95-3.48-1.4l-1.67-1.23l0.8-1.91l0.42-0.47l1.62-1.68l0.84-0.67l1.23-0.51
			l2.46-0.6l2.45-0.07l2.43,0.47l2.3,1.06c1.04,0.7,1.84,1.45,2.6,2.33l0.84,1.46l0.42,1.82L537.63,233.68z"/>
		<path class="st0" d="M414.78,280.32l-1.12-2.15l-0.75-0.95l-0.9-0.7l-1.8-1.23l-1.02-0.6l-2.2-0.47c-1.19-0.1-2.38-0.15-3.58-0.14
			c-1.23,0.01-2.46,0.06-3.68,0.19c-1.66,0.18-3.3,0.49-4.91,1.01c-1.68,0.36-3.31,0.96-4.91,1.64c-1.25,0.54-2.46,1.15-3.68,1.75
			c-1.24,0.61-2.48,1.25-3.68,1.93l-2.46,1.48l-3.68,2.51c-1.66,1.16-3.3,2.35-4.91,3.58l-2.46,2c-2.85,2.45-5.55,5.1-8.28,7.71
			l-4,3.68l-1.9,1.94l-1.92,1.98l-6.1,6.63c-2.37,2.49-4.82,4.92-7.26,7.35c-2.78,2.77-5.56,5.53-8.59,8.02
			c-1.23,0.98-2.46,1.91-3.68,3.03l-1.23,0.68l-2.46,1.77l-1.23,0.53l-1.23,0.7l-2.46,0.71l-2.46,0.52h-1.23h-1.23l-1.23-0.35
			l-1.23-0.29l-2.46-0.99l-1.23-0.71l-0.95-0.83l-1.87-1.98l-1.41-2.22l-0.67-1.23l-0.72-2.46l-0.51-2.46l-0.05-1.23l0.02-2.46
			l0.28-2.46l0.27-1.23l0.39-1.23l1.23-2.46c0.82-1.23,1.86-2.46,2.77-3.68c1.23-1.23,2.45-2.41,3.64-3.57
			c1.27-1.34,2.93-2.57,4.43-4.11l4.2-3.76c2.07-1.75,4-3.55,5.91-5.35c1.31-1.23,2.64-2.44,3.86-3.76
			c0.87-0.95,1.69-1.94,2.42-2.99c0.77-1,1.31-2.23,2.08-3.46c1.2-2.42,2.19-4.91,3.29-7.37l1.66-3.68l0.92-2.46
			c0.4-1.21,0.69-2.45,1-3.68l0.96-3.68l0.94-3.68l0.76-3.68c0.31-1.62,0.55-3.26,0.6-4.91c0.07-2.9-0.48-5.77-1.09-8.59
			c-0.35-1.65-0.75-3.29-1.23-4.91l-1.21-3.68l-0.93-2.46c-0.57-1.23-1.52-2.46-2.11-3.66c-1.91-2.83-4.32-5.42-6.89-7.38
			c-1.83-1.67-3.8-3-6.03-3.68l-2.46-0.8l-1.23-0.19l-2.46-0.14l-1.23,0.04l-2.46,0.29l-2.46,0.8l-1.23,0.39l-2.23,1.47l-2.03,1.99
			l-0.91,1.13l-0.97,1.18l-1.34,2.43c-1.93,3.46-3.16,7.36-4.27,11.05l-1.38,4.91c-0.44,1.61-0.89,3.23-0.98,4.91l0.07,2.46
			l0.19,1.23l0.26,1.23c0.43,1.66,0.89,3.33,1.7,4.91c0.64,1.23,1.44,2.24,2.43,3.2l2.11,1.71l1.23,0.67l2.46,0.99l2.46,0.54
			l2.45,0.26c1.57,0,3.14,0,4.71,0c2.92-0.38,5.96-1.02,8.8,0l2.33,1.23l1.04,0.64l0.87,0.93l0.62,1.05l0.31,2.31l-0.34,1.21
			l-1.51,2.45l-2.16,2.46l-2.4,2.1l-2.45,2.08l-6.14,5.13l-3.68,3.17l-4.91,4.7c-1.23,1-2.46,2.08-3.68,3.11
			c-1.6,1.31-3.26,2.55-4.91,3.79l-4.91,3.62c-2.03,1.43-4.08,2.98-6.14,4.21c-2.46,1.63-4.91,3.29-7.37,4.91
			c-1.23,0.67-2.46,1.4-3.68,2.07l-6.14,3.22l-2.46,1.4l-6.14,3.8l-4.91,3.01l-3.68,2.07l-4.7,3.06c-1.44,1.01-2.79,1.88-4.24,2.72
			c-1.49,0.86-3.03,1.59-4.58,2.33l-4.89,2.4l-15.96,7.99l-2.46,1.23l-2.46,1.23l-1.23,0.62l-2.06,1.31l-1.62,1.41l-0.81,1.32
			l-0.42,1.77l2.05-0.23l1.63-0.34c1.78-0.35,3.36-0.66,4.91-1.18c2.06-0.6,4.1-1.26,6.14-1.93c3.68-1.22,7.34-2.46,11.05-3.65
			c2.03-0.63,4.09-1.2,6.14-1.78c1.63-0.46,3.26-0.95,4.91-1.32c2.44-0.56,4.91-0.86,7.37-1.44c2.46-0.4,4.91-1.43,7.37-2.39
			c4.25-1.69,8.26-3.95,12.28-6.14l6.14-3.43l4.91-2.92l4.91-2.98l6.08-3.96l2.91-1.83l2.05-1.29l-0.22,2.05l-0.11,0.6
			c-0.37,2.38-0.89,4.75-0.89,7.17c0,1.64,0.26,3.31,0.64,4.91c0.49,2.08,1.14,4.11,1.79,6.14c0.78,2.46,1.47,4.93,3.17,6.89
			c1.17,1.35,2.68,2.31,4.22,3.15l2.46,1.14l2.46,0.86l1.23,0.29l2.46,0.25l2.46-0.07l2.46-0.15c1.63-0.09,3.29-0.09,4.91-0.35
			c1.71-0.26,3.36-0.75,4.91-1.53c3.3-1.65,5.97-4.28,8.59-6.8l2.46-2.46l4.91-4.91c2.02-2.03,4.04-4.05,6.03-6.12l4.31-4.58
			c1.44-1.46,2.95-2.81,4.39-4.24l3.68-3.47c2.03-2,4.02-4.03,6.14-5.92c2.34-2.09,4.82-3.9,7.37-5.83c1.99-1.42,4.01-2.8,6.14-4
			c1.97-1.11,4.03-2.06,6.14-2.88c1.21-0.48,2.44-0.9,3.68-1.28l2.46-0.6l2.46-0.36l1.23-0.23l1.23-0.1l2.46,0.12
			c2.08,0.33,3.97,1.44,5.94,2l1.83,0.67h2.05v-2.05l0.46-1.63l1.24-4.91l0.23-1.23l0.11-2.44L414.78,280.32z M324.02,239.44
			l-2.91-0.21l-3.63-0.09c-1.24-0.06-2.46-0.15-3.68-0.36c-1.6-0.26-3.17-0.69-4.91-1.17l-1.23-0.37l-0.4-0.28l-2.05-0.95l0.88-2.37
			l0.57-0.97l1.53-1.37l1.92-0.88l1.23-0.24l2.46-0.12l2.44,0.3l1.2,0.31l2.29,0.94l2.08,1.31l1.78,1.58l1.27,1.72l0.83,1.55
			l0.4,1.93L324.02,239.44z"/>
		<path class="st0" d="M161.57,270.38h4.91l1.23-1.7l0.63-0.38l0.99-0.85l2.06-1.31l2.46-1.21c2.43-1.19,4.91-2.21,7.37-3.35
			l1.23-0.57l2.43-1.23l1.18-0.7l1.12-0.78l1.02-0.87l1.58-1.77l0.87-2.31l0.21-1.2l0.1-0.59l0.08-2.05l-2.05,0.52l-1.83,0.7
			l-4.72,2.08l-3.68,1.6l-6.14,2.5c-1.67,0.73-3.35,1.54-4.91,2.57l-2.18,1.72l-0.97,0.98l-1.54,2.14l-0.91,2.37l-0.26,1.23
			l-0.28,0.4V270.38 M408.32,234.78l-1.24,2.05l-0.31,0.6l-1.27,2.32c-0.85,1.58-1.7,3.17-2.33,4.86c-0.74,1.98-1.14,4.06-1.48,6.14
			l-0.36,2.46l-0.11,1.23l-0.02,1.23l0.31,2.46l0.9,2.17l0.69,0.96l0.84,0.81l0.96,0.61l2.13,0.52l2.1-0.52l1.64-1.43l1.61-1.9
			l0.84-2.44l0.81-2.27l0.29-1.83l0.13-2.05c-1.23,0.77-2.06,1.58-3.16,2.46l-0.9,0.27l-2.07,0.21l-1.68-1.05l-1.05-1.88l-0.2-2.46
			l0.15-1.23l0.6-2.46l0.41-1.23l1.01-2.43c0.57-1.19,1.2-2.35,1.82-3.52l0.16-0.6l1.23-2.05H408.32 M458.65,256.88l2.05-0.93
			l0.4-0.3l1.23-0.73l1.23-0.5l2.46-1.44c1.18-0.58,2.42-1.02,3.68-1.36c2.81-0.77,5.7-0.84,8.59-0.88l8.6,0l-6.17,6.17
			c-1.61,1.61-3.22,3.22-4.88,4.88c-2.46,2.1-4.91,4.17-7.37,6.23l-3.68,2.98l-3.68,2.75l-0.84,0.92l-1.62,1.88l-0.81,1.65l-0.42,2
			l2.05-0.81l0.4-0.3l1.23-0.56l2.46-1.19c2.46-1.4,4.91-2.91,7.37-4.51c2.99-2.15,5.8-4.51,8.59-6.86
			c1.23-1.04,2.46-2.08,3.68-3.17c1.68-1.51,3.28-3.1,4.86-4.7c1.52-1.56,2.99-3.18,4.31-4.91l1.72-2.46l0.74-1.23l0.65-1.23
			l1.06-2.46l0.41-1.23l0.55-2.45l0.13-2.39l-0.14-1.12l-0.83-1.9l-1.58-1.23l-1.02-0.36l-1.12-0.24l-1.18-0.13h-1.21l-2.45-0.52
			l-2.46-0.31l-2.46-0.08l-1.23,0.08c-1.64,0.19-3.28,0.44-4.91,0.83c-1.23,0.13-2.48,0.32-3.68,0.68c-1.27,0.54-2.5,0.88-3.68,1.77
			c-1.59,0.86-2.95,2.22-4.13,3.75c-0.88,1.16-1.6,2.39-2.33,3.62c-0.96,1.6-1.86,3.24-2.71,4.91l-0.65,1.23l-0.71,2.46l-0.24,1.23
			L458.65,256.88"/>
		<path class="st0" d="M140.58,260.56l-0.11-1.23l-0.43-2.45l-0.75-2.43l-0.5-1.18l-1.22-2.13l-1.26-1.52l-1.76-1.33l0.72-2.05
			l0.07-0.4l0.24-1.23l0.14-2.46l-0.01-1.23l-0.16-2.46l-0.43-2.45l-0.76-2.41l-1.15-2.23l-1.58-1.82l-2-1.25l-0.46-0.31l-1.99-0.58
			l-1.23,2.05l-0.17,0.6l-0.56,1.23l-0.78,2.29c-0.58,1.93-0.95,3.93-1.26,6.11l-0.39,1.63l-0.54,2.05l1.75-0.8l0.38-0.39l0.84-0.73
			l1.09-1.75l0.28-0.49l0.57-1.98l2.03,2.65l0.79,1.23l0.86,2.29l0.68,2.43l0.06,1.23l-0.1,1.23l-0.63,2.46l-1.01,2.46l-0.6,1.23
			l-1.26,2.46c-0.82,1.58-1.57,3.19-2.04,4.91l-0.36,2.46l0.04,1.23l0.22,1.23l1.06,2.18l1.78,1.82l0.94,0.69l1.23,0.52l1.23,0.33
			l2.4,0.08l2.23-0.7l0.97-0.75l0.85-0.87l1.23-2.06l0.38-1.23l0.25-1.23l0.21-2.46L140.58,260.56z M128.43,264.25l0.5-2.02
			l0.21-0.44l0.35-1.23l1.39-3.68h2.46l1.14,2.02l0.96,1.66l0.36,1.23l0.5,0.44l0.73,2.02H128.43z"/>
		<path class="st0" d="M276.76,265.47c-0.21-2.06-0.61-4.11-1.02-6.14c-0.51-2.46-1.22-4.91-1.9-7.37c-0.6-1.69-1.34-3.3-2.12-4.91
			l-0.63-1.23l-1.5-2.44c-0.86-1.93-1.94-3.7-3.38-5.58l-1.85-1.8l-2.2-1.77l-1.18-0.69l-2.43-1.23l-2.45-0.93l-2.46-0.57
			l-2.46-0.18l-1.23,0.09l-1.23,0.36l-1.23,0.23l-1.23,0.49l-2.2,1.37c-1.78,1.34-3.12,3.15-4.39,4.95
			c-0.77,1.02-1.39,2.06-2.02,3.14l-1.21,2.21c-0.34,1.16-0.7,2.38-1.23,3.58l-0.63,2.45l-1.3,3.68c-0.53,1.23-0.83,2.46-1.06,3.68
			l-0.26,2.46l0.03,1.23l0.11,1.23l0.36,2.46l0.29,2.46l0.48,1.23l0.41,1.23l1.24,2.46l1.82,2.11l0.95,0.94l2.46,1.46l2.46,0.87
			l2.46,0.31l2.46-0.18l2.46-0.51c2.07-0.51,4.07-1.28,6.14-1.8c1.58-0.4,3.28-0.61,4.89-0.3l2.36,0.79l1.11,0.63l1.03,0.78
			l1.66,1.81l1.06,1.94v1.92l-0.39,0.92l-1.4,1.83l-1.96,1.45c-1.9,1.31-3.89,2.51-5.91,3.62c-2.74,1.51-5.58,2.9-8.59,3.78
			c-2.46,0.67-4.64,1.02-7.02,1.12c-2.19,0.09-4.41-0.07-6.54-0.6l-1.2-0.32l-2.44-0.89l-1.23-0.55l-2.46-1.23
			c-1.23-0.68-2.46-1.38-3.68-2.26c-1.37-1.18-2.65-2.57-3.68-4.13c-1.86-3-2.5-6.46-3.19-9.82c-0.67-3.25-1.38-6.51-1.72-9.82
			c0-1.63,0-3.27,0-4.91c-0.02-1.64-0.05-3.28-0.21-4.91c-0.2-2.06-0.59-4.1-1.02-6.14l-0.72-4.91c-0.28-1.64-0.56-3.28-0.92-4.91
			c-0.27-1.23-0.82-2.46-0.98-3.68l-0.33-1.23l-0.49-2.46l-0.48-3.68l-0.49-2.46c-0.49-1.23-0.73-2.46-1.11-3.68l-1.48-4.91
			c-0.47-1.63-0.91-3.26-1.31-4.91c-0.4-1.64-0.75-3.29-1.23-4.91c-0.74-2.46-1.75-4.88-2.48-7.37c-0.36-1.21-0.68-2.44-0.93-3.68
			c-0.56-2.45-0.81-4.91-1.37-7.36c-0.41-1.22-0.6-2.42-0.97-3.61l-0.85-2.13l-0.63-0.99l-0.41-0.53l-1.23-1.33l-0.96,2.05
			l-0.27,0.6l-0.44,1.23l-1.64,4.72l-0.86,2.45l-0.41,1.23l-0.34,1.23l-0.36,2.46c-0.06,1.68,0.34,3.3,0.74,4.91l0.85,3.68
			c0.84,2.86,1.23,5.77,2.17,8.59c1,3.33,2.49,6.48,3.43,9.82c0.46,1.62,0.77,3.27,1.11,4.91l0.59,2.46l0.7,2.46l1.45,4.91
			c0.35,1.23,0.69,2.46,0.98,3.68c0.37,1.63,0.61,3.27,0.93,4.91l0.77,3.68l1.37,6.14c0.62,2.04,1.06,4.08,1.47,6.14
			c0.24,1.23,0.47,2.46,0.63,3.68c0.35,3.14,0.34,6.32,0.63,9.47c0.17,1.8,0.45,3.58,0.68,5.37l0.61,4.8l0.61,3.68l0.28,2.25
			c0.28,1.07,0.45,2.14,0.74,3.18c0.43,1.53,1.02,3.16,1.71,4.44c0.61,1.24,1.23,2.47,2.07,3.63l1.88,2.19l0.95,1.01l1.23,0.91
			l2.46,1.52c1.21,0.62,2.43,1.19,3.68,1.74c1.98,0.8,4.03,1.57,6.14,1.99c2.03,0.47,4.08,0.47,6.14,0.47h2.46l2.46-0.23
			c1.23-0.16,2.46-0.4,3.68-0.74c1.23-0.26,2.46-0.82,3.68-1.28c1.23-0.47,2.46-1.02,3.68-1.44c2.1-1.14,4.15-2.26,6.14-3.47
			c1.67-1.02,3.33-2.08,4.86-3.32c1.18-0.96,2.27-1.81,3.26-3.03l1.71-2.46l1.23-2.46l0.79-1.23l0.99-2.46l0.67-2.46
			c0.65-2.02,0.98-4.08,1.23-6.14c0.51-2.45,0.95-4.89,1.12-7.37c0.11-1.63,0.11-3.28,0.1-4.91
			C276.95,268.74,276.92,267.1,276.76,265.47z M252.41,258.11l-2.45,0.41l-1.23,0.14l-1.23,0.04l-2.46-0.39l-0.83-0.47l-0.86-0.66
			l-1.07-1.76l-0.14-1l0.14-1l0.3-0.94l1.62-1.52l2.06-0.91l1.23-0.23l2.46-0.09l1.23,0.14l1.22,0.27l2.39,0.95l2.13,1.37l0.99,0.94
			l0.53,0.44l1.33,1.8C257.33,256.54,254.87,257.48,252.41,258.11z"/>
		<path class="st0" d="M60.91,260.56l-0.96,2.05l-0.27,0.6l-0.44,1.23l-2.02,5.94c-0.67,2.04-1.33,4.08-1.93,6.14
			c-0.53,1.23-0.66,2.46-0.95,3.68c-0.38,1.63-0.8,3.26-1.03,4.91c-0.28,1.62-0.51,3.26-0.42,4.91l0.33,2.46l0.3,1.23l0.78,2.46
			l0.47,1.23l1.23,2.46l2.46-0.39l1.23-0.35l1.23-0.49l2.2-1.62l1-0.84l0.91-1.23l1.49-2.46l1.08-2.42l0.69-2.29l1.23-3.88
			l-1.71,0.8l-0.4,0.42l-0.9,0.73l-0.73,0.82l-1.71,1.82l-1.92,1.55l-1.65,0.81l-2.03,0.42l-0.48-2.05l-0.17-0.4l-0.57-2.46
			L57,283.89c-0.05-1.66,0.2-3.29,0.51-4.91c0.23-1.23,0.52-2.46,0.82-3.68c0.41-1.65,0.89-3.28,1.36-4.91l0.8-2.45l0.68-2.39
			l0.38-2.13l-0.07-0.99l0.03-0.53L60.91,260.56"/>
		<path class="st0" d="M745.56,287.57l-0.87-4.91c-0.22-2.05-0.41-4.12-0.89-6.14c-0.39-1.67-0.93-3.31-1.57-4.91l-1.43-3.68
			l-1.14-2.46c-1.11-2.07-2.04-4.11-3.12-6.14l-0.71-1.22l-1.65-2.39l-2-2.19l-1.11-0.95l-1.16-0.83l-2.41-1.34l-2.45-0.89
			l-1.23-0.47l-2.46-0.48l-2.46-0.09l-1.23,0.11l-1.23,0.22l-2.46,0.82l-2.46,1.3l-2.46,1.7l-2.22,2.03l-2,2.28l-1.65,2.41
			c-0.72,1.22-1.49,2.45-1.88,3.68c-0.52,1.23-1,2.46-1.43,3.68c-0.42,1.23-0.78,2.46-1.14,3.68c-0.36,1.23-0.73,2.46-1.03,3.68
			c-0.29,1.23-0.55,2.46-0.65,3.68l-0.01,2.46l0.34,2.46l0.63,2.46l1.15,2.46l0.77,1.23l0.9,1.23l2.09,2l2.25,1.68l1.08,0.32
			l2.1,0.56c1.87,0.35,3.75,0.35,5.62,0.13c1.66-0.14,3.28-0.48,4.91-0.72l2.46-0.29l2.46-0.26l1.23-0.05l1.23-0.02l2.45,0.33
			l2.43,0.59l2.23,1.39l0.91,0.92l1.03,2.13l-0.45,2.34l-0.57,1.23l-0.91,0.89l-1.07,0.96l-1.16,0.85l-1.2,0.76
			c-1.61,0.93-3.25,1.82-4.9,2.68c-1.6,0.83-3.21,1.69-4.91,2.46c-2.8,0.87-5.7,1.61-8.59,2.46c-1.62,0.22-3.25,0.64-4.91,0.81
			c-1.23,0.12-2.46,0.13-3.68-0.04l-2.46-0.54l-1.23-0.24l-1.23-0.7l-1.23-0.52l-2.46-1.74l-1.23-0.99l-1.99-2.18l-1.81-2.46
			l-1.57-2.46c-0.77-1.21-1.43-2.41-2.02-3.68l-1.2-2.46l-0.35-1.23c-0.57-1.62-1.1-3.24-1.5-4.91c-0.6-2.02-0.73-4.08-0.98-6.14
			l-0.57-4.91l-0.28-2.46l-0.35-3.68c-0.28-2.05-0.63-4.08-0.88-6.14c-0.06-2.45,0-4.91-0.11-7.37c-0.14-2.06-0.49-4.09-0.79-6.14
			l-0.67-4.91c-0.24-1.64-0.53-3.26-0.69-4.91c-0.28-2.86-0.21-5.74-0.42-8.59c-0.36-3.32-1.34-6.53-1.89-9.82l-0.69-4.91
			c-0.31-1.98-0.69-3.94-0.94-5.93c-0.23-1.77-0.32-3.56-0.62-5.33c-0.33-1.99-0.84-3.96-1.27-5.93l-1.32-6.14l-1.2-4.91l-1.23-4.91
			c-0.45-1.65-0.87-3.29-1.37-4.91l-0.89-2.46l-1.15-2.45l-0.72-1.21l-0.77-1.18l-1.75-2.13l-1.16-0.99l-0.46-0.53l-2-1.33
			l-1.37,2.05l-0.28,0.6l-0.8,1.23c-0.7,1.96-1.45,3.95-2.22,5.94l-1.84,4.91l-1.43,4.09l-0.66,2.05h6.14l0.28,2.05l0.5,1.83
			l2.24,5.94c0.43,1.23,0.66,2.46,1.16,3.68c0.48,1.63,0.96,3.26,1.37,4.91l1.67,7.37c0.68,2.86,1.37,5.71,2.05,8.59l0.87,4.91
			l0.91,5.79l1.23,6.54c0.35,1.63,0.71,3.25,1.08,4.86l0.81,3.68c0.38,2.03,0.56,4.09,0.9,6.14c0.23,1.64,0.53,3.26,0.69,4.91
			c0.2,2.04,0.17,4.09,0.21,6.14l0.35,2.46c0.22,1.64,0.5,3.27,0.67,4.91c0.2,2.46,0.2,4.68,0.49,7.01
			c0.12,1.06,0.27,2.11,0.49,3.16l1.07,4.58c0.41,2.03,0.61,4.08,0.99,6.12c0.22,1.24,0.55,2.46,0.85,3.68l0.94,3.68
			c0.49,2.06,0.92,4.12,1.51,6.14c0.47,1.25,0.92,2.48,1.45,3.68c0.75,1.69,1.67,3.31,2.6,4.91c0.71,1.23,1.44,2.46,2.09,3.68
			l1.8,2.22l1.88,2l1.23,0.86l2.46,1.43l2.46,1.02l1.23,0.36l2.46,0.45c1.62,0.23,3.28,0.23,4.91,0.23c2.05,0,4.1,0.01,6.14-0.21
			c2.08-0.22,4.11-0.69,6.14-1.01c1.66-0.62,3.31-1.17,4.91-1.8c3-1.18,5.82-2.73,8.59-4.34l3.64-2.22l1.16-0.75l2.15-1.56
			l0.95-0.81l1.6-1.72c0.72-0.92,1.28-1.94,1.82-2.97c0.6-1,0.96-2.23,1.69-3.46c0.74-1.61,1.49-3.22,1.99-4.91
			c0.6-2.02,0.96-4.07,1.43-6.14c0.22-1.22,0.43-2.45,0.55-3.68c0.12-1.22,0.17-2.45,0.14-3.68
			C745.83,290.02,745.72,288.8,745.56,287.57z M724.32,272.84l-0.54,0.73l-1.58,1.22l-2.14,0.84l-1.18,0.29l-2.43,0.36l-1.23,0.24
			l-2.46-0.41l-1.23-0.34l-1.23-0.48l-0.81-0.74l-1.43-1.71l-0.31-1.23v-1.07l0.31-1.01l0.6-0.9l1.64-1.37l2.46-0.77l1.23-0.18
			l1.23-0.03l1.23,0.12l2.43,0.68c1.23,0.46,2.38,1.15,3.52,1.79l0.6,0.37l2.05,1.16L724.32,272.84z"/>
		<path class="st0" d="M134.56,341.58l-1.33-1.65l-0.53-0.45l-0.99-0.93l-2.13-1.56l-1.18-0.68l-2.43-0.81l-1.23-0.02l-1.23,0.27
			l-1.23,0.55l-2.46,1.69l-1.23,1.14c-1.23,0.87-2.24,1.86-3.27,2.97l-1.43,2.1l-0.33,1.07l-0.03,1.23l0.75,1.82l0.62,0.93
			l1.82,1.72l2.07,1.67l1.01,0.65l2.46,1.27l2.46,0.83l2.46,0.14l1.23-0.25l2.45-1.12l1.21-0.83l1.18-0.97l2.14-2.18l1.58-2.26
			l0.84-1.82l0.42-2.05l1.83,1.4l3.46,2.9l3.3,2.81l2.46,1.84c1.82,1.25,3.68,2.6,6.14,2.57c1.81-0.02,3.43-0.9,4.89-1.7
			c1.23-1.01,2.33-1.99,3.42-3l0.96-1.04l0.8-1.08l0.58-1.02l0.36-2.42c-0.18-1.75-1.38-3.23-2.61-4.4
			c-1.11-1.06-2.29-2.03-3.49-2.99c-1.22-0.97-2.45-1.92-3.68-2.81l-2.46-1.5l-2.46-0.6h-1.23l-1.23,0.21l-2.46,1.42l-1.23,0.97
			c-1.23,1.08-2.46,2.08-3.68,2.96l-2.46,1.36l-2.46,0.83l-0.4,0.15L134.56,341.58 M400.96,301.07l-1.91,2.05l-0.54,0.6l-1.71,2.32
			l-1.47,2.41l-0.62,1.22c-0.75,1.61-1.43,3.24-2.06,4.91c-0.6,1.62-1.13,3.25-1.6,4.91l-0.56,2.46c-0.25,1.23-0.57,2.46-0.57,3.68
			c0,1.63-0.01,3.28,0,4.91c0.21,1.23,0.34,2.46,0.7,3.68l0.91,1.97l0.66,0.91l1.74,1.46l2.11,0.92l1.23,0.21l2.34-0.2l2.17-1.12
			l1.89-1.7l1.61-2.46l1.35-2.45l0.46-1.2l1.1-2.29l0.46-1.23l0.9-2.65l-1.83,0.8l-1.53,1.09l-0.9,0.72
			c-0.97,0.68-1.96,1.5-3.16,1.76l-1.17,0.12l-1.82-0.67l-0.76-0.73l-0.56-0.91l-0.54-0.94l-0.09-1.17l-0.15-2.16
			c-0.02-1.06,0.09-2.1,0.21-3.15l0.03-1.09l0.42-1.02l0.75-2.46l1.02-2.46c0.73-1.62,1.49-3.22,2.15-4.88l0.83-2.29l0.35-1.23
			l0.19-0.6l0.44-2.05H400.96"/>
	</g>
	<g>
		<path class="st1" d="M86.01,388.91v21.66c0,2.03-0.41,3.88-1.24,5.53c-0.83,1.65-1.91,3.07-3.24,4.25
			c-1.33,1.19-2.86,2.1-4.57,2.75c-1.71,0.64-3.46,0.97-5.24,0.97c-1.8,0-3.56-0.32-5.27-0.97c-1.71-0.65-3.24-1.56-4.59-2.75
			c-1.34-1.19-2.42-2.6-3.24-4.25c-0.82-1.65-1.22-3.49-1.22-5.53v-11.72h7.46v11.59c0,1.06,0.19,1.98,0.59,2.76
			c0.39,0.78,0.9,1.43,1.54,1.95c0.64,0.52,1.37,0.92,2.19,1.19c0.83,0.28,1.67,0.42,2.54,0.42c0.84,0,1.68-0.13,2.51-0.38
			c0.83-0.26,1.56-0.65,2.21-1.17c0.65-0.53,1.17-1.19,1.56-1.99c0.39-0.79,0.59-1.72,0.59-2.78v-21.53H86.01z M69.05,381.41
			l5.37,5.34l-5.37,5.3l-5.3-5.3L69.05,381.41z"/>
		<path class="st1" d="M92.05,416.38c1.23,0.48,2.53,0.81,3.92,0.97c1.39,0.16,2.7,0.08,3.94-0.23c1.24-0.31,2.32-0.87,3.24-1.7
			c0.92-0.83,1.52-1.97,1.79-3.43c-1.18,0.44-2.37,0.68-3.56,0.7c-1.18,0.02-2.32-0.14-3.41-0.48s-2.11-0.83-3.05-1.48
			c-0.94-0.64-1.76-1.42-2.46-2.3c-0.7-0.89-1.24-1.9-1.63-3.02c-0.39-1.12-0.59-2.31-0.59-3.56v-6.48c0-1.59,0.3-3.08,0.9-4.48
			c0.6-1.4,1.43-2.62,2.48-3.67c1.05-1.05,2.28-1.88,3.68-2.48c1.41-0.6,2.9-0.9,4.49-0.9s3.08,0.3,4.48,0.9
			c1.4,0.6,2.62,1.43,3.67,2.48c1.05,1.05,1.88,2.27,2.49,3.67c0.61,1.4,0.92,2.89,0.92,4.48v5.84c0,2.29-0.11,4.52-0.33,6.69
			c-0.22,2.17-0.62,4.19-1.19,6.07s-1.36,3.56-2.37,5.05c-1.01,1.49-2.3,2.69-3.87,3.6c-1.58,0.91-3.48,1.49-5.7,1.73
			c-2.22,0.24-4.84,0.06-7.84-0.56V416.38z M97.7,395.54v5.49c0,0.68,0.12,1.28,0.35,1.8c0.23,0.52,0.54,0.96,0.92,1.32
			c0.38,0.36,0.81,0.64,1.3,0.84c0.49,0.2,0.99,0.31,1.52,0.33c0.51,0.02,1.01-0.05,1.51-0.21c0.5-0.16,0.94-0.41,1.33-0.76
			c0.39-0.35,0.7-0.8,0.94-1.35c0.23-0.55,0.35-1.21,0.35-1.97v-5.49c0-0.76-0.12-1.42-0.35-1.97c-0.23-0.55-0.54-1.01-0.94-1.37
			c-0.39-0.36-0.84-0.62-1.33-0.78c-0.5-0.16-1-0.23-1.51-0.21c-0.53,0.02-1.04,0.13-1.52,0.33c-0.49,0.2-0.92,0.49-1.3,0.86
			s-0.69,0.81-0.92,1.33C97.82,394.27,97.7,394.86,97.7,395.54z"/>
		<path class="st1" d="M133.08,388.78c1.57,1.34,2.83,2.96,3.78,4.88c0.95,1.92,1.61,3.97,1.97,6.15c0.36,2.18,0.44,4.41,0.25,6.7
			c-0.19,2.29-0.65,4.48-1.38,6.58c-0.73,2.09-1.71,4.01-2.94,5.73c-1.23,1.72-2.69,3.11-4.38,4.16c-1.7,1.05-3.61,1.69-5.75,1.91
			c-2.14,0.22-4.48-0.13-7.02-1.06v-7.43c1.86,0.74,3.53,1.08,5,1.01c1.47-0.06,2.76-0.41,3.86-1.03c1.1-0.62,2.03-1.49,2.78-2.6
			c0.75-1.11,1.33-2.36,1.73-3.73c0.4-1.37,0.64-2.83,0.72-4.36c0.07-1.54-0.01-3.05-0.25-4.54c-0.24-1.49-0.64-2.91-1.19-4.26
			c-0.55-1.34-1.25-2.51-2.1-3.51L133.08,388.78z"/>
		<path class="st1" d="M144.83,374.87h7.43v26.17c0,0.68,0.12,1.28,0.35,1.8c0.23,0.52,0.55,0.95,0.94,1.3
			c0.39,0.35,0.84,0.62,1.34,0.81c0.5,0.19,1,0.29,1.51,0.29v7.43c-1.59,0-3.09-0.31-4.5-0.91c-1.41-0.6-2.64-1.42-3.68-2.46
			c-1.05-1.04-1.87-2.26-2.48-3.67c-0.6-1.41-0.91-2.9-0.91-4.49V374.87z"/>
		<path class="st1" d="M199.08,388.91v12.13c0,0.68,0.12,1.28,0.35,1.8c0.23,0.52,0.54,0.95,0.92,1.3c0.38,0.35,0.82,0.62,1.32,0.81
			c0.5,0.19,1.01,0.29,1.54,0.29v7.43c-1.52,0-2.95-0.27-4.29-0.81c-1.33-0.54-2.52-1.29-3.56-2.24c-1.04,0.95-2.21,1.69-3.51,2.21
			c-1.3,0.52-2.69,0.8-4.18,0.84c-1.53,0-2.95-0.27-4.29-0.81c-1.34-0.54-2.52-1.29-3.56-2.24c-1.14,1.02-2.36,1.76-3.64,2.22
			c-1.28,0.47-2.67,0.74-4.18,0.83c-1.44,0-2.84-0.27-4.19-0.8c-1.35-0.53-2.57-1.28-3.65-2.25c-1.04,0.95-2.22,1.7-3.56,2.24
			c-1.33,0.54-2.76,0.81-4.29,0.81v-7.43c0.51,0,1.01-0.1,1.51-0.29c0.5-0.19,0.94-0.46,1.34-0.81c0.39-0.35,0.71-0.78,0.95-1.3
			c0.24-0.52,0.37-1.12,0.37-1.8v-12.13h7.43v12.13c0,0.66,0.12,1.24,0.35,1.76c0.23,0.52,0.54,0.96,0.92,1.32
			c0.38,0.36,0.82,0.63,1.3,0.82c0.49,0.19,0.98,0.29,1.49,0.29c0.51,0,1.01-0.1,1.51-0.29c0.5-0.19,0.94-0.47,1.32-0.82
			s0.69-0.8,0.92-1.32c0.23-0.52,0.35-1.11,0.35-1.76v-12.13h7.43v12.13c0,0.66,0.12,1.24,0.35,1.76c0.23,0.52,0.54,0.95,0.92,1.3
			c0.38,0.35,0.82,0.62,1.3,0.81c0.49,0.19,0.98,0.3,1.49,0.32c0.51-0.02,1.01-0.13,1.49-0.32c0.49-0.19,0.92-0.46,1.3-0.81
			c0.38-0.35,0.69-0.79,0.92-1.3c0.23-0.52,0.35-1.11,0.35-1.76v-12.13H199.08z M175.26,374.14l4.45,4.45l4.42-4.45l5.33,5.31
			l-5.33,5.33l-4.42-4.41l-4.45,4.41l-5.34-5.33L175.26,374.14z M179.77,364.51l5.37,5.34l-5.37,5.31l-5.3-5.31L179.77,364.51z"/>
		<path class="st1" d="M206.48,374.14l4.45,4.45l4.45-4.45l5.34,5.31l-5.34,5.33l-4.45-4.41l-4.45,4.41l-5.34-5.33L206.48,374.14z
			 M214.74,401.04c0,0.68,0.12,1.28,0.35,1.8c0.23,0.52,0.54,0.95,0.92,1.3s0.82,0.62,1.32,0.81c0.5,0.19,1,0.29,1.51,0.29v7.43
			c-1.52,0-2.95-0.27-4.29-0.81c-1.33-0.54-2.52-1.29-3.56-2.24c-1.04,0.95-2.22,1.7-3.56,2.24c-1.33,0.54-2.76,0.81-4.29,0.81
			v-7.43c0.51,0,1.01-0.1,1.51-0.29c0.5-0.19,0.94-0.46,1.34-0.81c0.39-0.35,0.71-0.78,0.95-1.3c0.24-0.52,0.37-1.12,0.37-1.8
			v-12.13h7.43V401.04z"/>
		<path class="st1" d="M261.52,388.91v12.13c0,0.68,0.12,1.28,0.35,1.8c0.23,0.52,0.54,0.95,0.92,1.3s0.82,0.62,1.32,0.81
			c0.5,0.19,1.01,0.29,1.54,0.29v7.43c-1.52,0-2.95-0.27-4.29-0.81c-1.33-0.54-2.52-1.29-3.56-2.24c-1.04,0.95-2.21,1.69-3.51,2.21
			c-1.3,0.52-2.69,0.8-4.18,0.84c-1.53,0-2.95-0.27-4.29-0.81c-1.34-0.54-2.52-1.29-3.56-2.24c-1.14,1.02-2.36,1.76-3.64,2.22
			c-1.28,0.47-2.67,0.74-4.18,0.83c-1.44,0-2.84-0.27-4.19-0.8c-1.35-0.53-2.57-1.28-3.65-2.25c-1.04,0.95-2.22,1.7-3.56,2.24
			c-1.33,0.54-2.76,0.81-4.29,0.81v-7.43c0.51,0,1.01-0.1,1.51-0.29c0.5-0.19,0.94-0.46,1.34-0.81c0.39-0.35,0.71-0.78,0.95-1.3
			c0.24-0.52,0.37-1.12,0.37-1.8v-12.13h7.43v12.13c0,0.66,0.12,1.24,0.35,1.76c0.23,0.52,0.54,0.96,0.92,1.32
			c0.38,0.36,0.82,0.63,1.3,0.82c0.49,0.19,0.98,0.29,1.49,0.29c0.51,0,1.01-0.1,1.51-0.29c0.5-0.19,0.94-0.47,1.32-0.82
			c0.38-0.36,0.69-0.8,0.92-1.32c0.23-0.52,0.35-1.11,0.35-1.76v-12.13h7.43v12.13c0,0.66,0.12,1.24,0.35,1.76
			c0.23,0.52,0.54,0.95,0.92,1.3c0.38,0.35,0.82,0.62,1.3,0.81c0.49,0.19,0.98,0.3,1.49,0.32c0.51-0.02,1.01-0.13,1.49-0.32
			c0.49-0.19,0.92-0.46,1.3-0.81c0.38-0.35,0.69-0.79,0.92-1.3c0.23-0.52,0.35-1.11,0.35-1.76v-12.13H261.52z"/>
		<path class="st1" d="M265.58,405.23c0.7,0.02,1.34-0.03,1.94-0.18c0.59-0.14,1.11-0.37,1.54-0.71c0.43-0.34,0.77-0.78,1.02-1.32
			c0.24-0.54,0.36-1.2,0.36-1.99v-5.65c0-1.59,0.3-3.08,0.91-4.48c0.6-1.4,1.43-2.62,2.48-3.67c1.05-1.05,2.28-1.88,3.68-2.48
			s2.91-0.9,4.49-0.9c1.59,0,3.08,0.3,4.48,0.9c1.4,0.6,2.62,1.43,3.67,2.48c1.05,1.05,1.88,2.27,2.49,3.67
			c0.61,1.4,0.92,2.89,0.92,4.48v5.75c0,1.59-0.31,3.09-0.92,4.49c-0.61,1.41-1.45,2.64-2.49,3.68c-1.05,1.05-2.27,1.88-3.67,2.49
			c-1.4,0.61-2.89,0.92-4.48,0.92c-1.52,0-2.96-0.27-4.3-0.82c-1.34-0.55-2.54-1.31-3.57-2.29c-1.25,1.19-2.57,1.99-3.95,2.4
			c-1.39,0.41-2.92,0.63-4.59,0.65V405.23z M277.88,395.54v5.49c0,0.68,0.11,1.28,0.35,1.8c0.23,0.52,0.54,0.96,0.94,1.32
			c0.39,0.36,0.84,0.64,1.33,0.84s1,0.31,1.51,0.33c0.51,0.02,1.01-0.05,1.51-0.21c0.5-0.16,0.94-0.41,1.34-0.76
			c0.39-0.35,0.7-0.8,0.94-1.35c0.23-0.55,0.35-1.21,0.35-1.97v-5.49c0-0.76-0.12-1.42-0.35-1.97c-0.23-0.55-0.55-1.01-0.94-1.37
			c-0.39-0.36-0.84-0.62-1.34-0.78c-0.5-0.16-1-0.23-1.51-0.21c-0.51,0.02-1.01,0.13-1.51,0.33s-0.94,0.49-1.33,0.86
			c-0.39,0.37-0.7,0.81-0.94,1.33C277.99,394.27,277.88,394.86,277.88,395.54z"/>
		<path class="st1" d="M340.25,388.91v21.66c0,2.03-0.41,3.88-1.24,5.53c-0.83,1.65-1.91,3.07-3.24,4.25
			c-1.34,1.19-2.86,2.1-4.57,2.75c-1.72,0.64-3.46,0.97-5.24,0.97c-1.8,0-3.56-0.32-5.27-0.97c-1.72-0.65-3.25-1.56-4.59-2.75
			c-1.35-1.19-2.43-2.6-3.24-4.25c-0.81-1.65-1.22-3.49-1.22-5.53v-11.72h7.46v11.59c0,1.06,0.2,1.98,0.59,2.76
			c0.39,0.78,0.91,1.43,1.54,1.95c0.64,0.52,1.37,0.92,2.19,1.19c0.82,0.28,1.67,0.42,2.54,0.42c0.85,0,1.68-0.13,2.51-0.38
			c0.82-0.26,1.56-0.65,2.2-1.17c0.64-0.53,1.16-1.19,1.56-1.99c0.39-0.79,0.59-1.72,0.59-2.78v-21.53H340.25z M323.29,381.41
			l5.37,5.34l-5.37,5.3l-5.3-5.3L323.29,381.41z"/>
		<path class="st1" d="M372.01,412.66h-5.52c-0.6,2.52-1.56,4.62-2.91,6.29c-1.35,1.67-2.93,2.96-4.75,3.86
			c-1.82,0.9-3.81,1.43-5.97,1.59c-2.16,0.16-4.35-0.04-6.58-0.59v-7.43c1.17,0.48,2.41,0.81,3.75,0.98
			c1.34,0.17,2.61,0.13,3.81-0.13c1.21-0.25,2.28-0.74,3.21-1.48c0.93-0.73,1.59-1.76,1.97-3.09c-0.82,0.14-1.75,0.21-2.78,0.19
			c-1.03-0.02-2.08-0.15-3.16-0.4c-1.08-0.24-2.13-0.61-3.16-1.11c-1.03-0.5-1.95-1.17-2.77-2.02c-0.81-0.85-1.46-1.88-1.95-3.11
			c-0.48-1.22-0.73-2.68-0.73-4.35v-6.48c0-1.59,0.3-3.08,0.9-4.48c0.6-1.4,1.43-2.62,2.48-3.67c1.05-1.05,2.27-1.88,3.68-2.48
			c1.41-0.6,2.91-0.9,4.49-0.9c1.59,0,3.08,0.3,4.48,0.9c1.4,0.6,2.62,1.43,3.67,2.48c1.05,1.05,1.88,2.27,2.49,3.67
			c0.61,1.4,0.92,2.89,0.92,4.48c0,1.8,0,3.26,0,4.38c0,1.12,0,2.03-0.02,2.73s-0.02,1.24-0.03,1.64c-0.01,0.39-0.03,0.76-0.05,1.09
			h4.51V412.66z M351.94,395.54v5.49c0,0.68,0.12,1.28,0.35,1.8c0.23,0.52,0.54,0.96,0.92,1.32c0.38,0.36,0.82,0.64,1.3,0.84
			c0.48,0.2,1,0.31,1.52,0.33h4.13v-9.78c0-0.76-0.12-1.42-0.35-1.97c-0.23-0.55-0.55-1.01-0.93-1.37
			c-0.39-0.36-0.84-0.62-1.34-0.78c-0.5-0.16-1-0.23-1.51-0.21c-0.53,0.02-1.04,0.13-1.52,0.33c-0.49,0.2-0.92,0.49-1.3,0.86
			c-0.38,0.37-0.69,0.81-0.92,1.33C352.06,394.27,351.94,394.86,351.94,395.54z"/>
		<path class="st1" d="M375.26,416.63l4.44,4.45l4.45-4.45l5.34,5.31l-5.34,5.33l-4.45-4.41l-4.44,4.41l-5.34-5.33L375.26,416.63z
			 M383.55,401.04c0,0.68,0.11,1.28,0.35,1.8c0.23,0.52,0.54,0.95,0.92,1.3s0.82,0.62,1.32,0.81c0.5,0.19,1,0.29,1.51,0.29v7.43
			c-1.53,0-2.96-0.27-4.29-0.81c-1.34-0.54-2.52-1.29-3.56-2.24c-1.04,0.95-2.22,1.7-3.56,2.24c-1.34,0.54-2.77,0.81-4.29,0.81
			v-7.43c0.51,0,1.01-0.1,1.51-0.29c0.5-0.19,0.94-0.46,1.34-0.81c0.39-0.35,0.71-0.78,0.95-1.3c0.24-0.52,0.36-1.12,0.36-1.8
			v-12.13h7.43V401.04z"/>
		<path class="st1" d="M399.17,388.91v12.23c0,1.59-0.31,3.09-0.92,4.49c-0.61,1.41-1.45,2.63-2.49,3.67
			c-1.05,1.04-2.28,1.86-3.68,2.46c-1.41,0.6-2.91,0.91-4.49,0.91v-7.43c0.51,0,1.01-0.1,1.51-0.29c0.5-0.19,0.94-0.46,1.34-0.81
			c0.39-0.35,0.71-0.78,0.95-1.3c0.24-0.52,0.36-1.12,0.36-1.8v-12.13H399.17z M395.55,374.33l5.34,5.34l-5.34,5.3l-5.3-5.3
			L395.55,374.33z"/>
		<path class="st1" d="M430.93,412.66h-5.52c-0.6,2.52-1.56,4.62-2.91,6.29c-1.35,1.67-2.93,2.96-4.75,3.86
			c-1.82,0.9-3.81,1.43-5.97,1.59c-2.16,0.16-4.35-0.04-6.58-0.59v-7.43c1.17,0.48,2.41,0.81,3.75,0.98
			c1.34,0.17,2.61,0.13,3.81-0.13c1.21-0.25,2.28-0.74,3.21-1.48c0.93-0.73,1.59-1.76,1.97-3.09c-0.82,0.14-1.75,0.21-2.78,0.19
			c-1.03-0.02-2.08-0.15-3.16-0.4c-1.08-0.24-2.13-0.61-3.16-1.11c-1.03-0.5-1.95-1.17-2.77-2.02c-0.81-0.85-1.46-1.88-1.95-3.11
			c-0.48-1.22-0.73-2.68-0.73-4.35v-6.48c0-1.59,0.3-3.08,0.9-4.48c0.6-1.4,1.43-2.62,2.48-3.67c1.05-1.05,2.27-1.88,3.68-2.48
			c1.41-0.6,2.91-0.9,4.49-0.9c1.59,0,3.08,0.3,4.48,0.9c1.4,0.6,2.62,1.43,3.67,2.48c1.05,1.05,1.88,2.27,2.49,3.67
			c0.61,1.4,0.92,2.89,0.92,4.48c0,1.8,0,3.26,0,4.38c0,1.12,0,2.03-0.02,2.73s-0.02,1.24-0.03,1.64c-0.01,0.39-0.03,0.76-0.05,1.09
			h4.51V412.66z M410.85,395.54v5.49c0,0.68,0.12,1.28,0.35,1.8c0.23,0.52,0.54,0.96,0.92,1.32c0.38,0.36,0.82,0.64,1.3,0.84
			c0.48,0.2,1,0.31,1.52,0.33h4.13v-9.78c0-0.76-0.12-1.42-0.35-1.97c-0.23-0.55-0.55-1.01-0.93-1.37
			c-0.39-0.36-0.84-0.62-1.34-0.78c-0.5-0.16-1-0.23-1.51-0.21c-0.53,0.02-1.04,0.13-1.52,0.33c-0.49,0.2-0.92,0.49-1.3,0.86
			c-0.38,0.37-0.69,0.81-0.92,1.33C410.97,394.27,410.85,394.86,410.85,395.54z"/>
		<path class="st1" d="M442.46,388.91v12.23c0,1.59-0.31,3.09-0.92,4.49c-0.61,1.41-1.45,2.63-2.49,3.67
			c-1.05,1.04-2.28,1.86-3.68,2.46c-1.41,0.6-2.91,0.91-4.49,0.91v-7.43c0.51,0,1.01-0.1,1.51-0.29c0.5-0.19,0.94-0.46,1.34-0.81
			c0.39-0.35,0.71-0.78,0.95-1.3c0.24-0.52,0.36-1.12,0.36-1.8v-12.13H442.46z M438.83,374.33l5.34,5.34l-5.34,5.3l-5.3-5.3
			L438.83,374.33z"/>
		<path class="st1" d="M448.08,374.87h7.43v26.17c0,0.68,0.12,1.28,0.35,1.8c0.23,0.52,0.55,0.95,0.94,1.3
			c0.39,0.35,0.84,0.62,1.33,0.81c0.5,0.19,1,0.29,1.51,0.29v7.43c-1.59,0-3.09-0.31-4.49-0.91c-1.41-0.6-2.64-1.42-3.68-2.46
			c-1.05-1.04-1.87-2.26-2.48-3.67c-0.6-1.41-0.9-2.9-0.9-4.49V374.87z"/>
		<path class="st1" d="M459.58,412.66v-7.43h5.18c-0.23-0.63-0.42-1.29-0.56-1.97c-0.14-0.68-0.21-1.38-0.21-2.13v-5.75
			c0-1.59,0.31-3.08,0.92-4.48c0.61-1.4,1.45-2.62,2.49-3.67c1.05-1.05,2.28-1.88,3.68-2.48s2.91-0.9,4.49-0.9s3.08,0.3,4.48,0.9
			c1.4,0.6,2.62,1.43,3.67,2.48c1.05,1.05,1.88,2.27,2.49,3.67c0.61,1.4,0.92,2.89,0.92,4.48v5.75c0,1.59-0.31,3.09-0.92,4.49
			c-0.61,1.41-1.45,2.64-2.49,3.7c-1.05,1.06-2.27,1.89-3.67,2.49c-1.4,0.6-2.89,0.9-4.48,0.9L459.58,412.66z M471.14,369.25
			l4.45,4.45l4.41-4.45l5.34,5.3l-5.34,5.34l-4.41-4.41l-4.45,4.41l-5.33-5.34L471.14,369.25z M471.46,395.54v5.49
			c0,0.68,0.11,1.28,0.35,1.8c0.23,0.52,0.55,0.96,0.94,1.32c0.39,0.36,0.84,0.64,1.33,0.84c0.5,0.2,1,0.31,1.51,0.33
			c0.51,0.02,1.01-0.05,1.51-0.21c0.5-0.16,0.94-0.41,1.34-0.76c0.39-0.35,0.71-0.8,0.94-1.35c0.23-0.55,0.35-1.21,0.35-1.97v-5.49
			c0-0.76-0.11-1.42-0.35-1.97c-0.23-0.55-0.55-1.01-0.94-1.37c-0.39-0.36-0.84-0.62-1.34-0.78c-0.5-0.16-1-0.23-1.51-0.21
			c-0.51,0.02-1.01,0.13-1.51,0.33c-0.5,0.2-0.94,0.49-1.33,0.86c-0.39,0.37-0.71,0.81-0.94,1.33
			C471.57,394.27,471.46,394.86,471.46,395.54z"/>
		<path class="st1" d="M533.83,388.91v21.66c0,2.03-0.41,3.88-1.24,5.53c-0.83,1.65-1.91,3.07-3.24,4.25
			c-1.34,1.19-2.86,2.1-4.57,2.75c-1.72,0.64-3.46,0.97-5.24,0.97c-1.8,0-3.56-0.32-5.27-0.97c-1.72-0.65-3.25-1.56-4.59-2.75
			c-1.35-1.19-2.43-2.6-3.24-4.25c-0.81-1.65-1.22-3.49-1.22-5.53v-11.72h7.46v11.59c0,1.06,0.2,1.98,0.59,2.76
			c0.39,0.78,0.91,1.43,1.54,1.95c0.64,0.52,1.37,0.92,2.19,1.19c0.82,0.28,1.67,0.42,2.54,0.42c0.85,0,1.68-0.13,2.51-0.38
			c0.82-0.26,1.56-0.65,2.2-1.17c0.64-0.53,1.16-1.19,1.56-1.99c0.39-0.79,0.59-1.72,0.59-2.78v-21.53H533.83z M516.87,381.41
			l5.37,5.34l-5.37,5.3l-5.3-5.3L516.87,381.41z"/>
		<path class="st1" d="M565.59,412.66h-5.52c-0.6,2.52-1.56,4.62-2.91,6.29c-1.35,1.67-2.93,2.96-4.75,3.86
			c-1.82,0.9-3.81,1.43-5.97,1.59c-2.16,0.16-4.35-0.04-6.58-0.59v-7.43c1.17,0.48,2.41,0.81,3.75,0.98
			c1.34,0.17,2.61,0.13,3.81-0.13c1.21-0.25,2.28-0.74,3.21-1.48c0.93-0.73,1.59-1.76,1.97-3.09c-0.82,0.14-1.75,0.21-2.78,0.19
			c-1.03-0.02-2.08-0.15-3.16-0.4c-1.08-0.24-2.13-0.61-3.16-1.11c-1.03-0.5-1.95-1.17-2.77-2.02c-0.81-0.85-1.46-1.88-1.95-3.11
			c-0.48-1.22-0.73-2.68-0.73-4.35v-6.48c0-1.59,0.3-3.08,0.9-4.48c0.6-1.4,1.43-2.62,2.48-3.67c1.05-1.05,2.27-1.88,3.68-2.48
			s2.91-0.9,4.49-0.9c1.59,0,3.08,0.3,4.48,0.9c1.4,0.6,2.62,1.43,3.67,2.48c1.05,1.05,1.88,2.27,2.49,3.67
			c0.61,1.4,0.92,2.89,0.92,4.48c0,1.8,0,3.26,0,4.38c0,1.12,0,2.03-0.02,2.73c-0.01,0.7-0.02,1.24-0.03,1.64
			c-0.01,0.39-0.03,0.76-0.05,1.09h4.51V412.66z M545.52,395.54v5.49c0,0.68,0.12,1.28,0.35,1.8c0.23,0.52,0.54,0.96,0.92,1.32
			c0.38,0.36,0.82,0.64,1.3,0.84c0.48,0.2,1,0.31,1.52,0.33h4.13v-9.78c0-0.76-0.12-1.42-0.35-1.97c-0.23-0.55-0.55-1.01-0.93-1.37
			c-0.39-0.36-0.84-0.62-1.34-0.78c-0.5-0.16-1-0.23-1.51-0.21c-0.53,0.02-1.04,0.13-1.52,0.33c-0.49,0.2-0.92,0.49-1.3,0.86
			c-0.38,0.37-0.69,0.81-0.92,1.33C545.64,394.27,545.52,394.86,545.52,395.54z"/>
		<path class="st1" d="M577.12,401.04c0,0.68,0.11,1.28,0.35,1.8c0.23,0.52,0.54,0.95,0.92,1.3c0.38,0.35,0.82,0.62,1.32,0.81
			c0.5,0.19,1,0.29,1.51,0.29v7.43c-1.53,0-2.96-0.27-4.29-0.81c-1.34-0.54-2.52-1.29-3.56-2.24c-1.04,0.95-2.22,1.7-3.56,2.24
			c-1.34,0.54-2.77,0.81-4.29,0.81v-7.43c0.51,0,1.01-0.1,1.51-0.29c0.5-0.19,0.94-0.46,1.34-0.81c0.39-0.35,0.71-0.78,0.95-1.3
			c0.24-0.52,0.36-1.12,0.36-1.8v-12.13h7.43V401.04z M573.31,416.76l5.37,5.33l-5.37,5.31l-5.31-5.31L573.31,416.76z"/>
		<path class="st1" d="M623.9,388.91v12.23c0,1.59-0.3,3.08-0.9,4.48c-0.6,1.4-1.42,2.62-2.45,3.65c-1.03,1.04-2.24,1.86-3.62,2.46
			c-1.39,0.6-2.86,0.92-4.43,0.94c-1.52,0-2.95-0.27-4.29-0.81c-1.33-0.54-2.52-1.29-3.56-2.24c-1.14,1.02-2.36,1.76-3.64,2.22
			c-1.28,0.47-2.67,0.74-4.18,0.83c-1.44,0-2.84-0.27-4.19-0.8c-1.36-0.53-2.57-1.28-3.65-2.25c-1.04,0.95-2.22,1.7-3.56,2.24
			c-1.34,0.54-2.77,0.81-4.29,0.81v-7.43c0.51,0,1.01-0.1,1.51-0.29c0.5-0.19,0.94-0.46,1.34-0.81c0.39-0.35,0.71-0.78,0.95-1.3
			c0.24-0.52,0.36-1.12,0.36-1.8v-12.13h7.43v12.13c0,0.66,0.11,1.24,0.35,1.76c0.23,0.52,0.54,0.96,0.92,1.32
			c0.38,0.36,0.81,0.63,1.3,0.82s0.98,0.29,1.49,0.29c0.51,0,1.01-0.1,1.51-0.29c0.5-0.19,0.93-0.47,1.32-0.82
			c0.38-0.36,0.69-0.8,0.92-1.32c0.23-0.52,0.35-1.11,0.35-1.76v-12.13h7.43v12.13c0,0.66,0.11,1.24,0.35,1.76
			c0.23,0.52,0.54,0.95,0.92,1.3c0.38,0.35,0.81,0.62,1.3,0.81c0.49,0.19,0.98,0.3,1.49,0.32c0.51-0.02,1.01-0.13,1.5-0.32
			c0.48-0.19,0.92-0.46,1.3-0.81c0.38-0.35,0.69-0.79,0.92-1.3c0.23-0.52,0.35-1.11,0.35-1.76v-12.13H623.9z"/>
		<path class="st1" d="M629.52,374.87h7.43v26.17c0,0.68,0.12,1.28,0.35,1.8c0.23,0.52,0.55,0.95,0.94,1.3
			c0.39,0.35,0.84,0.62,1.33,0.81c0.5,0.19,1,0.29,1.51,0.29v7.43c-1.59,0-3.09-0.31-4.49-0.91c-1.41-0.6-2.64-1.42-3.68-2.46
			c-1.05-1.04-1.87-2.26-2.48-3.67c-0.6-1.41-0.9-2.9-0.9-4.49V374.87z"/>
		<path class="st1" d="M677.29,412.66h-36.27v-7.43h21.53c-0.89-1.08-1.72-2.12-2.48-3.13c-0.76-1-1.51-1.92-2.25-2.75
			c-0.74-0.83-1.5-1.53-2.28-2.1c-0.79-0.57-1.66-0.96-2.62-1.17c-0.97-0.21-2.05-0.21-3.26-0.02c-1.21,0.2-2.59,0.68-4.16,1.45
			l-0.13-7.02c1.46-1.21,2.9-2,4.32-2.38c1.42-0.38,2.83-0.45,4.22-0.19c1.65,0.29,3.17,0.93,4.54,1.89
			c1.37,0.97,2.67,2.09,3.87,3.37c1.21,1.28,2.34,2.63,3.4,4.05c1.06,1.42,2.1,2.72,3.11,3.91c1.02,1.19,2.02,2.17,3.02,2.94
			c1,0.77,2.03,1.16,3.11,1.16h2.32V412.66z"/>
		<path class="st1" d="M677.23,405.23c0.7,0.02,1.34-0.03,1.94-0.18c0.59-0.14,1.11-0.37,1.54-0.71c0.43-0.34,0.77-0.78,1.02-1.32
			c0.24-0.54,0.37-1.2,0.37-1.99v-5.65c0-1.59,0.3-3.08,0.9-4.48c0.6-1.4,1.43-2.62,2.48-3.67c1.05-1.05,2.28-1.88,3.68-2.48
			s2.91-0.9,4.49-0.9c1.59,0,3.08,0.3,4.48,0.9c1.4,0.6,2.62,1.43,3.67,2.48c1.05,1.05,1.88,2.27,2.49,3.67
			c0.61,1.4,0.92,2.89,0.92,4.48v5.75c0,1.59-0.31,3.09-0.92,4.49c-0.61,1.41-1.44,2.64-2.49,3.68c-1.05,1.05-2.27,1.88-3.67,2.49
			c-1.4,0.61-2.89,0.92-4.48,0.92c-1.52,0-2.96-0.27-4.3-0.82c-1.35-0.55-2.54-1.31-3.57-2.29c-1.25,1.19-2.57,1.99-3.95,2.4
			c-1.39,0.41-2.92,0.63-4.59,0.65V405.23z M689.52,395.54v5.49c0,0.68,0.11,1.28,0.35,1.8c0.23,0.52,0.55,0.96,0.94,1.32
			c0.39,0.36,0.84,0.64,1.34,0.84c0.5,0.2,1,0.31,1.51,0.33c0.51,0.02,1.01-0.05,1.51-0.21c0.5-0.16,0.94-0.41,1.33-0.76
			c0.39-0.35,0.71-0.8,0.94-1.35c0.23-0.55,0.35-1.21,0.35-1.97v-5.49c0-0.76-0.12-1.42-0.35-1.97c-0.23-0.55-0.55-1.01-0.94-1.37
			c-0.39-0.36-0.84-0.62-1.33-0.78c-0.5-0.16-1-0.23-1.51-0.21c-0.51,0.02-1.01,0.13-1.51,0.33c-0.5,0.2-0.94,0.49-1.34,0.86
			c-0.39,0.37-0.71,0.81-0.94,1.33C689.64,394.27,689.52,394.86,689.52,395.54z"/>
	</g>
	<g>
		<path class="st0" d="M366.78,121.19h-5.01c-4.23,0-7.18-0.84-8.85-2.51c-0.45-0.44-1.56-2.39-3.34-5.85
			c-19.16,9.8-36.93,14.71-53.31,14.71c-12.25,0-22.17-2.59-29.74-7.77c-7.58-5.18-11.36-12.34-11.36-21.47
			c0-7.13,3.01-15.32,9.02-24.56l2,1c-2.9,5.01-4.34,8.75-4.34,11.19c0,7.35,3.73,13.03,11.2,17.04c7.46,4.01,17.49,6.02,30.08,6.02
			c15.48,0,27.18-1.56,35.09-4.68c5.35-2.12,9.69-5.46,13.03-10.02l1.5,0.5c0.56,4.12,2.06,6.69,4.51,7.69
			c1.34,0.56,4.51,0.84,9.52,0.84V121.19z M317.99,144.92l-6.18,11.7l-9.69-7.85l5.51-10.86L317.99,144.92z"/>
		<path class="st0" d="M396.35,121.19c-4.9-0.22-8.08-0.78-9.53-1.67c-1.45-0.89-3.57-3.68-6.35-8.35c-3.46,5.24-5.66,8.13-6.6,8.69
			c-0.95,0.56-4.2,1-9.77,1.34v-17.88c6.9,0,11.53-0.5,13.87-1.5c2.34-1,5.01-3.51,8.02-7.52l1,0.5c0.67,3.68,1.56,5.91,2.67,6.69
			c0.78,0.67,3.01,1.28,6.68,1.84V121.19z M396.85,75.08l-6.01,10.86l-10.53-7.18l-5.52,9.36l-9.69-7.02l5.85-11.36l10.36,7.02
			l5.18-9.19L396.85,75.08z"/>
		<path class="st0" d="M473.05,121.19c-5.35-0.33-12.09-4.18-20.22-11.53c-6.24-6.24-12.48-12.47-18.71-18.71
			c1,3.57,1.5,6.74,1.5,9.53c0,7.8-2.78,13.31-8.35,16.54c-4.68,2.79-11.98,4.18-21.89,4.18h-11.53v-17.88h15.87
			c13.92,0,20.89-2.06,20.89-6.18c0-2.45-2.79-5.46-8.35-9.02c-9.25-6.12-14.32-9.58-15.21-10.36c-5.57-4.57-8.35-9.19-8.35-13.87
			c0-18.38,23.62-36.48,70.85-54.31c-2.23,8.91-3.68,13.93-4.34,15.04c-1.34,2.12-5.29,4.74-11.86,7.85
			c-15.15,7.02-27.24,12.87-36.26,17.55c-9.47,4.9-14.21,8.47-14.21,10.69c0,1,2.23,2.23,6.69,3.68c6.9,2.23,13.42,5.18,19.55,8.86
			c9.02,5.46,17.32,11.59,24.89,18.38c6.02,5.57,11.31,9.3,15.88,11.2c0.78,0,1.83,0.17,3.17,0.5V121.19z"/>
		<path class="st0" d="M515.15,97.97c0,4.57-0.98,8.33-2.92,11.28c-1.95,2.95-4.65,4.43-8.11,4.43c-2.67,0-5.79-0.78-9.36-2.34
			c-2.9-1.45-5.85-2.9-8.85-4.34c-2.79,6.24-4.4,9.64-4.85,10.19c-1.9,2.23-5.24,3.57-10.02,4.01v-17.88
			c6.13-0.33,10.69-3.12,13.7-8.35c1.89-4.79,3.87-9.66,5.93-14.62c2.06-4.96,5.26-7.43,9.61-7.43c3.78,0,7.21,2.65,10.28,7.94
			C513.62,86.13,515.15,91.85,515.15,97.97z M505.47,94.96c0-2-0.81-3.76-2.43-5.26c-1.61-1.5-3.54-2.25-5.76-2.25
			c-2.45,0-4.57,1.67-6.35,5.01c0.44,0.23,1.78,0.95,4.01,2.17c1.56,0.89,2.98,1.59,4.26,2.09c1.28,0.5,2.59,0.75,3.93,0.75
			C504.68,97.47,505.47,96.63,505.47,94.96z"/>
	</g>
</g>
</svg>
