<?xml version="1.0" encoding="utf-8"?>
<!-- Generator: Adobe Illustrator 24.1.0, SVG Export Plug-In . SVG Version: 6.00 Build 0)  -->
<svg version="1.1" id="Layer_1" xmlns="http://www.w3.org/2000/svg" xmlns:xlink="http://www.w3.org/1999/xlink" x="0px" y="0px"
	 viewBox="0 0 1252.49 347.11" style="enable-background:new 0 0 1252.49 347.11;" xml:space="preserve">
<style type="text/css">
	.st0{fill:#0075BF;}
	.st1{fill:#312783;}
</style>
<g>
	<g>
		<path class="st0" d="M293.31,283.07v23.7c0,2.22-0.45,4.24-1.35,6.05c-0.9,1.81-2.09,3.36-3.55,4.65c-1.46,1.3-3.13,2.3-5,3.01
			c-1.88,0.71-3.79,1.06-5.73,1.06c-1.97,0-3.89-0.35-5.77-1.06c-1.88-0.71-3.55-1.71-5.02-3.01s-2.65-2.85-3.54-4.65
			c-0.89-1.81-1.34-3.82-1.34-6.05v-12.82h8.17v12.68c0,1.16,0.21,2.17,0.64,3.02c0.43,0.86,0.99,1.57,1.69,2.14
			c0.69,0.57,1.49,1,2.4,1.3c0.9,0.3,1.83,0.45,2.78,0.45c0.92,0,1.84-0.14,2.74-0.42c0.9-0.28,1.71-0.71,2.41-1.29
			c0.71-0.58,1.27-1.31,1.7-2.17c0.43-0.87,0.64-1.88,0.64-3.04v-23.56H293.31z M274.75,274.87l5.87,5.84l-5.87,5.8l-5.8-5.8
			L274.75,274.87z"/>
		<path class="st0" d="M299.91,313.12c1.34,0.53,2.77,0.88,4.29,1.06c1.52,0.17,2.95,0.09,4.31-0.25c1.36-0.33,2.54-0.96,3.55-1.86
			c1.01-0.91,1.66-2.15,1.96-3.75c-1.3,0.48-2.59,0.74-3.89,0.76c-1.3,0.02-2.54-0.15-3.74-0.52c-1.19-0.37-2.3-0.91-3.33-1.62
			c-1.03-0.71-1.93-1.55-2.69-2.52c-0.76-0.97-1.36-2.07-1.79-3.3c-0.43-1.23-0.64-2.52-0.64-3.89v-7.09c0-1.74,0.33-3.37,0.99-4.9
			c0.66-1.53,1.56-2.87,2.71-4.01c1.15-1.15,2.49-2.05,4.03-2.71c1.54-0.66,3.18-0.99,4.92-0.99s3.37,0.33,4.9,0.99
			c1.53,0.66,2.87,1.57,4.01,2.71c1.15,1.14,2.06,2.48,2.73,4.01c0.67,1.53,1.01,3.16,1.01,4.9v6.39c0,2.5-0.12,4.94-0.37,7.32
			c-0.24,2.37-0.68,4.59-1.3,6.64c-0.63,2.05-1.49,3.89-2.59,5.53c-1.1,1.63-2.51,2.95-4.24,3.94c-1.73,0.99-3.81,1.63-6.24,1.89
			c-2.43,0.26-5.29,0.06-8.58-0.61V313.12z M306.09,290.33v6.01c0,0.74,0.13,1.4,0.38,1.97s0.59,1.05,1.01,1.44
			c0.42,0.4,0.89,0.7,1.43,0.92c0.53,0.22,1.09,0.34,1.67,0.36c0.56,0.03,1.11-0.05,1.65-0.23c0.54-0.18,1.03-0.45,1.46-0.83
			c0.43-0.38,0.77-0.87,1.02-1.48c0.26-0.6,0.38-1.32,0.38-2.15v-6.01c0-0.83-0.13-1.55-0.38-2.15c-0.25-0.61-0.59-1.1-1.02-1.49
			c-0.43-0.4-0.91-0.68-1.46-0.85c-0.54-0.18-1.1-0.25-1.65-0.23c-0.58,0.02-1.14,0.14-1.67,0.36c-0.53,0.22-1.01,0.53-1.43,0.94
			c-0.42,0.4-0.75,0.89-1.01,1.46C306.22,288.93,306.09,289.58,306.09,290.33z"/>
		<path class="st0" d="M344.8,282.92c1.71,1.46,3.09,3.24,4.14,5.33c1.04,2.1,1.76,4.34,2.15,6.73c0.39,2.38,0.49,4.83,0.28,7.33
			c-0.21,2.5-0.71,4.9-1.51,7.19c-0.8,2.29-1.87,4.38-3.21,6.27c-1.34,1.89-2.94,3.41-4.8,4.55c-1.86,1.15-3.95,1.84-6.29,2.09
			c-2.34,0.24-4.9-0.15-7.68-1.16v-8.13c2.04,0.81,3.86,1.18,5.47,1.11c1.61-0.07,3.02-0.45,4.22-1.13c1.2-0.68,2.22-1.63,3.04-2.85
			c0.82-1.22,1.45-2.58,1.89-4.09c0.44-1.5,0.7-3.1,0.78-4.77c0.08-1.68-0.01-3.34-0.28-4.97c-0.27-1.63-0.7-3.18-1.3-4.66
			c-0.6-1.47-1.37-2.75-2.29-3.84L344.8,282.92z"/>
		<path class="st0" d="M357.66,267.71h8.13v28.63c0,0.74,0.13,1.4,0.38,1.97c0.25,0.57,0.6,1.04,1.02,1.42
			c0.43,0.38,0.92,0.68,1.46,0.88c0.54,0.21,1.09,0.31,1.65,0.31v8.13c-1.74,0-3.38-0.33-4.92-0.99c-1.54-0.66-2.88-1.56-4.03-2.69
			c-1.15-1.14-2.05-2.47-2.71-4.01c-0.66-1.54-0.99-3.18-0.99-4.92V267.71z"/>
		<path class="st0" d="M417,283.07v13.27c0,0.74,0.13,1.4,0.38,1.97s0.59,1.04,1.01,1.42s0.9,0.68,1.44,0.88
			c0.54,0.21,1.11,0.31,1.68,0.31v8.13c-1.67,0-3.23-0.3-4.69-0.89c-1.46-0.59-2.76-1.41-3.89-2.45c-1.14,1.04-2.41,1.85-3.84,2.42
			c-1.42,0.57-2.95,0.87-4.57,0.92c-1.67,0-3.23-0.3-4.69-0.89c-1.46-0.59-2.76-1.41-3.89-2.45c-1.25,1.11-2.58,1.92-3.98,2.43
			c-1.4,0.51-2.93,0.81-4.57,0.91c-1.58,0-3.1-0.29-4.59-0.87c-1.48-0.58-2.81-1.4-4-2.47c-1.14,1.04-2.43,1.86-3.89,2.45
			c-1.46,0.59-3.02,0.89-4.69,0.89v-8.13c0.56,0,1.11-0.1,1.65-0.31c0.54-0.21,1.03-0.5,1.46-0.88c0.43-0.38,0.77-0.86,1.04-1.42
			s0.4-1.22,0.4-1.97v-13.27h8.13v13.27c0,0.72,0.13,1.36,0.38,1.93c0.25,0.57,0.59,1.05,1.01,1.44c0.42,0.39,0.89,0.69,1.43,0.9
			c0.53,0.21,1.08,0.31,1.63,0.31c0.56,0,1.11-0.1,1.65-0.31c0.54-0.21,1.02-0.51,1.44-0.9c0.42-0.39,0.75-0.88,1.01-1.44
			c0.25-0.57,0.38-1.21,0.38-1.93v-13.27h8.13v13.27c0,0.72,0.13,1.36,0.38,1.93c0.25,0.57,0.59,1.04,1.01,1.43
			c0.42,0.38,0.89,0.68,1.43,0.88c0.53,0.21,1.08,0.33,1.63,0.35c0.56-0.02,1.1-0.14,1.63-0.35c0.53-0.21,1.01-0.5,1.43-0.88
			c0.42-0.38,0.75-0.86,1.01-1.43s0.38-1.21,0.38-1.93v-13.27H417z M390.94,266.91l4.86,4.87l4.83-4.87l5.84,5.81l-5.84,5.83
			l-4.83-4.83l-4.86,4.83l-5.84-5.83L390.94,266.91z M395.88,256.38l5.87,5.84l-5.87,5.81l-5.8-5.81L395.88,256.38z"/>
		<path class="st0" d="M425.1,266.91l4.86,4.87l4.86-4.87l5.84,5.81l-5.84,5.83l-4.86-4.83l-4.86,4.83l-5.84-5.83L425.1,266.91z
			 M434.13,296.34c0,0.74,0.13,1.4,0.38,1.97s0.59,1.04,1.01,1.42s0.9,0.68,1.44,0.88c0.54,0.21,1.1,0.31,1.65,0.31v8.13
			c-1.67,0-3.23-0.3-4.69-0.89c-1.46-0.59-2.76-1.41-3.89-2.45c-1.14,1.04-2.43,1.86-3.89,2.45c-1.46,0.59-3.02,0.89-4.69,0.89
			v-8.13c0.56,0,1.11-0.1,1.65-0.31c0.54-0.21,1.03-0.5,1.46-0.88c0.43-0.38,0.77-0.86,1.04-1.42s0.4-1.22,0.4-1.97v-13.27h8.13
			V296.34z"/>
		<path class="st0" d="M485.32,283.07v13.27c0,0.74,0.13,1.4,0.38,1.97c0.25,0.57,0.59,1.04,1.01,1.42s0.9,0.68,1.44,0.88
			c0.54,0.21,1.11,0.31,1.68,0.31v8.13c-1.67,0-3.23-0.3-4.69-0.89c-1.46-0.59-2.76-1.41-3.89-2.45c-1.14,1.04-2.41,1.85-3.84,2.42
			c-1.42,0.57-2.95,0.87-4.57,0.92c-1.67,0-3.23-0.3-4.69-0.89c-1.46-0.59-2.76-1.41-3.89-2.45c-1.25,1.11-2.58,1.92-3.98,2.43
			c-1.4,0.51-2.93,0.81-4.57,0.91c-1.58,0-3.1-0.29-4.59-0.87c-1.48-0.58-2.81-1.4-4-2.47c-1.14,1.04-2.43,1.86-3.89,2.45
			c-1.46,0.59-3.02,0.89-4.69,0.89v-8.13c0.56,0,1.11-0.1,1.65-0.31c0.54-0.21,1.03-0.5,1.46-0.88c0.43-0.38,0.77-0.86,1.04-1.42
			s0.4-1.22,0.4-1.97v-13.27h8.13v13.27c0,0.72,0.13,1.36,0.38,1.93c0.25,0.57,0.59,1.05,1.01,1.44c0.42,0.39,0.89,0.69,1.43,0.9
			c0.53,0.21,1.08,0.31,1.63,0.31c0.56,0,1.11-0.1,1.65-0.31c0.54-0.21,1.02-0.51,1.44-0.9c0.42-0.39,0.75-0.88,1.01-1.44
			c0.25-0.57,0.38-1.21,0.38-1.93v-13.27h8.13v13.27c0,0.72,0.13,1.36,0.38,1.93c0.25,0.57,0.59,1.04,1.01,1.43
			c0.42,0.38,0.89,0.68,1.43,0.88c0.53,0.21,1.08,0.33,1.63,0.35c0.56-0.02,1.1-0.14,1.63-0.35c0.53-0.21,1.01-0.5,1.43-0.88
			c0.42-0.38,0.75-0.86,1.01-1.43s0.38-1.21,0.38-1.93v-13.27H485.32z"/>
		<path class="st0" d="M489.76,300.92c0.77,0.03,1.47-0.04,2.12-0.19c0.65-0.15,1.21-0.41,1.69-0.78c0.47-0.37,0.85-0.85,1.11-1.44
			c0.26-0.59,0.4-1.31,0.4-2.17v-6.18c0-1.74,0.33-3.37,0.99-4.9c0.66-1.53,1.56-2.87,2.71-4.01c1.15-1.15,2.49-2.05,4.03-2.71
			c1.54-0.66,3.18-0.99,4.92-0.99c1.74,0,3.37,0.33,4.9,0.99c1.53,0.66,2.87,1.57,4.01,2.71c1.15,1.14,2.06,2.48,2.73,4.01
			c0.67,1.53,1.01,3.16,1.01,4.9v6.29c0,1.74-0.34,3.38-1.01,4.92c-0.67,1.54-1.58,2.88-2.73,4.03c-1.15,1.15-2.49,2.06-4.01,2.73
			c-1.53,0.67-3.16,1.01-4.9,1.01c-1.67,0-3.24-0.3-4.71-0.9c-1.47-0.61-2.78-1.44-3.91-2.5c-1.37,1.3-2.81,2.17-4.33,2.62
			c-1.52,0.45-3.19,0.69-5.02,0.71V300.92z M503.21,290.33v6.01c0,0.74,0.13,1.4,0.38,1.97c0.25,0.57,0.59,1.05,1.02,1.44
			c0.43,0.4,0.91,0.7,1.46,0.92c0.54,0.22,1.1,0.34,1.65,0.36c0.56,0.03,1.11-0.05,1.65-0.23c0.54-0.18,1.03-0.45,1.46-0.83
			c0.43-0.38,0.77-0.87,1.02-1.48c0.25-0.6,0.38-1.32,0.38-2.15v-6.01c0-0.83-0.13-1.55-0.38-2.15c-0.25-0.61-0.6-1.1-1.02-1.49
			c-0.43-0.4-0.92-0.68-1.46-0.85c-0.54-0.18-1.09-0.25-1.65-0.23c-0.56,0.02-1.11,0.14-1.65,0.36c-0.54,0.22-1.03,0.53-1.46,0.94
			c-0.43,0.4-0.77,0.89-1.02,1.46C503.34,288.93,503.21,289.58,503.21,290.33z"/>
		<path class="st0" d="M571.45,283.07v23.7c0,2.22-0.45,4.24-1.35,6.05c-0.91,1.81-2.09,3.36-3.54,4.65c-1.46,1.3-3.13,2.3-5,3.01
			c-1.88,0.71-3.79,1.06-5.73,1.06c-1.97,0-3.89-0.35-5.77-1.06c-1.88-0.71-3.55-1.71-5.02-3.01c-1.47-1.3-2.65-2.85-3.55-4.65
			c-0.89-1.81-1.34-3.82-1.34-6.05v-12.82h8.16v12.68c0,1.16,0.22,2.17,0.64,3.02c0.43,0.86,0.99,1.57,1.69,2.14
			c0.7,0.57,1.49,1,2.4,1.3c0.9,0.3,1.83,0.45,2.78,0.45c0.93,0,1.84-0.14,2.75-0.42c0.9-0.28,1.71-0.71,2.41-1.29
			c0.71-0.58,1.27-1.31,1.7-2.17c0.43-0.87,0.64-1.88,0.64-3.04v-23.56H571.45z M552.9,274.87l5.88,5.84l-5.88,5.8l-5.8-5.8
			L552.9,274.87z"/>
		<path class="st0" d="M606.19,309.06h-6.04c-0.65,2.75-1.71,5.05-3.18,6.88c-1.47,1.83-3.21,3.24-5.2,4.22
			c-1.99,0.98-4.17,1.56-6.53,1.74c-2.36,0.18-4.76-0.04-7.19-0.64v-8.13c1.28,0.53,2.64,0.89,4.1,1.08
			c1.46,0.18,2.85,0.14,4.17-0.14c1.32-0.28,2.49-0.81,3.51-1.62c1.02-0.8,1.74-1.93,2.15-3.38c-0.9,0.16-1.92,0.23-3.04,0.2
			c-1.13-0.02-2.28-0.17-3.46-0.43c-1.18-0.26-2.33-0.67-3.46-1.21c-1.13-0.54-2.13-1.28-3.03-2.21c-0.89-0.93-1.6-2.06-2.14-3.41
			c-0.53-1.34-0.8-2.93-0.8-4.76v-7.09c0-1.74,0.33-3.37,0.99-4.9c0.66-1.53,1.57-2.87,2.71-4.01c1.14-1.15,2.49-2.05,4.03-2.71
			c1.54-0.66,3.18-0.99,4.92-0.99c1.74,0,3.37,0.33,4.9,0.99c1.53,0.66,2.87,1.57,4.01,2.71c1.15,1.14,2.06,2.48,2.73,4.01
			c0.67,1.53,1.01,3.16,1.01,4.9c0,1.97,0,3.57,0,4.8c0,1.23,0,2.22-0.02,2.99c-0.01,0.76-0.03,1.36-0.03,1.79
			c-0.01,0.43-0.03,0.83-0.05,1.2h4.93V309.06z M584.23,290.33v6.01c0,0.74,0.13,1.4,0.38,1.97s0.59,1.05,1.01,1.44
			c0.42,0.4,0.89,0.7,1.43,0.92c0.53,0.22,1.09,0.34,1.67,0.36h4.52v-10.7c0-0.83-0.13-1.55-0.38-2.15c-0.25-0.61-0.6-1.1-1.02-1.49
			c-0.43-0.4-0.92-0.68-1.46-0.85c-0.55-0.18-1.09-0.25-1.65-0.23c-0.58,0.02-1.14,0.14-1.67,0.36c-0.53,0.22-1.01,0.53-1.43,0.94
			c-0.41,0.4-0.75,0.89-1.01,1.46C584.36,288.93,584.23,289.58,584.23,290.33z"/>
		<path class="st0" d="M609.75,313.4l4.86,4.87l4.87-4.87l5.84,5.81l-5.84,5.83l-4.87-4.83l-4.86,4.83l-5.84-5.83L609.75,313.4z
			 M618.81,296.34c0,0.74,0.13,1.4,0.38,1.97s0.59,1.04,1.01,1.42c0.42,0.38,0.9,0.68,1.44,0.88c0.55,0.21,1.09,0.31,1.65,0.31v8.13
			c-1.67,0-3.23-0.3-4.69-0.89c-1.46-0.59-2.76-1.41-3.89-2.45c-1.14,1.04-2.43,1.86-3.89,2.45c-1.46,0.59-3.03,0.89-4.69,0.89
			v-8.13c0.56,0,1.11-0.1,1.65-0.31c0.55-0.21,1.03-0.5,1.46-0.88c0.43-0.38,0.78-0.86,1.04-1.42c0.26-0.57,0.4-1.22,0.4-1.97
			v-13.27h8.13V296.34z"/>
		<path class="st0" d="M635.91,283.07v13.38c0,1.74-0.34,3.38-1.01,4.92c-0.67,1.54-1.58,2.88-2.73,4.01
			c-1.15,1.14-2.49,2.03-4.03,2.69c-1.54,0.66-3.18,0.99-4.92,0.99v-8.13c0.56,0,1.11-0.1,1.65-0.31c0.55-0.21,1.03-0.5,1.46-0.88
			c0.43-0.38,0.78-0.86,1.04-1.42c0.26-0.57,0.4-1.22,0.4-1.97v-13.27H635.91z M631.94,267.12l5.84,5.84l-5.84,5.8l-5.8-5.8
			L631.94,267.12z"/>
		<path class="st0" d="M670.65,309.06h-6.04c-0.65,2.75-1.71,5.05-3.18,6.88c-1.47,1.83-3.21,3.24-5.2,4.22
			c-1.99,0.98-4.17,1.56-6.53,1.74c-2.36,0.18-4.76-0.04-7.19-0.64v-8.13c1.28,0.53,2.64,0.89,4.1,1.08
			c1.46,0.18,2.85,0.14,4.17-0.14c1.32-0.28,2.49-0.81,3.51-1.62c1.02-0.8,1.74-1.93,2.15-3.38c-0.9,0.16-1.92,0.23-3.04,0.2
			c-1.13-0.02-2.28-0.17-3.46-0.43c-1.18-0.26-2.33-0.67-3.46-1.21c-1.13-0.54-2.13-1.28-3.03-2.21c-0.89-0.93-1.6-2.06-2.14-3.41
			c-0.53-1.34-0.8-2.93-0.8-4.76v-7.09c0-1.74,0.33-3.37,0.99-4.9c0.66-1.53,1.56-2.87,2.71-4.01c1.14-1.15,2.49-2.05,4.03-2.71
			c1.54-0.66,3.18-0.99,4.92-0.99c1.74,0,3.37,0.33,4.9,0.99c1.53,0.66,2.87,1.57,4.01,2.71c1.15,1.14,2.06,2.48,2.73,4.01
			c0.67,1.53,1.01,3.16,1.01,4.9c0,1.97,0,3.57,0,4.8c0,1.23,0,2.22-0.02,2.99s-0.03,1.36-0.03,1.79c-0.01,0.43-0.03,0.83-0.05,1.2
			h4.93V309.06z M648.69,290.33v6.01c0,0.74,0.13,1.4,0.38,1.97s0.59,1.05,1.01,1.44c0.42,0.4,0.89,0.7,1.43,0.92
			c0.53,0.22,1.09,0.34,1.67,0.36h4.52v-10.7c0-0.83-0.13-1.55-0.38-2.15c-0.25-0.61-0.6-1.1-1.02-1.49
			c-0.43-0.4-0.92-0.68-1.46-0.85c-0.55-0.18-1.09-0.25-1.65-0.23c-0.58,0.02-1.14,0.14-1.67,0.36c-0.53,0.22-1.01,0.53-1.43,0.94
			c-0.41,0.4-0.75,0.89-1.01,1.46C648.82,288.93,648.69,289.58,648.69,290.33z"/>
		<path class="st0" d="M683.27,283.07v13.38c0,1.74-0.34,3.38-1.01,4.92c-0.67,1.54-1.58,2.88-2.73,4.01
			c-1.15,1.14-2.49,2.03-4.03,2.69c-1.54,0.66-3.18,0.99-4.92,0.99v-8.13c0.56,0,1.11-0.1,1.65-0.31c0.55-0.21,1.03-0.5,1.46-0.88
			c0.43-0.38,0.78-0.86,1.04-1.42c0.26-0.57,0.4-1.22,0.4-1.97v-13.27H683.27z M679.3,267.12l5.84,5.84l-5.84,5.8l-5.8-5.8
			L679.3,267.12z"/>
		<path class="st0" d="M689.41,267.71h8.13v28.63c0,0.74,0.13,1.4,0.38,1.97s0.6,1.04,1.03,1.42c0.43,0.38,0.91,0.68,1.46,0.88
			c0.55,0.21,1.1,0.31,1.65,0.31v8.13c-1.74,0-3.38-0.33-4.92-0.99c-1.54-0.66-2.88-1.56-4.03-2.69s-2.05-2.47-2.71-4.01
			c-0.66-1.54-0.99-3.18-0.99-4.92V267.71z"/>
		<path class="st0" d="M702,309.06v-8.13h5.66c-0.25-0.69-0.46-1.41-0.61-2.15c-0.15-0.74-0.23-1.51-0.23-2.33v-6.29
			c0-1.74,0.33-3.37,1.01-4.9c0.67-1.53,1.58-2.87,2.73-4.01c1.15-1.15,2.49-2.05,4.03-2.71c1.54-0.66,3.18-0.99,4.92-0.99
			s3.37,0.33,4.9,0.99c1.53,0.66,2.87,1.57,4.01,2.71c1.14,1.14,2.05,2.48,2.73,4.01c0.67,1.53,1.01,3.16,1.01,4.9v6.29
			c0,1.74-0.34,3.38-1.01,4.92c-0.67,1.54-1.58,2.89-2.73,4.05c-1.15,1.16-2.49,2.07-4.01,2.73c-1.53,0.66-3.16,0.99-4.9,0.99
			L702,309.06z M714.64,261.56l4.87,4.87l4.83-4.87l5.84,5.8l-5.84,5.84l-4.83-4.83l-4.87,4.83l-5.83-5.84L714.64,261.56z
			 M714.99,290.33v6.01c0,0.74,0.13,1.4,0.38,1.97s0.6,1.05,1.03,1.44c0.43,0.4,0.91,0.7,1.46,0.92c0.55,0.22,1.1,0.34,1.65,0.36
			c0.56,0.03,1.11-0.05,1.65-0.23c0.55-0.18,1.03-0.45,1.46-0.83c0.43-0.38,0.77-0.87,1.03-1.48c0.25-0.6,0.38-1.32,0.38-2.15v-6.01
			c0-0.83-0.13-1.55-0.38-2.15c-0.25-0.61-0.6-1.1-1.03-1.49c-0.43-0.4-0.91-0.68-1.46-0.85c-0.54-0.18-1.09-0.25-1.65-0.23
			c-0.56,0.02-1.11,0.14-1.65,0.36c-0.54,0.22-1.03,0.53-1.46,0.94c-0.43,0.4-0.77,0.89-1.03,1.46
			C715.12,288.93,714.99,289.58,714.99,290.33z"/>
		<path class="st0" d="M783.23,283.07v23.7c0,2.22-0.45,4.24-1.35,6.05c-0.91,1.81-2.09,3.36-3.54,4.65c-1.46,1.3-3.13,2.3-5,3.01
			c-1.88,0.71-3.79,1.06-5.73,1.06c-1.97,0-3.89-0.35-5.77-1.06c-1.88-0.71-3.55-1.71-5.02-3.01c-1.47-1.3-2.65-2.85-3.55-4.65
			c-0.89-1.81-1.34-3.82-1.34-6.05v-12.82h8.16v12.68c0,1.16,0.22,2.17,0.64,3.02c0.43,0.86,0.99,1.57,1.69,2.14
			c0.7,0.57,1.49,1,2.4,1.3c0.9,0.3,1.83,0.45,2.78,0.45c0.93,0,1.84-0.14,2.75-0.42c0.9-0.28,1.71-0.71,2.41-1.29
			c0.71-0.58,1.27-1.31,1.7-2.17c0.43-0.87,0.64-1.88,0.64-3.04v-23.56H783.23z M764.67,274.87l5.88,5.84l-5.88,5.8l-5.8-5.8
			L764.67,274.87z"/>
		<path class="st0" d="M817.98,309.06h-6.04c-0.65,2.75-1.71,5.05-3.18,6.88c-1.47,1.83-3.21,3.24-5.2,4.22
			c-1.99,0.98-4.17,1.56-6.53,1.74c-2.36,0.18-4.76-0.04-7.19-0.64v-8.13c1.28,0.53,2.64,0.89,4.1,1.08
			c1.46,0.18,2.85,0.14,4.17-0.14c1.32-0.28,2.49-0.81,3.51-1.62c1.02-0.8,1.74-1.93,2.15-3.38c-0.9,0.16-1.92,0.23-3.04,0.2
			c-1.13-0.02-2.28-0.17-3.46-0.43c-1.18-0.26-2.33-0.67-3.46-1.21c-1.13-0.54-2.13-1.28-3.03-2.21c-0.89-0.93-1.6-2.06-2.14-3.41
			c-0.53-1.34-0.8-2.93-0.8-4.76v-7.09c0-1.74,0.33-3.37,0.99-4.9c0.66-1.53,1.57-2.87,2.71-4.01c1.14-1.15,2.49-2.05,4.03-2.71
			c1.54-0.66,3.18-0.99,4.92-0.99c1.74,0,3.37,0.33,4.9,0.99c1.53,0.66,2.87,1.57,4.01,2.71c1.15,1.14,2.06,2.48,2.73,4.01
			c0.67,1.53,1.01,3.16,1.01,4.9c0,1.97,0,3.57,0,4.8c0,1.23,0,2.22-0.02,2.99s-0.03,1.36-0.03,1.79c-0.01,0.43-0.03,0.83-0.05,1.2
			h4.93V309.06z M796.02,290.33v6.01c0,0.74,0.13,1.4,0.38,1.97s0.59,1.05,1.01,1.44c0.42,0.4,0.89,0.7,1.43,0.92
			c0.53,0.22,1.09,0.34,1.67,0.36h4.52v-10.7c0-0.83-0.13-1.55-0.38-2.15c-0.25-0.61-0.6-1.1-1.02-1.49
			c-0.43-0.4-0.92-0.68-1.46-0.85c-0.55-0.18-1.09-0.25-1.65-0.23c-0.58,0.02-1.14,0.14-1.67,0.36c-0.53,0.22-1.01,0.53-1.43,0.94
			c-0.41,0.4-0.75,0.89-1.01,1.46C796.15,288.93,796.02,289.58,796.02,290.33z"/>
		<path class="st0" d="M830.59,296.34c0,0.74,0.13,1.4,0.38,1.97s0.59,1.04,1.01,1.42c0.42,0.38,0.9,0.68,1.44,0.88
			c0.55,0.21,1.09,0.31,1.65,0.31v8.13c-1.67,0-3.23-0.3-4.69-0.89c-1.46-0.59-2.76-1.41-3.89-2.45c-1.14,1.04-2.43,1.86-3.89,2.45
			c-1.46,0.59-3.03,0.89-4.69,0.89v-8.13c0.56,0,1.11-0.1,1.65-0.31c0.55-0.21,1.03-0.5,1.46-0.88c0.43-0.38,0.78-0.86,1.04-1.42
			c0.26-0.57,0.4-1.22,0.4-1.97v-13.27h8.13V296.34z M826.42,313.54l5.87,5.83l-5.87,5.81l-5.81-5.81L826.42,313.54z"/>
		<path class="st0" d="M881.77,283.07v13.38c0,1.74-0.33,3.37-0.99,4.9c-0.66,1.53-1.55,2.86-2.68,4s-2.45,2.03-3.96,2.69
			c-1.52,0.66-3.13,1-4.85,1.03c-1.67,0-3.23-0.3-4.69-0.89c-1.46-0.59-2.75-1.41-3.89-2.45c-1.25,1.11-2.58,1.92-3.98,2.43
			c-1.4,0.51-2.93,0.81-4.57,0.91c-1.58,0-3.1-0.29-4.59-0.87c-1.49-0.58-2.82-1.4-4-2.47c-1.14,1.04-2.43,1.86-3.89,2.45
			c-1.46,0.59-3.03,0.89-4.69,0.89v-8.13c0.56,0,1.11-0.1,1.65-0.31c0.55-0.21,1.03-0.5,1.46-0.88c0.43-0.38,0.78-0.86,1.04-1.42
			c0.26-0.57,0.4-1.22,0.4-1.97v-13.27h8.13v13.27c0,0.72,0.13,1.36,0.38,1.93s0.59,1.05,1.01,1.44c0.42,0.39,0.89,0.69,1.42,0.9
			c0.53,0.21,1.08,0.31,1.63,0.31c0.56,0,1.11-0.1,1.65-0.31c0.54-0.21,1.02-0.51,1.44-0.9c0.42-0.39,0.76-0.88,1.01-1.44
			s0.38-1.21,0.38-1.93v-13.27h8.13v13.27c0,0.72,0.13,1.36,0.38,1.93s0.59,1.04,1.01,1.43c0.42,0.38,0.89,0.68,1.42,0.88
			c0.53,0.21,1.08,0.33,1.63,0.35c0.56-0.02,1.1-0.14,1.64-0.35c0.53-0.21,1.01-0.5,1.42-0.88c0.42-0.38,0.75-0.86,1.01-1.43
			s0.38-1.21,0.38-1.93v-13.27H881.77z"/>
		<path class="st0" d="M887.92,267.71h8.13v28.63c0,0.74,0.13,1.4,0.38,1.97s0.6,1.04,1.03,1.42c0.43,0.38,0.91,0.68,1.46,0.88
			c0.55,0.21,1.1,0.31,1.65,0.31v8.13c-1.74,0-3.38-0.33-4.92-0.99c-1.54-0.66-2.88-1.56-4.03-2.69s-2.05-2.47-2.71-4.01
			c-0.66-1.54-0.99-3.18-0.99-4.92V267.71z"/>
		<path class="st0" d="M940.18,309.06H900.5v-8.13h23.56c-0.97-1.18-1.88-2.32-2.71-3.42c-0.83-1.1-1.66-2.1-2.47-3
			c-0.81-0.91-1.64-1.67-2.5-2.3c-0.86-0.62-1.82-1.05-2.87-1.29c-1.06-0.23-2.24-0.23-3.56-0.02c-1.32,0.22-2.84,0.75-4.55,1.58
			l-0.14-7.68c1.6-1.32,3.18-2.19,4.73-2.6c1.55-0.42,3.09-0.49,4.62-0.21c1.81,0.32,3.46,1.01,4.97,2.07
			c1.5,1.06,2.92,2.28,4.24,3.69c1.32,1.4,2.56,2.88,3.72,4.43c1.16,1.55,2.3,2.98,3.41,4.27c1.11,1.3,2.21,2.37,3.3,3.21
			c1.09,0.85,2.22,1.27,3.41,1.27h2.54V309.06z"/>
		<path class="st0" d="M940.11,300.92c0.76,0.03,1.47-0.04,2.12-0.19c0.65-0.15,1.21-0.41,1.68-0.78c0.48-0.37,0.85-0.85,1.11-1.44
			c0.27-0.59,0.4-1.31,0.4-2.17v-6.18c0-1.74,0.33-3.37,0.99-4.9c0.66-1.53,1.56-2.87,2.71-4.01c1.15-1.15,2.49-2.05,4.03-2.71
			c1.54-0.66,3.18-0.99,4.92-0.99s3.37,0.33,4.9,0.99c1.53,0.66,2.87,1.57,4.01,2.71c1.15,1.14,2.05,2.48,2.73,4.01
			c0.67,1.53,1.01,3.16,1.01,4.9v6.29c0,1.74-0.34,3.38-1.01,4.92c-0.67,1.54-1.58,2.88-2.73,4.03c-1.15,1.15-2.49,2.06-4.01,2.73
			s-3.16,1.01-4.9,1.01c-1.67,0-3.24-0.3-4.71-0.9c-1.47-0.61-2.78-1.44-3.91-2.5c-1.36,1.3-2.81,2.17-4.32,2.62
			c-1.52,0.45-3.19,0.69-5.02,0.71V300.92z M953.56,290.33v6.01c0,0.74,0.13,1.4,0.38,1.97s0.6,1.05,1.03,1.44
			c0.43,0.4,0.91,0.7,1.46,0.92c0.54,0.22,1.09,0.34,1.65,0.36c0.56,0.03,1.11-0.05,1.65-0.23c0.54-0.18,1.03-0.45,1.46-0.83
			c0.43-0.38,0.77-0.87,1.03-1.48c0.25-0.6,0.38-1.32,0.38-2.15v-6.01c0-0.83-0.13-1.55-0.38-2.15c-0.25-0.61-0.6-1.1-1.03-1.49
			c-0.43-0.4-0.91-0.68-1.46-0.85c-0.55-0.18-1.1-0.25-1.65-0.23c-0.56,0.02-1.11,0.14-1.65,0.36c-0.55,0.22-1.03,0.53-1.46,0.94
			c-0.43,0.4-0.77,0.89-1.03,1.46C953.68,288.93,953.56,289.58,953.56,290.33z"/>
	</g>
	<g>
		<g>
			<path class="st1" d="M760.15,97.08l2.24-1.02l0.44-0.32l1.34-0.87l4.03-2.59l5.14-3.49c1.54-1.03,2.91-2.08,4.64-3.06
				c2.3-1.55,4.99-2.98,7.67-4.34c2.1-1.1,4.26-2.09,6.34-3.1c2.01-1.26,3.92-2.55,5.76-3.74c1.34-0.78,2.69-1.52,4.03-2.23
				c2.2-1.18,4.46-2.09,6.71-3.32l3.98-1.87l2.5-1.34l2.29-1.37l0.99-0.62l0.99-0.58l0.69-0.33l2-0.73l-1.34,2.24l-0.19,0.66
				l-0.62,1.34c-0.53,1.26-0.98,2.53-1.39,3.82l-0.8,2.68l-0.33,1.34l-0.44,2.69l-0.25,1.34v1.34l0.29,2.69l0.52,2.69l0.81,2.69
				l1.07,2.69h2.24h1.78l1.33-0.43l1.21-0.38l2.15-1.34l1.65-1.88l1.18-2.68l0.85-2.48l0.56-2l0.48-2.24l-1.61,0.84l-1.08,1.11
				l-0.44,0.94l-0.31,0.45l-0.6,2.03l-2.82-0.79l-1.22-0.55l-1.89-1.77l-0.78-0.92l-0.74-2.69l0.16-2.69l0.96-2.69l0.7-1.34
				l1.61-2.69l1.69-2.69l1.56-2.69c1.18-2.12,2.12-4.3,3.22-6.5l0.54-1.34l0.28-0.66l0.77-2.24l-2.24,0.14l-0.66,0.11l-1.34,0.21
				l-2.5,0.88c-1.89,0.52-3.61,1.53-5.34,2.69l-1.34,0.67l-2.69,1.6c-1.34,0.76-2.69,1.51-4.03,2.21l-2.69,1.32
				c-1.8,0.91-3.62,1.63-5.37,2.55c-1.83,1.05-3.58,2.09-5.37,3.14l-5.37,3.28l-4.03,2.12l-2.69,1.5l-4.03,2.17
				c-1.36,0.93-2.7,1.54-4.03,2.35l-4.03,2.6l-4.03,2.43c-2.69,1.67-5.37,3.35-7.27,5.87l-1.45,2.46l-0.88,2.67l-0.55,1.78
				L760.15,97.08"/>
			<path class="st1" d="M662.1,71.56l-0.02-5.37l-0.13-2.69l-0.16-1.32l-0.69-2.53l-0.59-1.15l-0.76-1.03l-0.93-0.69l-2.25-1.34
				l-2.56-0.45l-2.67,0.62l-1.34,0.7l-2.16,2.03l-1.91,2.51l-0.81,1.32l-1.34,2.68l-0.98,2.69l-0.57,2.69l-0.29,1.34v1.34v4.03
				l2.24,0.27l0.44,0.16l1.34,0.27l3.82,0.99l1.34,0.35l0.65,0.19l2.24,0.47l-0.82,2.24l-1.09,1.95l-1.62,2.52l-1.84,2.12
				l-2.89,3.48l-3.08,3.82l-4.38,5.35l-4.01,4.6l-1.87,2.31l-1.69,2.49l-1.19,1.79l-1.02,2.24l2.24-0.4l1.78-0.75
				c1.34-0.67,2.69-1.36,3.81-2.3l1.18-1.04l1.15-1.13c1.58-1.67,3.09-3.4,4.6-5.12c1.93-2.22,3.82-4.46,5.7-6.72
				c1.47-1.77,2.98-3.52,4.35-5.37l1.87-2.68l2.34-3.89l0.76-1.18l1.73-2l2.02-1.34l1.24-0.43l2.83-0.57l1.13-2.21l0.99-1.82
				l0.56-1.19l0.39-0.63l0.96-2.21H662.1z M654.49,69.53l-0.65-0.02l-1.32,0.1c-1.22-0.09-2.5-0.23-3.85-0.39l-0.44-0.11l-2.24-0.24
				l0.97-2.52l0.62-1.01l1.65-1.3l2.09-0.54l2.05,0.46l1.59,1.3l0.97,1.53l0.8,2.08L654.49,69.53z"/>
			<path class="st1" d="M530.49,76.93l-4.03,5.43l-0.85,1.32l-1.84,2.65l-0.77,1.34l-1.16,2.69l-0.76,1.78v2.24
				c1.34,0.48,2.69,0.91,4.03,1.48l4.03,1.64l2.69,1.32l1.34,0.69l1.34,0.65l1.34,0.57l1.34,0.41l2.64,0.12
				c1.34-0.17,2.63-0.95,3.64-1.84l2.07-2.05l0.91-1.1l1.49-2.27l1.27-2.3l0.46-2.63l-0.57-2.37l-0.69-1.04l-2.02-1.73l-1.22-0.71
				l-2.61-1.31l-2.68-1.29c-1.71-0.82-3.41-1.65-5.37-2.34l-1.78-0.77L530.49,76.93"/>
			<path class="st1" d="M562.72,72.9c-1.34,1.74-2.38,3.5-3.63,5.37c-1.12,1.35-2.29,2.83-3.35,4.38l-1.28,2.34l-0.73,1.81
				l-0.4,2.22l2.24,0.89l1.78,0.92l1.34,0.58l4.03,1.86l2.69,1.19l2.69,0.94l1.34,0.34h1.34l1.34-0.39c1.34-0.49,2.69-1.49,3.97-2.3
				l2.44-2.69l1.07-1.32l0.93-1.31l1.37-2.53l0.33-0.66l0.63-2.24l-2.24-1.34l-2-1.08l-6.5-2.95l-5.37-2.62l-1.34-0.52l-0.44-0.29
				L562.72,72.9"/>
			<path class="st1" d="M71.17,97.08c-0.94-1.33-1.86-2.69-2.85-4.02l-1.67-2.16l-1.87-2.22l-2.1-2.24
				c-1.13-1.16-2.38-2.18-3.64-3.2l-2.64-1.83l-2.68-1.43l-2.69-0.93l-1.34-0.25l-1.34-0.09L47,78.83l-2.1,0.85l-1.69,1.72
				l-0.59,1.11l-0.69,2.51l-0.31,1.32v2.69v5.37l2.69,0.78L47,95.74h1.31l2.28-0.45l0.82-0.45l0.52-0.82l0.45-2.31l2.24,0.88
				l0.44,0.46l1.34,0.82c1.99,1.37,3.62,2.91,5.12,4.58l2.19,2.66l0.74,1.34l1.09,1.34l1.52,2.69l1.23,2.69l0.54,1.34l0.3,0.44
				l0.69,2.24l-2.24,0.06l-2,0.24c-1.3,0.29-2.57,0.63-3.81,1.28l-2.32,1.69l-1.04,1.07l-1.73,2.44l-1.38,2.63l-0.64,1.34
				l-1.88,4.03l-1.13,2.69l-0.91,2.69l-0.59,1.78l-0.48,2.24l2.24-0.4l1.78-0.68c2.69-1.06,5.34-2.4,8.06-3.22l2.69-0.65l1.34-0.23
				l2.69-0.2l2.68-0.54l1.34-0.15l1.32-0.07l1.27,0.07l1.17,0.28l1,0.5l1.12,1.69c0.24,1.32-0.5,2.56-1.12,3.62l-0.99,1.32
				l-2.42,2.68l-2.67,2.46l-3.43,3.48l-2.12,2.31l-1.8,2.49l-1.18,1.79l-0.86,2.24l2.24,0.27l1.78-0.19l2.69-0.76l1.34-0.59
				c1.84-0.94,3.64-1.96,5.37-3.09l2.68-1.83l1.33-1.03l1.31-1.12l1.27-1.06l1.22-1.34l2.19-2.69l1.8-2.69l1.45-2.69l1.21-2.69
				l0.55-1.34l0.98-2.69l0.76-2.69l0.46-2.69l0.19-2.68l-0.02-2.67l-0.34-2.56l-0.38-1.18l-0.57-1.07l-0.77-0.93l-2.07-1.34
				l-1.22-0.41l-1.29-0.28L84.59,112l-1.34-0.09l-2.69-0.05l-6.72-0.01l0.25-2.24l0.12-0.44c0.28-1.93,0.55-3.65,0.75-5.37
				c0.15-1.34,0.17-2.69,0.21-4.03c0.02-2.24-0.01-4.48,0.02-6.71l0.58-2.66l0.41-1.29l1.34-2.33l0.92-0.94l1.05-0.72l2.26-0.64
				l2.01,0.52l0.81,0.61l1.34,2.08l1.92-0.88l0.41-0.46l1.51-1.77l0.54-0.92l0.49-2.69l-0.07-1.29l-0.3-1.25l-1.29-2.25l-2.07-1.67
				l-2.51-0.88l-1.32-0.13l-1.34,0.08l-1.34,0.26l-2.32,1.03l-1.96,1.6l-0.79,1l-1.26,2.3l-0.91,2.57l-0.31,1.33l-0.23,1.34
				c-0.28,2.21-0.3,4.44-0.52,6.71l-0.4,2.69l-0.12,0.44L71.17,97.08"/>
			<path class="st1" d="M165.18,91.71l-1.77-1.34l-0.47-0.69l-1-1.08l-4.84-6.26l-2.15-2.57l-1.11-1.2l-2.32-2.1l-1.23-0.86
				c-1.23-0.76-2.57-1.32-3.91-1.82l-1.78-0.57l-2.24-0.31l-0.7,2.9l-0.25,1.34l-0.39,2.47v2.69v4.03h2.24
				c1.51,0,3.06,0.05,4.47,0.61l1.3,0.74l2.5,1.66l1.17,1.16l2.18,2.57c1.67,2.11,3.15,4.37,4.49,6.7l2.11,4.03l1.28,2.25l0.74,1.08
				l0.33,0.69l1.36,1.34l0.81-2.24l0.11-0.44l0.33-1.34l0.1-1.34c0.48-2.28,0.86-4.48,1.13-6.72l0.21-4.03l0.4-1.34l0.57-2.68
				l0.37-1.34l0.58-1.32l0.68-1.29l0.84-1.2l0.99-1.06l0.94-0.84l2.69-0.74l2.56,0.66l1.21,0.72l2.17,1.65l1.11,0.77l0.53,0.44
				l1.83,0.87l0.42-2.24l0.34-1.78l0.21-2.69l-0.05-1.34l-0.59-2.61l-1.32-2.34l-1.99-1.73l-2.44-0.93l-2.63-0.17l-2.68,0.54
				l-1.34,0.57l-2.38,1.73l-2.04,2.34l-0.94,1.29l-0.57,1.32l-0.77,1.34l-0.63,2.68l-0.47,2.69
				C165.14,87.19,165.18,89.46,165.18,91.71"/>
			<path class="st1" d="M410.96,87.68l-5.43-5.37l-2.63-2.67l-2.68-2.51l-1.34-1.12l-2.69-1.76c-1.81-1.03-4.03-1.34-5.81-2.08
				l-2.24-0.61l-1.52,2.9L386,75.81l-0.79,2.5l-0.25,1.31l-0.02,2.69l0.81,2.1l1.64,1.63l2.1,0.8l1.34,0.13l2.69,0.13l1.34,0.22
				l1.34,0.45l1.33,0.7l2.58,2.01l2.37,2.59c1.35,1.34,2.68,2.76,3.83,4.41c1.07,1.53,1.92,3.19,2.85,4.99l1.36,1.87l0.9,0.83
				l0.4,0.46l1.85,0.88c0.33-1.81,0.72-3.61,0.96-5.37c0.23-1.83,0.32-3.59,0.36-5.37l0.02-6.72l0.31-2.68l0.28-1.32l1-2.51
				l0.76-1.11l0.93-0.94l2.1-1.2l1.34-0.21l1.33,0.03l1.3,0.22l2.53,0.74l0.66,0.24l2.24,0.66l0.56-2.24l0.25-1.78l-0.01-1.34
				l-0.5-2.49l-1.29-2.07l-0.92-0.77l-1.07-0.57l-2.43-0.59h-2.63l-1.34,0.21l-1.09,0.38l-2.19,1.34l-1.79,2.07l-0.73,1.22
				l-0.62,1.29l-0.92,2.66c-0.48,1.69-0.73,3.44-1.06,5.37l-0.42,1.78L410.96,87.68"/>
			<path class="st1" d="M119.52,68.88l-1.05,2.24l-0.29,0.66l-0.48,1.34l-2.21,6.5l-1.34,4.03c-0.45,1.76-0.89,3.54-0.97,5.37
				c-0.09,1.81,0.15,3.61,0.53,5.37c0.3,1.35,0.44,2.69,1.01,4.03l1.13,4.03l0.67,2.69c0.32,2.24,0.96,4.49,1.52,6.72
				c0.78,3.14,1.81,6.22,2.41,9.4l0.42,4.03l0.82,4.03l1.29,6.72l0.9,5.37l0.63,4.03c0.28,2.23,0.38,4.48,0.61,6.72
				c0.19,1.82,0.58,3.59,0.96,5.37l0.9,4.03l0.93,5.37l0.44,2.69l0.37,2.69l0.21,4.03l1.17,6.72l0.53,4.03
				c0.23,1.78,0.57,3.57,0.46,5.37l-0.47,2.69l-0.49,1.34l-1.4,2.69l-0.88,1.34l-0.98,1.34l-1.07,1.34l-1.15,1.1l-2.49,2.24
				l-1.31,1.03l-2.67,1.95l-2.68,1.93l-4.03,2.87c-2.69,1.83-5.37,3.65-8.06,5.25l-4.03,2.43c-2.2,1.34-4.41,2.69-6.72,3.6
				c-2.18,1.02-4.43,1.87-6.72,2.64c-2.21,0.74-4.45,1.4-6.72,1.96c-1.77,0.44-3.57,0.85-5.37,1.2c-1.77,0.23-3.57,0.43-5.37,0.33
				c-2.32-0.14-4.56-0.73-6.72-1.58c-3.37-1.33-6.72-3.22-9.15-5.75c-2.31-2.24-4.28-4.95-5.73-7.77c-1.37-2.54-2.57-5.25-3-8.06
				c-0.51-2.21-0.91-4.45-0.91-6.72c0.24-2.27,0.67-4.51,1.21-6.72c0.67-2.69,1.48-5.37,2.65-8.06c0.76-1.82,1.51-3.59,2.46-5.37
				l1.74-4.03c0.91-1.77,1.72-3.53,2.44-5.34l0.85-2.5l0.47-2l0.27-2.24l-2.19,0.88l-1.84,1.28l-1.97,2.07l-0.92,1.22l-1.61,2.61
				c-1.36,2.68-2.48,5.37-3.56,8.05c-0.67,2.22-1.34,4.48-2.02,6.72l-1.33,4.03l-1.23,4.03l-1.13,4.03
				c-0.67,2.69-1.13,5.37-1.55,8.06c-0.21,1.34-0.46,2.69-0.56,4.03l-0.23,2.69v2.69v2.46c0.28,1.16,0.42,2.34,0.62,3.48
				c0.29,1.65,0.72,3.46,1.24,4.86l0.82,2.64c1.27,2.81,2.69,5.47,4.52,8.05c0.86,1.11,1.84,2.31,2.89,3.4
				c1.43,1.48,3.03,2.77,4.68,3.92c1.32,0.86,2.66,1.63,4.03,2.3c1.72,0.85,3.5,1.53,5.37,1.94c1.76,0.52,3.58,0.52,5.37,0.52
				c1.34,0,2.68,0,4.03,0l1.34-0.23l2.69-0.39c1.81-0.36,3.6-0.72,5.37-1.29c4.6-1.3,9.09-2.97,13.43-4.8c1.83-1,3.6-1.97,5.37-2.93
				c1.34-0.74,2.69-1.51,4.03-2.33c3.26-2.02,6.3-4.14,9.4-6.63c2.24-1.55,4.53-3.2,6.71-4.9c2.19-1.71,4.33-3.36,6.28-5.49
				c1.09-1.1,2.13-2.24,3.07-3.47c1.4-2.1,3.06-4.3,4.55-6.48l1.87-2.61l1.7-2.33l1.92-1.66l2.11-1.46v2.24l0.56,2l0.78,2.5
				l0.65,1.31l1.39,2.68c0.65,1.34,1.63,2.69,2.62,3.8c1.39,1.63,3.01,3.04,4.74,4.27c1.68,1.33,3.46,2.16,5.37,2.84l2.69,0.72
				l1.34,0.21l1.34,0.25h2.69h2.69c1.8,0,3.61,0,5.37-0.56c1.92-0.47,3.69-1.29,5.37-2.12l2.67-2.06l1.31-1.07l1.26-1.15l2.3-2.44
				l1.87-2.69c1.17-1.71,2.06-3.55,3.03-5.35c0.66-1.23,1.34-2.45,2.09-3.62l1.27-1.66l1.67-1.46v2.24l0.69,2l1.03,2.48l1.49,2.67
				l1.73,2.24l0.91,1.07l0.87,0.98l2.04,1.67c1.99,1.52,4.68,2.31,7.36,2.81l2.69,0.39l1.34,0.24h1.34l2.69-0.25l2.69-0.46
				c1.34-0.29,2.69-0.63,4.03-1.4l1.34-0.57l1.33-0.94l2.57-2.04l2.3-2.38l1.01-1.34l1.71-2.69l0.72-1.34l0.67-1.34l1.16-2.69
				l0.92-2.69c0.56-1.74,0.85-3.57,1.05-5.37l0.71-4.03l0.12-1.34v-2.69l-0.31-2.69l-0.53-2.69c-0.21-1.8-0.55-3.59-1.12-5.34
				c-0.75-2.34-1.88-4.53-2.91-6.75h-2.69l-1.05,2.24l-0.29,0.66l-0.93,2.53l-1.02,2.63l-0.74,1.34c-0.66,2.17-1.72,4.34-1.81,6.71
				c-0.1,2.81,1.18,5.39,2.03,8.06l0.68,2.69l0.17,0.44l0.27,2.24l-2.24,0.47l-0.66,0.18c-2.14,0.68-4.28,1.15-6.5,1.19l-2.68-0.19
				l-1.34-0.24l-2.69-0.72l-2.69-1.05l-2.24-1.45l-1.07-0.87l-0.99-0.96l-1.75-2.14l-0.75-1.17l-0.66-1.11l-0.88-2.69l-0.15-2.68
				l0.2-1.34l0.66-2.63l0.33-1.19l0.42-2l0.19-2.24l-2.24,0.46l-1.98,0.92l-2.49,1.73l-1.06,1.11l-2.11,2.51
				c-0.94,1.32-1.72,2.66-2.49,4c-1.05,1.79-1.94,3.63-3.03,5.37l-1.77,2.69l-0.99,1.34l-2.22,2.69l-1.22,1.09l-1.27,1.15
				l-2.64,2.05l-2.68,1.65l-1.34,0.77l-1.34,0.4l-2.69,0.64l-2.69,0.31h-1.34l-2.69-0.46l-2.69-0.69l-1.34-0.5l-1.34-0.62
				l-2.69-1.57l-2.69-2l-1.09-1.14l-2.18-2.43c-0.94-1.28-1.79-2.63-2.44-4.03c-1.01-2.18-1.81-4.44-2.57-6.72
				c-0.75-2.22-1.41-4.47-2.07-6.71l-1.12-3.98c-0.8-3.15-1.26-6.36-1.65-9.45l-0.52-5.37l-0.77-5.37l-0.73-5.37
				c-0.49-3.15-1.18-6.27-1.75-9.4c-0.57-2.24-0.74-4.49-1.24-6.72l-1.02-4.03l-0.58-2.69c-0.42-1.78-0.52-3.58-0.78-5.37
				l-0.98-5.37l-0.21-4.03c-0.16-1.34-0.37-2.69-0.62-4.03c-0.52-2.26-0.91-4.5-1.52-6.72c-0.75-2.69-1.69-5.34-2.39-8.06
				c-0.64-2.22-1-4.47-1.45-6.72l-1.61-8.06l-0.84-4.02l-0.77-2.61l-0.66-2.33l-0.68-1.08l-0.12-0.58L119.52,68.88"/>
			<path class="st1" d="M325,64.85l-1.34,2.24l-0.24,0.66l-0.69,1.34l-0.57,1.19l-1.33,2.63l-2.06,4.02
				c-0.85,1.76-1.83,3.56-2.36,5.37c-1.24,3.05-2.49,6.14-3.06,9.4c-0.44,2.21-0.44,4.47-0.44,6.72c0,1.35,0,2.69,0,4.03l0.46,2.69
				l0.31,1.34l0.43,1.34l0.57,1.34l1.61,1.98l2,1.51l2.69,0.71l2.67-0.05l1.31-0.12l1.26-0.64l2.3-1.47l1.86-1.92l0.75-1.34
				l1.13-2.69l0.42-1.31l0.66-2.5l0.49-2l0.6-2.24l-2.24,0.85l-0.66,0.49l-1.34,0.6l-2.5,1.33l-2.66,0.76h-1.34l-2.1-1.08
				l-1.68-1.92l-0.57-1.03l-0.38-1.34l-0.24-2.69c0.03-2.32,0.79-4.56,1.54-6.72l1.03-2.69l1.64-4.03l1.13-2.69l0.57-1.34l1-2.68
				l0.68-2.61l0.07-2.33l-0.17-1.08l-0.06-0.58L325,64.85"/>
			<path class="st1" d="M259.2,87.68l2.24-0.58l1.78-0.77l2.69-1.22l5.37-2.81c1.32-0.92,2.66-1.61,4.03-2.26
				c2.21-1.05,4.48-1.77,6.72-2.93l5.37-2.46l3.97-1.75l1.26-0.71l2.25-1.54l1.68-1.78l0.62-1.27l0.97-2.76
				c-1.41,0.03-2.83,0-4.24,0.14c-1.29,0.13-2.57,0.36-3.82,0.71c-1.84,0.52-3.62,1.29-5.37,2.08l-2.69,1.24l-6.72,3.25l-4.03,1.98
				l-2.69,1.05l-2.69,1.36l-2.38,1.61l-1.07,0.85l-1.69,2.08l-1,2.43l-0.28,1.34l-0.3,0.45V87.68"/>
			<path class="st1" d="M471.39,96.35l-0.68-0.19l-2.01-0.42v-2.24l0.38-1.78l0.58-4.03c0.17-1.34,0.29-2.68,0.31-4.03l-0.08-2.68
				l-0.16-1.32l-0.69-2.51l-0.59-1.11l-1.69-1.66l-2.25-0.6l-1.25,0.16l-1.29,0.45l-2.69,1.66l-2.16,2.33l-1.01,1.29l-1.71,2.66
				l-1.34,2.68l-0.97,2.69l-0.31,1.34l-0.19,1.34l-0.03,1.34l0.49,2.69l1.32,2.43l0.93,1.13l2.16,1.94l1.93,1.33l2.24,1.21
				l-2.19,2.24l-5.1,5.44c-2.11,2.02-4.11,3.91-6.16,5.87l-6.7,6.6l-2.69,2.3l-5.37,4.64l-5.37,5.15c-1.34,1.1-2.69,2.28-4.03,3.44
				l-2.69,2.19l-4.03,3.2l-4.03,3.26c-1.74,1.34-3.49,2.45-5.37,4.03l-1.87,1.75l-0.83,1.11l-0.46,0.52l-0.88,1.99l2.24-0.74
				l0.44-0.35l1.34-0.63l8.06-4.69c2.69-1.59,5.37-2.99,8.06-4.85c4.29-2.96,8.06-6.48,12.09-9.87l5.37-4.39l5.37-5.15l5.35-4.64
				c1.32-1.19,2.6-2.3,3.82-3.65l2.3-2.69l1.97-2.68c1.19-1.28,2.15-2.64,3.31-3.82c1.03-1.06,2.06-2.03,3.41-2.64l2.49-0.62
				l1.33,0.01l0.65,0.01l2.24,0.34l0.58-2.21l0.37-1.82l0.26-1.82l0.13-2.21L471.39,96.35z M462.44,92.47l-0.64-0.27l-2.5-1.11
				l-0.92-0.73l-1.53-1.81l-0.34-2.05l0.96-1.87l1.82-1.32l1.22-0.43l2.82-0.57l0.7,2.89l0.25,1.32l0.27,2.5l0.1,1.79l0.02,2.24
				L462.44,92.47z"/>
			<path class="st1" d="M781.63,115.88l2.24,1.34l0.44,0.19l1.34,0.62c1.91,0.68,3.64,1.27,5.37,1.87l5.82,1.97l2.24,0.72l2.09-2.24
				l1.62-1.78l1.66-2.69l0.74-1.34l1.07-2.68c0.88-3.04,0.85-6.26,0.88-9.4l-2.24-0.44l-2-0.47l-3.82-1.01l-1.34-0.37l-2.68-0.66
				l-1.34-0.19l-2.4,0.17l-1.11,0.45l-1.01,0.7l-0.9,0.93l-1.57,2.32l-1.39,2.61l-0.67,1.34c-0.6,1.34-1.2,2.69-1.73,4.03
				l-0.73,1.78L781.63,115.88"/>
			<polyline class="st1" points="272.63,89.02 271.28,91.26 271.1,91.92 268.99,95.77 267.62,98.42 266.38,101.11 265.42,103.79 
				264.87,105.58 264.57,107.82 266.81,108.71 268.6,109.63 273.97,112.18 275.31,112.84 278,113.99 279.34,114.54 282.01,114.55 
				284.57,113.59 285.77,112.71 286.87,111.85 288.73,109.17 290.07,106.48 290.87,103.8 291.06,102.46 291.09,101.13 290.94,99.84 
				290.04,97.48 289.27,96.49 287.2,94.92 285.98,94.39 283.37,93.24 282.03,92.72 279.57,91.71 276.3,90.03 275.15,89.64 
				274.62,89.4 272.63,89.02 			"/>
			<path class="st1" d="M739.92,183.03l-0.12-1.34l-0.61-2.67l-1.34-2.56l-0.96-1.18l-1.11-1.07l-2.51-1.69l-2.66-1l-2.68-0.43
				l-2.69-0.07l-2.69,0.22l-2.69,0.64c-1.89,0.61-3.64,1.75-5.37,2.55l-2.69,1.53l-2.69,1.7c-1.34,0.72-2.69,1.59-3.8,2.69
				c-1.59,1.07-3.12,2.38-4.64,3.69c-2.3,1.85-4.25,3.73-6.33,5.76c-1.53,1.71-3.05,3.52-4.6,5.32c-1.17,1.36-2.35,2.71-3.58,4.03
				l-7.94,8.06c-1.11,1.34-2.28,2.69-3.46,4.03c-1.15,1.34-2.27,2.69-3.48,4.03c-2.46,2.4-5.17,4.61-7.83,6.89l-4.03,3.47
				c-2.18,1.79-4.39,3.55-6.72,5.16l-2.69,1.94l-2.69,1.34l-2.69,1.34c-1.34,0.34-2.69,0.62-4.03,0.88l-2.69,0.2l-1.34-0.08
				l-1.34-0.21l-1.34-0.33l-2.69-1.07l-2.69-1.61l-0.92-1l-0.96-1.1l-0.81-1.06l-0.92-2.69l-0.43-1.34v-2.69v-2.69l0.31-1.34
				l0.69-2.66l1.34-2.53l2-2.2c1.5-1.35,3.33-2.28,5.07-3.25c1.81-1.01,3.61-2.01,5.37-3.1c4.03-2.37,8.01-5.5,12.09-8.16l8.06-4.96
				c2.28-1.34,4.52-3.03,6.72-4.6l4.03-2.96c2.25-1.68,4.5-3.18,6.72-5.1c3.08-2.41,6.18-4.8,8.96-7.49c1.08-1.19,2.1-2.33,3.1-3.48
				c0.99-1.13,1.97-2.28,2.71-3.46l2.06-2.46l0.88-1.34l0.82-1.34l1.43-2.69l1.21-2.69l1.58-4.03c0.65-1.77,1.23-3.57,1.8-5.37
				l1.62-5.37c0.52-1.7,1.04-3.4,1.37-5.15c0.29-1.53,0.39-2.91,0.48-4.64l0.14-3.65c0.03-1.83,0.03-3.6-0.02-5.37l-0.19-2.69
				l-0.44-2.69l-0.67-2.69l-0.77-2.69c-0.55-1.34-0.77-2.69-1.25-4.03l-0.99-2.69c-0.57-1.34-1.17-2.69-1.86-4.03
				c-0.73-1.35-1.55-2.67-2.38-3.97l-0.81-1.19l-0.87-1.34l-0.47-0.66l-1.32-2.24h-1.83l-0.53-0.33l-1.11-0.29l-1.01-0.39
				l-2.37-0.81l-2.58-0.56l-1.33-0.13l-1.34-0.04l-2.68,0.25l-2.69,0.96l-2.69,1.34l-1.34,0.77l-1.34,1.04l-2.18,2.35l-1.97,2.58
				l-1.65,2.67c-0.92,1.34-1.44,2.68-2.03,4.03c-0.93,2.2-1.74,4.44-2.45,6.72c-0.47,1.34-0.82,2.69-1.12,4.03
				c-0.29,1.34-0.46,2.69-0.7,4.03c0,1.71,0,3.43,0.23,5.14l0.13,1.19l0.2,1.16l0.63,2.29l0.46,1.17l1.27,2.48l0.81,1.06l2,1.98
				l0.99,0.76l2.69,1l2.69,0.59h1.34l1.34-0.24l1.34-0.13l1.34-0.15c1.34-0.12,2.68-0.27,4.03-0.16l2.69,0.67l1.34,0.22l1.34,0.55
				l1.32,0.69l2.46,1.78l1.83,2.27l0.5,1.26l0.16,1.3l-0.2,1.33l-0.68,1.34l-1.56,2.44c-2.03,2.3-4.38,4.29-6.73,6.26
				c-2.99,2.5-6.07,4.89-9.17,7.42c-1.77,1.34-3.55,2.69-5.37,3.75c-1.76,1.22-3.57,2.37-5.37,3.53l-4.03,2.69l-4.03,2.77
				l-6.72,4.29l-4.03,2.51c-2.2,1.31-4.47,2.47-6.72,3.7c-2.72,1.5-5.42,3.07-8.06,4.71c-1.36,0.85-2.72,1.7-4.03,2.62
				c-2.24,1.66-4.42,3.23-6.72,4.73c-1.76,1.15-3.58,2.3-5.37,3.28l-4.03,2.48l-4.03,2.48l-5.37,3.46
				c-1.78,1.34-3.55,2.34-5.37,3.42c-3.06,1.95-6.26,3.37-9.4,5.05c-1.82,0.97-3.59,2.03-5.37,3.05l-6.72,3.87l-2.69,1.73
				l-5.37,3.78c-1.34,0.92-2.69,1.93-4.03,2.65c-1.75,1.07-3.56,2.01-5.37,2.97l-1.34,0.69l-2.69,1.46l-1.34,0.88l-1.87,1.65
				l-1.28,1.63l-0.88,2.09h2.24l0.44-0.25l1.34-0.2l2.69-0.61c1.85-0.52,3.62-1.22,5.37-1.91c2.68-1.05,5.33-2.14,8.06-3.06
				l4.03-1.25c1.8-0.55,3.6-1.1,5.37-1.72l8.06-2.99l6.72-2.07c1.34-0.43,2.69-0.95,4.03-1.52c3.24-1.4,6.34-3.13,9.4-4.88
				c2.21-1.04,4.36-2.65,6.71-3.63l1.34-0.52l2.63-0.74l1.19-0.18l1.34-0.42l0.66-0.11l2.24-0.81v8.06c0,2.16-0.05,4.35,0.35,6.48
				c0.38,2.04,1.23,3.93,2.03,5.83l1.13,2.5l0.52,1.3l0.97,1.34l2.02,2.26l1.04,0.96l1.34,0.81l2.69,0.93l1.34,0.41
				c1.34,0.03,2.68,0.17,4.03,0.26c1.34,0.09,2.69,0.19,4.03,0.13l2.69-0.17l2.69-0.21c1.8-0.43,3.6-0.76,5.37-1.21
				c2.65-0.66,5.29-1.46,7.68-2.82c1.67-0.95,3.07-2.17,4.64-3.38l3.8-3.23c2.21-1.86,4.46-3.67,6.49-5.7
				c1.57-1.62,2.92-3.38,4.52-5.14l4.35-5.37l5.77-6.72c1.54-1.79,3.04-3.62,4.62-5.37c1.66-1.84,3.4-3.61,5.14-5.37l4.03-3.91
				l2.69-2.37l2.69-2.07c1.72-1.06,3.53-2.37,5.37-3.43c1.31-0.76,2.65-1.51,4.03-2.13c2.52-1.13,5.25-2.05,8.06-1.71l2.68,0.84
				l1.33,0.43l1.29,0.92l1.24,0.71l2.18,2.01l0.58,0.54l1.46,2.11h2.69l0.56-2.68l0.21-1.18l0.27-2.12l0.18-2.31
				c0.06-1.11,0.11-2.46,0.11-3.8L739.92,183.03z M684.04,115.32l-2,0.56h-2.5c-1.34,0-2.65-0.25-4-0.51
				c-2.29-0.45-4.5-1.37-6.72-2.18l0.88-2.16l0.46-0.52l1.77-1.93l2.26-1.22l2.69-0.32l2.63,0.5l2.44,1.1l1.07,0.7l1.68,1.6
				l0.62,1.06l0.97,2.55L684.04,115.32z"/>
			<path class="st1" d="M197.42,140.06l-1.34,2.24l-0.95,1.99l-0.89,2.48l-0.32,1.34l-0.52,1.78v2.24l2.24-0.87l0.44-0.44l1.34-0.79
				l4.03-2.82c1.31-0.95,2.65-1.79,4.03-2.7l2.69-1.56c1.77-1,3.55-1.98,5.37-2.88l2.66-1.23l1.29-0.64l2.34-1.58l1.73-1.94
				l0.95-2.5l0.23-1.33l0.11-0.65l0.08-2.24l-2.24,0.27l-2,0.43l-5.16,1.3l-2.68,0.44c-1.34,0.25-2.69,0.25-4.03,0.25
				c-1.34,0-2.69,0-4.03,0l-2.69-0.39l-1.34-0.25l-2.69-0.7v-2.69l2.24-0.77l0.45-0.3l2.59-0.89l2.18-0.39l1.62,0.21l1.66,0.79
				l1.2-2.24l0.69-1.78l0.24-1.34l0.2-2.48l-0.22-1.99l-0.76-2.24l-2.9,0.74l-1.34,0.6l-2.5,1.34l-2.66,1.72l-1.34,1.15l-1.09,1.24
				l-1.13,1.29l-1.04,1.33l-1.69,2.68l-1.08,2.69l-0.31,1.34l-0.38,1.34v2.69l0.69,2.22l1.05,1.95l1.5,1.39l1.02,0.48L197.42,140.06
				"/>
			<path class="st1" d="M629.64,140.06c-0.16-1.8-0.48-3.6-0.85-5.37l-0.58-2.69c-0.34-1.34-0.7-2.69-1.14-4.03l-0.98-2.69
				c-0.7-1.78-1.59-3.56-2.18-5.32l-1.66-3.7c-0.56-1.18-1.12-2.36-1.83-3.45l-1.76-2.3l-2.3-2.57l-2.6-2.3l-2.68-1.85l-2.69-1.71
				l-2.69-1.22l-2.69-0.71l-1.34-0.16l-2.69,0.04l-2.69,0.44l-1.34,0.35l-1.34,0.43l-1.34,0.5l-1.34,0.69l-1.09,0.56l-2.22,1.65
				l-2.05,2.1l-0.7,1.2l-0.77,1.26l-0.71,1.31l-1.21,2.67l-0.93,2.68c-0.66,2.19-1.05,4.46-1.38,6.72c-0.52,3.11-1.05,6.24-1.01,9.4
				l0.3,2.69l0.26,1.34l0.78,2.69l1.34,2.69l1.08,1.34l0.98,1.04l2.22,2l1.09,0.76l2.69,1l2.69,0.59l2.69-0.25l2.69-0.37
				c1.34-0.27,2.69-0.58,4.03-0.72l4.03-1.32l2.69-0.6l2.68-0.1l1.34,0.26l1.32,0.5l2.44,1.68l1,1.11l0.62,1.22l0.62,2.61
				l-0.28,1.34l-1.38,2.46l-0.97,1.19l-1.08,1.16l-2.39,2.29l-2.59,2.37c-1.76,1.59-3.52,3.18-5.35,4.68l-4.03,3.31l-5.37,4.03
				c-1.78,1.4-3.55,2.82-5.37,4.17c-2.21,1.65-4.46,3.25-6.72,4.84c-1.78,1.25-3.56,2.5-5.37,3.7l-2.69,1.65
				c-2.18,1.28-4.42,2.46-6.72,3.53l-4.03,1.75l-2.69,1.16c-3.09,1.33-6.16,2.74-9.4,3.68c-2.2,0.64-4.46,1.05-6.72,1.38
				c-2.22,0.37-4.46,0.78-6.72,0.77c-3.2-0.01-6.34-0.81-9.4-1.68c-3.7-1.04-7.36-2.11-10.74-4.15l-2.69-1.6l-2.69-1.73l-1.11-1.02
				l-1.18-1.02l-2.23-2.24c-1.78-1.97-3.53-4.14-4.59-6.47c-0.71-1.29-1.32-2.66-1.85-4.03l-1.11-2.69
				c-0.34-1.33-0.76-2.67-1.34-4.03c-0.27-1.76-0.68-3.53-1.01-5.32c-0.33-1.4-0.53-3.22-0.62-4.86c-0.14-2.43,0.05-4.87,0.17-7.28
				c0.09-1.8,0.12-3.6,0.34-5.37c0.27-2.26,0.63-4.51,1.12-6.72l0.8-2.69l1-2.69l1.76-4.02l0.95-2.63l0.57-2.53l0.13-0.66l0.15-2.24
				l-1.8,1.46l-1.49,1.66c-0.87,1.16-1.74,2.34-2.43,3.62l-1.31,2.66l-1.59,4.03c-0.99,2.69-2.14,5.37-2.57,8.06
				c-0.53,2.22-0.91,4.48-1.26,6.72l-0.99,4.03l-0.72,4.03c-0.26,1.34-0.62,2.69-0.62,4.03c0,1.34,0,2.69,0,4.03
				c0,2.25,0,4.48,0.4,6.72c0.39,2.72,0.94,5.37,1.67,8.06c0.51,2.69,0.62,5.43,1.47,8.06c0.49,2.34,1.77,4.54,2.86,6.72
				c1.15,2.3,2.34,4.62,3.86,6.72c1,1.34,2.11,2.69,3.17,3.8l2.69,2.29l1.34,1.05l1.34,1l2.69,1.78l2.69,1.44l2.69,1.12l2.69,0.95
				l2.69,0.88c1.33,0.47,2.66,0.83,4.03,1.11l2.69,0.45l2.69,0.25c1.79,0,3.58,0.01,5.37,0h4.03l2.69-0.25l2.69-0.45
				c1.82-0.39,3.62-0.96,5.37-1.58c2.26-0.8,4.49-1.66,6.72-2.56c1.8-0.53,3.6-1.48,5.37-2.29l4.03-1.95
				c2.28-1.14,4.53-2.32,6.72-3.62c1.83-1.09,3.61-2.08,5.37-3.42c2.26-1.34,4.51-3.03,6.72-4.6c2.27-1.62,4.49-3.3,6.72-4.8
				l6.72-5.22c1.81-1.39,3.59-2.81,5.32-4.18l3.68-3.36c1.46-1.31,2.89-2.66,4.27-4.05c1.5-1.51,2.84-3.12,4.19-4.68
				c1.58-1.78,3.02-3.52,4.32-5.37c1.05-1.71,2.3-3.5,3.23-5.37l1.21-2.69l0.5-1.34l0.79-2.69l0.3-1.34l0.72-4.03
				c0.3-1.78,0.62-3.57,0.78-5.37C629.8,143.64,629.8,141.85,629.64,140.06z M604.8,126.76l-0.66,0.1l-1.34,0.17l-2.5,0.48
				l-2.65,0.55l-2.69,0.32l-2.43-0.23c-1.6-0.19-2.61-1.03-3.81-1.54l-1.83-1.34l0.88-2.09l0.46-0.51l1.77-1.84l0.92-0.73l1.34-0.56
				l2.69-0.66l2.68-0.08l2.66,0.51l2.51,1.16c1.13,0.77,2.01,1.59,2.85,2.54l0.92,1.6l0.46,1.99L604.8,126.76z"/>
			<path class="st1" d="M470.4,177.79l-1.22-2.35l-0.82-1.04l-0.99-0.77l-1.97-1.34l-1.12-0.65l-2.4-0.51
				c-1.31-0.11-2.6-0.16-3.91-0.15c-1.34,0.01-2.69,0.07-4.02,0.21c-1.81,0.19-3.61,0.54-5.37,1.11c-1.84,0.4-3.62,1.04-5.37,1.8
				c-1.37,0.59-2.7,1.26-4.03,1.91c-1.36,0.67-2.71,1.36-4.03,2.12l-2.69,1.62l-4.03,2.75c-1.81,1.27-3.61,2.57-5.37,3.92
				l-2.69,2.19c-3.12,2.68-6.07,5.58-9.05,8.43l-4.38,4.03l-2.08,2.12l-2.1,2.16l-6.68,7.25c-2.59,2.73-5.27,5.38-7.94,8.04
				c-3.04,3.03-6.08,6.05-9.4,8.78c-1.34,1.07-2.69,2.09-4.03,3.31l-1.34,0.75l-2.69,1.94l-1.34,0.58l-1.34,0.76l-2.69,0.78
				l-2.69,0.56h-1.34h-1.34l-1.34-0.38l-1.34-0.31l-2.69-1.08l-1.34-0.77l-1.04-0.91l-2.05-2.17l-1.55-2.43l-0.74-1.34l-0.78-2.69
				l-0.56-2.69l-0.06-1.34l0.03-2.69l0.3-2.69l0.29-1.34l0.42-1.34l1.35-2.69c0.9-1.34,2.03-2.69,3.03-4.02
				c1.34-1.35,2.68-2.64,3.98-3.91c1.39-1.47,3.2-2.81,4.85-4.5l4.6-4.12c2.27-1.92,4.37-3.88,6.47-5.85
				c1.43-1.35,2.89-2.67,4.22-4.12c0.95-1.04,1.85-2.12,2.65-3.28c0.84-1.1,1.44-2.44,2.28-3.78c1.31-2.65,2.4-5.37,3.6-8.06
				l1.81-4.03l1-2.69c0.44-1.32,0.75-2.68,1.1-4.03l1.05-4.03l1.03-4.03l0.83-4.03c0.34-1.77,0.61-3.57,0.65-5.37
				c0.08-3.17-0.53-6.31-1.19-9.4c-0.39-1.81-0.82-3.6-1.34-5.37l-1.32-4.03l-1.02-2.69c-0.62-1.34-1.66-2.69-2.31-4.01
				c-2.09-3.1-4.73-5.93-7.54-8.08c-2.01-1.83-4.16-3.28-6.59-4.03l-2.69-0.88l-1.34-0.2l-2.69-0.15l-1.34,0.04l-2.69,0.32
				l-2.69,0.88l-1.34,0.43l-2.44,1.61l-2.22,2.17l-0.99,1.24l-1.06,1.29l-1.47,2.66c-2.11,3.79-3.46,8.06-4.68,12.09l-1.51,5.37
				c-0.48,1.76-0.97,3.54-1.08,5.37l0.08,2.69l0.2,1.34l0.28,1.34c0.47,1.82,0.97,3.65,1.86,5.37c0.7,1.34,1.58,2.46,2.65,3.5
				l2.31,1.87l1.34,0.73l2.69,1.08l2.69,0.59l2.68,0.29c1.72,0,3.43,0,5.15,0c3.2-0.42,6.52-1.12,9.63,0l2.55,1.34l1.13,0.7
				l0.95,1.02l0.68,1.15l0.34,2.53l-0.37,1.32l-1.65,2.68l-2.37,2.69l-2.63,2.3l-2.68,2.28l-6.72,5.61l-4.03,3.46l-5.37,5.15
				c-1.34,1.09-2.69,2.27-4.03,3.41c-1.75,1.44-3.56,2.79-5.37,4.15l-5.37,3.96c-2.22,1.57-4.46,3.26-6.72,4.6
				c-2.69,1.78-5.37,3.6-8.06,5.37c-1.34,0.73-2.69,1.53-4.03,2.27l-6.72,3.52l-2.69,1.53l-6.72,4.16l-5.37,3.29l-4.03,2.26
				l-5.14,3.35c-1.57,1.11-3.05,2.06-4.64,2.98c-1.63,0.94-3.32,1.74-5.01,2.55l-5.35,2.62l-17.46,8.74l-2.69,1.34l-2.69,1.35
				l-1.34,0.68l-2.26,1.43l-1.77,1.55l-0.88,1.45l-0.46,1.94l2.24-0.25l1.78-0.37c1.95-0.38,3.67-0.72,5.37-1.29
				c2.26-0.66,4.49-1.38,6.72-2.11c4.03-1.33,8.04-2.69,12.09-4c2.23-0.69,4.47-1.31,6.72-1.94c1.78-0.5,3.56-1.03,5.37-1.45
				c2.67-0.61,5.37-0.94,8.06-1.58c2.69-0.44,5.37-1.56,8.06-2.62c4.65-1.85,9.04-4.32,13.43-6.72l6.72-3.75l5.37-3.19l5.37-3.26
				l6.65-4.34l3.19-2l2.24-1.41l-0.25,2.24l-0.12,0.66c-0.41,2.6-0.97,5.2-0.97,7.84c0,1.8,0.28,3.62,0.7,5.37
				c0.53,2.27,1.24,4.5,1.96,6.72c0.86,2.69,1.61,5.39,3.47,7.53c1.28,1.48,2.93,2.53,4.62,3.44l2.69,1.25l2.69,0.94l1.34,0.32
				l2.69,0.28l2.69-0.07l2.69-0.16c1.79-0.1,3.6-0.1,5.37-0.38c1.87-0.29,3.67-0.82,5.37-1.67c3.61-1.81,6.53-4.68,9.4-7.44
				l2.69-2.69l5.37-5.37c2.21-2.22,4.42-4.44,6.59-6.69l4.72-5.01c1.57-1.6,3.22-3.07,4.8-4.64l4.03-3.8
				c2.23-2.19,4.4-4.41,6.72-6.48c2.56-2.28,5.27-4.26,8.06-6.37c2.17-1.55,4.39-3.06,6.72-4.37c2.16-1.21,4.41-2.25,6.72-3.15
				c1.33-0.52,2.67-0.98,4.03-1.4l2.69-0.66l2.69-0.39l1.34-0.25l1.34-0.1l2.69,0.13c2.27,0.36,4.34,1.57,6.5,2.19l2,0.73h2.24
				v-2.24l0.5-1.78l1.36-5.37l0.26-1.34l0.12-2.67L470.4,177.79z M371.11,133.07l-3.19-0.23l-3.97-0.1
				c-1.35-0.06-2.69-0.17-4.03-0.39c-1.75-0.29-3.47-0.75-5.37-1.28l-1.34-0.41l-0.44-0.31l-2.24-1.04l0.97-2.6l0.62-1.07l1.68-1.5
				l2.1-0.96l1.34-0.26l2.69-0.13l2.67,0.33l1.31,0.34l2.5,1.03l2.27,1.43l1.95,1.72l1.39,1.89l0.9,1.69l0.44,2.11L371.11,133.07z"
				/>
			<path class="st1" d="M193.39,166.92h5.37l1.34-1.86l0.69-0.42l1.08-0.93l2.25-1.43l2.69-1.32c2.66-1.3,5.37-2.42,8.06-3.67
				l1.34-0.63l2.66-1.34l1.29-0.76l1.22-0.86l1.11-0.95l1.73-1.94l0.95-2.52l0.23-1.31l0.11-0.64l0.08-2.24l-2.24,0.57l-2,0.77
				l-5.16,2.28l-4.03,1.75l-6.72,2.74c-1.83,0.79-3.66,1.69-5.37,2.81l-2.38,1.88l-1.07,1.07l-1.69,2.34l-1,2.59l-0.28,1.34
				l-0.3,0.44V166.92 M463.34,127.97l-1.36,2.24l-0.34,0.66l-1.39,2.53c-0.93,1.73-1.86,3.47-2.55,5.31
				c-0.81,2.17-1.24,4.44-1.62,6.72l-0.39,2.69l-0.12,1.34l-0.02,1.34l0.34,2.69l0.98,2.37l0.75,1.05l0.92,0.89l1.05,0.67l2.33,0.57
				l2.3-0.57l1.79-1.56l1.76-2.08l0.92-2.67l0.89-2.48l0.32-2l0.14-2.24c-1.34,0.84-2.25,1.73-3.46,2.69l-0.99,0.29l-2.27,0.23
				l-1.84-1.14l-1.14-2.06l-0.21-2.69l0.17-1.34l0.66-2.69l0.44-1.34l1.11-2.66c0.63-1.3,1.31-2.58,1.99-3.85l0.18-0.66l1.34-2.24
				H463.34 M518.4,152.14l2.24-1.01l0.44-0.33l1.34-0.8l1.34-0.54l2.69-1.57c1.29-0.64,2.65-1.11,4.03-1.49
				c3.07-0.84,6.24-0.92,9.4-0.96l9.4-0.01l-6.75,6.75c-1.76,1.76-3.52,3.52-5.34,5.34c-2.69,2.3-5.37,4.56-8.06,6.82l-4.03,3.26
				l-4.03,3.01l-0.92,1l-1.77,2.06l-0.88,1.81l-0.46,2.19l2.24-0.89l0.44-0.33l1.34-0.61l2.69-1.3c2.69-1.54,5.37-3.18,8.06-4.93
				c3.28-2.36,6.34-4.93,9.4-7.51c1.34-1.14,2.69-2.28,4.03-3.46c1.83-1.65,3.59-3.39,5.32-5.14c1.67-1.7,3.27-3.48,4.71-5.37
				l1.88-2.69l0.81-1.34l0.72-1.34l1.16-2.69l0.45-1.34l0.61-2.68l0.14-2.61l-0.16-1.22l-0.91-2.07l-1.73-1.35l-1.11-0.4l-1.22-0.26
				l-1.29-0.15h-1.32l-2.68-0.56l-2.69-0.34l-2.69-0.09l-1.34,0.09c-1.8,0.2-3.59,0.48-5.37,0.91c-1.35,0.14-2.71,0.35-4.03,0.75
				c-1.39,0.59-2.74,0.97-4.03,1.94c-1.74,0.95-3.23,2.43-4.52,4.1c-0.96,1.27-1.75,2.61-2.55,3.96c-1.05,1.75-2.03,3.55-2.96,5.37
				l-0.71,1.34l-0.78,2.69l-0.26,1.34L518.4,152.14"/>
			<path class="st1" d="M170.43,156.17l-0.12-1.34l-0.47-2.68l-0.82-2.66l-0.54-1.29l-1.34-2.33l-1.38-1.66l-1.92-1.46l0.79-2.24
				l0.08-0.44l0.26-1.34l0.15-2.69l-0.01-1.34l-0.18-2.69l-0.47-2.68l-0.83-2.63l-1.26-2.44l-1.73-2l-2.18-1.37l-0.5-0.33
				l-2.18-0.63l-1.34,2.24l-0.18,0.66l-0.61,1.34l-0.85,2.5c-0.63,2.12-1.04,4.3-1.38,6.68l-0.42,1.78l-0.59,2.24l1.92-0.87
				l0.41-0.43l0.92-0.8l1.19-1.91l0.31-0.54l0.63-2.16l2.23,2.9l0.86,1.34l0.94,2.5l0.74,2.66l0.06,1.34l-0.11,1.34l-0.69,2.69
				l-1.1,2.69l-0.66,1.34l-1.38,2.69c-0.89,1.73-1.72,3.49-2.24,5.37l-0.39,2.69l0.04,1.34l0.24,1.34l1.16,2.38l1.95,1.99l1.03,0.75
				l1.34,0.57l1.34,0.36l2.63,0.09l2.44-0.77l1.07-0.82l0.93-0.96l1.34-2.26l0.41-1.34l0.28-1.34l0.23-2.69L170.43,156.17z
				 M157.12,160.2l0.55-2.21l0.23-0.48l0.39-1.34l1.52-4.03h2.69l1.24,2.21l1.05,1.82l0.39,1.34l0.55,0.48l0.8,2.21H157.12z"/>
			<path class="st1" d="M319.4,161.54c-0.23-2.26-0.66-4.49-1.12-6.72c-0.55-2.69-1.34-5.37-2.07-8.06
				c-0.65-1.84-1.47-3.61-2.32-5.37l-0.69-1.34l-1.64-2.67c-0.95-2.11-2.13-4.05-3.7-6.11l-2.03-1.97l-2.41-1.93l-1.3-0.75
				l-2.66-1.34l-2.68-1.02l-2.69-0.62l-2.69-0.19l-1.34,0.1l-1.34,0.39l-1.34,0.25l-1.34,0.54l-2.4,1.49
				c-1.94,1.46-3.41,3.45-4.81,5.41c-0.85,1.11-1.52,2.26-2.21,3.43l-1.32,2.42c-0.38,1.27-0.76,2.6-1.34,3.92l-0.69,2.68
				l-1.42,4.03c-0.58,1.34-0.91,2.69-1.16,4.03l-0.29,2.69l0.03,1.34l0.12,1.34l0.39,2.69l0.32,2.69l0.53,1.34l0.45,1.34l1.36,2.69
				l2,2.31l1.04,1.03l2.69,1.6l2.69,0.95l2.69,0.33l2.69-0.19l2.69-0.56c2.27-0.55,4.45-1.4,6.72-1.97
				c1.72-0.44,3.59-0.66,5.35-0.33l2.58,0.86l1.21,0.69l1.13,0.85l1.81,1.98l1.16,2.12v2.1l-0.42,1.01l-1.53,2l-2.15,1.59
				c-2.08,1.43-4.25,2.74-6.46,3.96c-3,1.65-6.1,3.17-9.4,4.14c-2.69,0.73-5.08,1.12-7.68,1.22c-2.39,0.09-4.82-0.08-7.15-0.66
				l-1.31-0.35l-2.67-0.97l-1.34-0.6l-2.69-1.34c-1.34-0.74-2.69-1.51-4.03-2.47c-1.5-1.29-2.9-2.81-4.03-4.52
				c-2.04-3.28-2.74-7.06-3.49-10.74c-0.73-3.55-1.51-7.12-1.88-10.74c-0.01-1.79,0-3.58,0-5.37c-0.02-1.79-0.05-3.58-0.22-5.37
				c-0.22-2.25-0.64-4.48-1.11-6.72l-0.79-5.37c-0.31-1.8-0.62-3.59-1.01-5.37c-0.3-1.34-0.89-2.69-1.08-4.03l-0.36-1.34l-0.54-2.69
				l-0.52-4.03l-0.54-2.69c-0.54-1.34-0.8-2.69-1.21-4.03l-1.62-5.37c-0.51-1.78-1-3.57-1.43-5.37c-0.43-1.8-0.82-3.6-1.34-5.37
				c-0.81-2.69-1.91-5.34-2.71-8.06c-0.39-1.33-0.75-2.67-1.02-4.03c-0.61-2.68-0.89-5.37-1.5-8.06c-0.45-1.33-0.66-2.65-1.07-3.95
				l-0.93-2.33l-0.69-1.08l-0.45-0.58l-1.34-1.46l-1.05,2.24l-0.29,0.66l-0.48,1.34l-1.79,5.16l-0.95,2.68l-0.45,1.34l-0.37,1.34
				l-0.39,2.69c-0.07,1.84,0.37,3.6,0.81,5.37l0.93,4.03c0.92,3.13,1.34,6.31,2.38,9.4c1.09,3.64,2.72,7.09,3.76,10.74
				c0.5,1.77,0.84,3.58,1.22,5.37l0.64,2.69l0.77,2.69l1.58,5.37c0.38,1.34,0.76,2.69,1.07,4.03c0.41,1.78,0.67,3.58,1.02,5.37
				l0.84,4.03l1.49,6.72c0.68,2.23,1.16,4.47,1.6,6.72c0.26,1.34,0.52,2.69,0.69,4.03c0.39,3.44,0.37,6.91,0.69,10.36
				c0.18,1.97,0.49,3.92,0.74,5.88l0.67,5.25l0.66,4.03l0.31,2.46c0.31,1.17,0.49,2.34,0.81,3.48c0.47,1.67,1.12,3.46,1.87,4.86
				c0.66,1.35,1.34,2.7,2.27,3.98l2.06,2.4l1.04,1.1l1.34,1l2.69,1.66c1.32,0.68,2.66,1.3,4.03,1.9c2.17,0.88,4.4,1.72,6.72,2.18
				c2.22,0.51,4.46,0.51,6.72,0.51h2.69l2.69-0.25c1.34-0.17,2.69-0.44,4.03-0.81c1.34-0.29,2.69-0.89,4.03-1.4
				c1.34-0.52,2.69-1.11,4.03-1.58c2.3-1.25,4.54-2.47,6.72-3.8c1.83-1.12,3.65-2.28,5.31-3.63c1.29-1.05,2.48-1.98,3.56-3.32
				l1.87-2.69l1.34-2.69l0.87-1.34l1.08-2.69l0.74-2.69c0.71-2.21,1.07-4.46,1.34-6.72c0.56-2.68,1.04-5.35,1.22-8.06
				c0.12-1.79,0.12-3.58,0.11-5.37C319.62,165.12,319.58,163.33,319.4,161.54z M292.76,153.49l-2.68,0.45l-1.34,0.15l-1.34,0.04
				l-2.69-0.42l-0.91-0.52l-0.94-0.72l-1.17-1.92l-0.16-1.09l0.16-1.1l0.33-1.03l1.78-1.67l2.25-0.99l1.34-0.26l2.69-0.09l1.34,0.16
				l1.34,0.3l2.61,1.04l2.33,1.5l1.08,1.02l0.58,0.48l1.46,1.97C298.14,151.78,295.46,152.8,292.76,153.49z"/>
			<path class="st1" d="M83.26,156.17l-1.05,2.24l-0.29,0.66l-0.48,1.34l-2.21,6.5c-0.73,2.23-1.46,4.46-2.11,6.72
				c-0.57,1.34-0.72,2.69-1.04,4.03c-0.42,1.78-0.88,3.57-1.12,5.37c-0.31,1.78-0.56,3.56-0.46,5.37l0.36,2.69l0.33,1.34l0.85,2.69
				l0.51,1.34l1.34,2.69l2.69-0.42l1.34-0.39l1.34-0.53l2.41-1.77l1.1-0.92l1-1.34l1.63-2.69l1.18-2.65l0.75-2.5l1.34-4.24
				l-1.87,0.88l-0.44,0.46l-0.98,0.79l-0.8,0.9l-1.87,1.99l-2.1,1.69l-1.81,0.88l-2.22,0.46l-0.53-2.24l-0.19-0.44l-0.63-2.69
				l-0.25-2.69c-0.06-1.81,0.22-3.6,0.55-5.37c0.25-1.34,0.57-2.69,0.9-4.03c0.45-1.81,0.98-3.59,1.48-5.37l0.88-2.68l0.74-2.61
				l0.41-2.33l-0.07-1.08l0.03-0.58L83.26,156.17"/>
			<path class="st1" d="M832.28,185.72l-0.95-5.37c-0.24-2.24-0.45-4.5-0.97-6.72c-0.43-1.83-1.02-3.62-1.71-5.37l-1.57-4.03
				l-1.25-2.69c-1.22-2.26-2.24-4.5-3.41-6.71l-0.77-1.34l-1.81-2.62l-2.19-2.39l-1.22-1.04l-1.27-0.91l-2.64-1.47l-2.68-0.97
				l-1.34-0.52l-2.69-0.52l-2.69-0.1l-1.34,0.12l-1.34,0.25l-2.69,0.89l-2.69,1.42l-2.69,1.86l-2.43,2.22l-2.19,2.49l-1.8,2.64
				c-0.79,1.34-1.63,2.68-2.06,4.02c-0.56,1.34-1.09,2.69-1.56,4.03c-0.46,1.34-0.85,2.69-1.25,4.03c-0.39,1.34-0.8,2.69-1.13,4.03
				c-0.32,1.34-0.61,2.69-0.71,4.03l-0.01,2.69l0.37,2.69l0.69,2.69l1.26,2.69l0.84,1.34l0.99,1.34l2.28,2.19l2.46,1.84l1.18,0.35
				l2.3,0.61c2.05,0.39,4.1,0.39,6.15,0.14c1.82-0.15,3.59-0.53,5.37-0.78l2.69-0.32l2.69-0.28l1.34-0.06l1.34-0.02l2.68,0.36
				l2.66,0.64l2.44,1.52l1,1l1.12,2.32l-0.5,2.57l-0.63,1.34l-1,0.98l-1.17,1.04l-1.27,0.93l-1.32,0.83
				c-1.76,1.02-3.56,1.99-5.37,2.93c-1.75,0.91-3.51,1.85-5.37,2.69c-3.06,0.95-6.23,1.76-9.4,2.69c-1.77,0.25-3.55,0.7-5.37,0.89
				c-1.35,0.14-2.69,0.14-4.03-0.04l-2.69-0.59l-1.34-0.26l-1.34-0.77l-1.34-0.57l-2.69-1.91l-1.34-1.08l-2.18-2.38l-1.98-2.69
				l-1.71-2.69c-0.85-1.32-1.57-2.64-2.21-4.03l-1.32-2.69l-0.39-1.34c-0.62-1.77-1.2-3.55-1.64-5.37c-0.66-2.21-0.8-4.46-1.07-6.72
				l-0.62-5.37l-0.31-2.69l-0.38-4.03c-0.3-2.24-0.69-4.46-0.96-6.72c-0.06-2.68,0-5.37-0.12-8.06c-0.16-2.26-0.54-4.48-0.86-6.72
				l-0.73-5.37c-0.26-1.79-0.58-3.57-0.75-5.37c-0.3-3.13-0.23-6.28-0.46-9.4c-0.39-3.64-1.47-7.14-2.07-10.74l-0.75-5.37
				c-0.34-2.16-0.75-4.32-1.03-6.49c-0.25-1.94-0.35-3.9-0.68-5.83c-0.36-2.18-0.91-4.33-1.39-6.49l-1.44-6.72l-1.31-5.37
				l-1.35-5.37c-0.5-1.8-0.95-3.59-1.5-5.37l-0.98-2.69l-1.26-2.68l-0.78-1.33l-0.84-1.29l-1.92-2.33l-1.27-1.08l-0.5-0.58
				l-2.18-1.46l-1.5,2.24l-0.3,0.66l-0.88,1.34c-0.76,2.14-1.59,4.32-2.43,6.5l-2.01,5.37l-1.56,4.47l-0.72,2.24h6.72l0.31,2.24
				l0.55,2l2.45,6.5c0.47,1.34,0.73,2.69,1.27,4.03c0.53,1.78,1.05,3.57,1.5,5.37l1.83,8.06c0.74,3.13,1.5,6.24,2.24,9.4l0.95,5.37
				l1,6.33l1.34,7.15c0.38,1.78,0.78,3.55,1.18,5.32l0.89,4.03c0.42,2.22,0.62,4.47,0.98,6.72c0.25,1.79,0.58,3.57,0.75,5.37
				c0.22,2.23,0.18,4.48,0.23,6.72l0.38,2.69c0.24,1.79,0.55,3.57,0.73,5.37c0.22,2.69,0.22,5.12,0.54,7.67
				c0.13,1.16,0.3,2.31,0.53,3.45l1.17,5.01c0.45,2.22,0.67,4.47,1.09,6.69c0.24,1.36,0.6,2.69,0.93,4.03l1.03,4.03
				c0.54,2.25,1.01,4.51,1.65,6.72c0.51,1.37,1,2.72,1.59,4.03c0.83,1.85,1.83,3.62,2.84,5.37c0.78,1.34,1.58,2.69,2.28,4.03
				l1.97,2.43l2.05,2.19l1.34,0.95l2.69,1.57l2.69,1.12l1.34,0.4l2.69,0.5c1.77,0.25,3.59,0.25,5.37,0.25
				c2.24,0,4.49,0.01,6.72-0.23c2.28-0.24,4.5-0.75,6.72-1.11c1.82-0.68,3.62-1.28,5.37-1.97c3.28-1.29,6.37-2.98,9.4-4.75
				l3.98-2.43l1.27-0.82l2.35-1.71l1.04-0.89l1.75-1.88c0.79-1,1.4-2.13,1.99-3.25c0.65-1.1,1.05-2.44,1.85-3.78
				c0.81-1.77,1.63-3.52,2.17-5.37c0.66-2.21,1.05-4.45,1.57-6.72c0.24-1.34,0.47-2.68,0.6-4.03c0.13-1.34,0.18-2.68,0.16-4.03
				C832.57,188.41,832.46,187.06,832.28,185.72z M809.05,169.6l-0.59,0.8l-1.73,1.34l-2.34,0.92l-1.29,0.32l-2.66,0.39l-1.34,0.26
				l-2.69-0.45l-1.34-0.37l-1.34-0.53l-0.89-0.81l-1.56-1.88l-0.34-1.34v-1.18l0.34-1.11l0.65-0.99l1.8-1.5l2.69-0.85l1.34-0.2
				l1.34-0.03l1.34,0.13l2.66,0.75c1.35,0.5,2.6,1.26,3.85,1.96l0.66,0.4l2.24,1.27L809.05,169.6z"/>
			<path class="st1" d="M163.84,244.81l-1.46-1.8l-0.58-0.49l-1.08-1.02l-2.33-1.71l-1.29-0.74l-2.66-0.89l-1.34-0.02l-1.34,0.3
				l-1.34,0.6l-2.69,1.85l-1.34,1.24c-1.34,0.95-2.45,2.04-3.58,3.25l-1.56,2.3l-0.36,1.17l-0.03,1.34l0.82,2l0.68,1.01l1.99,1.88
				l2.27,1.83l1.11,0.71l2.69,1.39l2.69,0.91l2.69,0.15l1.34-0.27l2.68-1.22l1.32-0.91l1.29-1.06l2.34-2.38l1.73-2.48l0.92-2
				l0.46-2.24l2,1.53l3.79,3.17l3.61,3.07l2.69,2.02c1.99,1.37,4.03,2.84,6.72,2.81c1.98-0.03,3.75-0.99,5.35-1.86
				c1.35-1.11,2.55-2.18,3.74-3.28l1.05-1.14l0.88-1.18l0.64-1.11l0.39-2.65c-0.2-1.92-1.51-3.54-2.86-4.82
				c-1.21-1.16-2.51-2.22-3.82-3.27c-1.34-1.06-2.68-2.1-4.02-3.08l-2.69-1.64l-2.69-0.66h-1.34l-1.34,0.23l-2.69,1.55l-1.34,1.06
				c-1.34,1.18-2.69,2.28-4.03,3.24l-2.69,1.49l-2.69,0.91l-0.44,0.16L163.84,244.81 M455.28,200.49l-2.09,2.24l-0.59,0.66
				l-1.87,2.53l-1.6,2.63l-0.68,1.34c-0.82,1.76-1.57,3.55-2.25,5.37c-0.66,1.77-1.24,3.55-1.75,5.37l-0.61,2.69
				c-0.28,1.34-0.63,2.69-0.63,4.03c0,1.78-0.01,3.59,0,5.37c0.23,1.34,0.37,2.69,0.77,4.03l1,2.16l0.73,1l1.91,1.6l2.31,1.01
				l1.34,0.23l2.56-0.22l2.37-1.22l2.07-1.85l1.76-2.69l1.48-2.68l0.51-1.31l1.2-2.5l0.5-1.34l0.98-2.9l-2,0.87l-1.67,1.19
				l-0.99,0.79c-1.06,0.75-2.15,1.64-3.46,1.93l-1.29,0.14l-1.99-0.74l-0.83-0.8l-0.62-1l-0.59-1.03l-0.1-1.28l-0.17-2.37
				c-0.02-1.16,0.1-2.3,0.23-3.45l0.03-1.19l0.46-1.11l0.82-2.69l1.11-2.69c0.8-1.77,1.63-3.53,2.35-5.34l0.91-2.5l0.38-1.34
				l0.2-0.66l0.48-2.24H455.28"/>
		</g>
		<g>
			<path class="st1" d="M1001.27,213.17h-6.64c-5.61,0-9.51-1.11-11.73-3.32c-0.59-0.59-2.07-3.17-4.43-7.75
				c-25.38,12.99-48.92,19.48-70.61,19.48c-16.23,0-29.36-3.43-39.4-10.29c-10.04-6.86-15.05-16.34-15.05-28.44
				c0-9.44,3.98-20.29,11.95-32.54l2.66,1.33c-3.84,6.64-5.76,11.58-5.76,14.83c0,9.74,4.94,17.27,14.83,22.58
				c9.88,5.31,23.16,7.97,39.84,7.97c20.51,0,36-2.06,46.48-6.2c7.08-2.8,12.84-7.23,17.27-13.28l1.99,0.66
				c0.74,5.46,2.73,8.86,5.98,10.18c1.77,0.74,5.97,1.11,12.61,1.11V213.17z M936.65,244.6l-8.19,15.5l-12.84-10.4l7.3-14.39
				L936.65,244.6z"/>
			<path class="st1" d="M1040.45,213.17c-6.49-0.29-10.7-1.03-12.62-2.21c-1.92-1.18-4.72-4.87-8.41-11.07
				c-4.58,6.94-7.49,10.77-8.75,11.51s-5.57,1.33-12.95,1.77v-23.68c9.15,0,15.27-0.66,18.37-1.99c3.1-1.33,6.64-4.65,10.62-9.96
				l1.33,0.66c0.88,4.87,2.07,7.82,3.54,8.86c1.03,0.88,3.98,1.7,8.85,2.43V213.17z M1041.11,152.09l-7.96,14.39l-13.95-9.52
				l-7.31,12.39l-12.83-9.29l7.75-15.05l13.72,9.3l6.86-12.17L1041.11,152.09z"/>
			<path class="st1" d="M1142.04,213.17c-7.08-0.44-16.01-5.53-26.78-15.27c-8.27-8.26-16.53-16.52-24.79-24.79
				c1.32,4.72,1.99,8.93,1.99,12.62c0,10.33-3.69,17.63-11.07,21.91c-6.2,3.69-15.87,5.53-29,5.53h-15.27v-23.68h21.02
				c18.44,0,27.67-2.73,27.67-8.19c0-3.24-3.69-7.23-11.07-11.95c-12.25-8.11-18.96-12.69-20.15-13.72
				c-7.38-6.05-11.07-12.17-11.07-18.37c0-24.35,31.28-48.32,93.85-71.93c-2.95,11.81-4.87,18.45-5.76,19.92
				c-1.77,2.8-7.01,6.27-15.71,10.4c-20.07,9.29-36.08,17.04-48.03,23.24c-12.55,6.49-18.82,11.21-18.82,14.16
				c0,1.33,2.95,2.96,8.86,4.87c9.15,2.95,17.78,6.86,25.9,11.73c11.95,7.23,22.94,15.35,32.97,24.35
				c7.97,7.38,14.98,12.32,21.03,14.83c1.03,0,2.43,0.22,4.2,0.66V213.17z"/>
			<path class="st1" d="M1197.82,182.41c0,6.05-1.29,11.03-3.87,14.94c-2.59,3.91-6.16,5.87-10.74,5.87c-3.54,0-7.68-1.03-12.39-3.1
				c-3.84-1.92-7.75-3.84-11.73-5.76c-3.69,8.26-5.83,12.76-6.42,13.5c-2.51,2.96-6.94,4.72-13.28,5.31v-23.68
				c8.11-0.44,14.16-4.13,18.15-11.07c2.51-6.34,5.12-12.8,7.86-19.37c2.73-6.56,6.97-9.85,12.73-9.85c5.01,0,9.55,3.51,13.61,10.51
				C1195.78,166.73,1197.82,174.3,1197.82,182.41z M1184.98,178.43c0-2.66-1.08-4.98-3.21-6.97c-2.14-1.99-4.68-2.99-7.63-2.99
				c-3.25,0-6.05,2.21-8.41,6.64c0.59,0.3,2.35,1.26,5.31,2.88c2.07,1.18,3.95,2.1,5.64,2.77c1.69,0.66,3.43,1,5.2,1
				C1183.95,181.75,1184.98,180.64,1184.98,178.43z"/>
		</g>
	</g>
</g>
</svg>
