<?xml version="1.0" encoding="utf-8"?>
<!-- Generator: Adobe Illustrator 23.1.0, SVG Export Plug-In . SVG Version: 6.00 Build 0)  -->
<svg version="1.1" id="Layer_1" xmlns="http://www.w3.org/2000/svg" xmlns:xlink="http://www.w3.org/1999/xlink" x="0px" y="0px"
	 viewBox="0 0 1760.7 347.1" style="enable-background:new 0 0 1760.7 347.1;" xml:space="preserve">
<style type="text/css">
	.st0{fill:#FFFFFF;}
</style>
<g>
	<g>
		<path class="st0" d="M816.3,269v23.7c0,2.2-0.5,4.2-1.3,6c-0.9,1.8-2.1,3.4-3.5,4.6c-1.5,1.3-3.1,2.3-5,3
			c-1.9,0.7-3.8,1.1-5.7,1.1c-2,0-3.9-0.4-5.8-1.1s-3.5-1.7-5-3c-1.5-1.3-2.7-2.9-3.5-4.6c-0.9-1.8-1.3-3.8-1.3-6v-12.8h8.2v12.7
			c0,1.2,0.2,2.2,0.6,3c0.4,0.9,1,1.6,1.7,2.1c0.7,0.6,1.5,1,2.4,1.3c0.9,0.3,1.8,0.5,2.8,0.5c0.9,0,1.8-0.1,2.7-0.4
			c0.9-0.3,1.7-0.7,2.4-1.3c0.7-0.6,1.3-1.3,1.7-2.2c0.4-0.9,0.6-1.9,0.6-3V269H816.3z M797.8,260.8l5.9,5.8l-5.9,5.8l-5.8-5.8
			L797.8,260.8z"/>
		<path class="st0" d="M822.9,299c1.3,0.5,2.8,0.9,4.3,1.1c1.5,0.2,3,0.1,4.3-0.3c1.4-0.3,2.5-1,3.5-1.9c1-0.9,1.7-2.1,2-3.8
			c-1.3,0.5-2.6,0.7-3.9,0.8c-1.3,0-2.5-0.1-3.7-0.5s-2.3-0.9-3.3-1.6s-1.9-1.5-2.7-2.5s-1.4-2.1-1.8-3.3c-0.4-1.2-0.6-2.5-0.6-3.9
			v-7.1c0-1.7,0.3-3.4,1-4.9s1.6-2.9,2.7-4c1.2-1.1,2.5-2,4-2.7c1.5-0.7,3.2-1,4.9-1s3.4,0.3,4.9,1s2.9,1.6,4,2.7
			c1.2,1.1,2.1,2.5,2.7,4s1,3.2,1,4.9v6.4c0,2.5-0.1,4.9-0.4,7.3c-0.2,2.4-0.7,4.6-1.3,6.6c-0.6,2-1.5,3.9-2.6,5.5
			c-1.1,1.6-2.5,3-4.2,3.9s-3.8,1.6-6.2,1.9s-5.3,0.1-8.6-0.6L822.9,299L822.9,299z M829.1,276.3v6c0,0.7,0.1,1.4,0.4,2s0.6,1,1,1.4
			c0.4,0.4,0.9,0.7,1.4,0.9c0.5,0.2,1.1,0.3,1.7,0.4c0.6,0,1.1,0,1.7-0.2c0.5-0.2,1-0.5,1.5-0.8c0.4-0.4,0.8-0.9,1-1.5
			c0.3-0.6,0.4-1.3,0.4-2.1v-6c0-0.8-0.1-1.5-0.4-2.1c-0.3-0.6-0.6-1.1-1-1.5c-0.4-0.4-0.9-0.7-1.5-0.9c-0.5-0.2-1.1-0.3-1.7-0.2
			c-0.6,0-1.1,0.1-1.7,0.4c-0.5,0.2-1,0.5-1.4,0.9c-0.4,0.4-0.8,0.9-1,1.5C829.2,274.9,829.1,275.5,829.1,276.3z"/>
		<path class="st0" d="M867.8,268.9c1.7,1.5,3.1,3.2,4.1,5.3c1,2.1,1.8,4.3,2.2,6.7c0.4,2.4,0.5,4.8,0.3,7.3
			c-0.2,2.5-0.7,4.9-1.5,7.2s-1.9,4.4-3.2,6.3c-1.3,1.9-2.9,3.4-4.8,4.5c-1.8,1.1-4,1.8-6.3,2.1c-2.3,0.2-4.9-0.1-7.7-1.2V299
			c2,0.8,3.9,1.2,5.5,1.1s3-0.5,4.2-1.1c1.2-0.7,2.2-1.6,3-2.9s1.5-2.6,1.9-4.1c0.4-1.5,0.7-3.1,0.8-4.8c0.1-1.7,0-3.3-0.3-5
			s-0.7-3.2-1.3-4.7c-0.6-1.5-1.4-2.8-2.3-3.8L867.8,268.9z"/>
		<path class="st0" d="M880.7,253.6h8.1v28.6c0,0.7,0.1,1.4,0.4,2s0.6,1,1,1.4c0.4,0.4,0.9,0.7,1.5,0.9c0.5,0.2,1.1,0.3,1.7,0.3v8.1
			c-1.7,0-3.4-0.3-4.9-1s-2.9-1.6-4-2.7c-1.2-1.1-2-2.5-2.7-4c-0.7-1.5-1-3.2-1-4.9L880.7,253.6L880.7,253.6z"/>
		<path class="st0" d="M940,269v13.3c0,0.7,0.1,1.4,0.4,2s0.6,1,1,1.4s0.9,0.7,1.4,0.9c0.5,0.2,1.1,0.3,1.7,0.3v8.1
			c-1.7,0-3.2-0.3-4.7-0.9c-1.5-0.6-2.8-1.4-3.9-2.5c-1.1,1-2.4,1.9-3.8,2.4c-1.4,0.6-3,0.9-4.6,0.9c-1.7,0-3.2-0.3-4.7-0.9
			c-1.5-0.6-2.8-1.4-3.9-2.5c-1.3,1.1-2.6,1.9-4,2.4c-1.4,0.5-2.9,0.8-4.6,0.9c-1.6,0-3.1-0.3-4.6-0.9c-1.5-0.6-2.8-1.4-4-2.5
			c-1.1,1-2.4,1.9-3.9,2.5c-1.5,0.6-3,0.9-4.7,0.9v-8.1c0.6,0,1.1-0.1,1.7-0.3c0.5-0.2,1-0.5,1.5-0.9s0.8-0.9,1-1.4s0.4-1.2,0.4-2
			V269h8.1v13.3c0,0.7,0.1,1.4,0.4,1.9s0.6,1,1,1.4s0.9,0.7,1.4,0.9c0.5,0.2,1.1,0.3,1.6,0.3c0.6,0,1.1-0.1,1.7-0.3
			c0.5-0.2,1-0.5,1.4-0.9c0.4-0.4,0.8-0.9,1-1.4c0.3-0.6,0.4-1.2,0.4-1.9V269h8.1v13.3c0,0.7,0.1,1.4,0.4,1.9s0.6,1,1,1.4
			c0.4,0.4,0.9,0.7,1.4,0.9c0.5,0.2,1.1,0.3,1.6,0.4c0.6,0,1.1-0.1,1.6-0.4s1-0.5,1.4-0.9s0.8-0.9,1-1.4s0.4-1.2,0.4-1.9V269H940z
			 M914,252.8l4.9,4.9l4.8-4.9l5.8,5.8l-5.8,5.8l-4.8-4.8l-4.9,4.8l-5.8-5.8L914,252.8z M918.9,242.3l5.9,5.8l-5.9,5.8l-5.8-5.8
			L918.9,242.3z"/>
		<path class="st0" d="M948.1,252.8l4.9,4.9l4.9-4.9l5.8,5.8l-5.8,5.8l-4.9-4.8l-4.9,4.8l-5.8-5.8L948.1,252.8z M957.2,282.3
			c0,0.7,0.1,1.4,0.4,2s0.6,1,1,1.4s0.9,0.7,1.4,0.9c0.5,0.2,1.1,0.3,1.7,0.3v8.1c-1.7,0-3.2-0.3-4.7-0.9c-1.5-0.6-2.8-1.4-3.9-2.5
			c-1.1,1-2.4,1.9-3.9,2.5c-1.5,0.6-3,0.9-4.7,0.9v-8.1c0.6,0,1.1-0.1,1.7-0.3c0.5-0.2,1-0.5,1.5-0.9s0.8-0.9,1-1.4s0.4-1.2,0.4-2
			V269h8.1L957.2,282.3L957.2,282.3z"/>
		<path class="st0" d="M1008.3,269v13.3c0,0.7,0.1,1.4,0.4,2s0.6,1,1,1.4s0.9,0.7,1.4,0.9c0.5,0.2,1.1,0.3,1.7,0.3v8.1
			c-1.7,0-3.2-0.3-4.7-0.9c-1.5-0.6-2.8-1.4-3.9-2.5c-1.1,1-2.4,1.9-3.8,2.4c-1.4,0.6-3,0.9-4.6,0.9c-1.7,0-3.2-0.3-4.7-0.9
			c-1.5-0.6-2.8-1.4-3.9-2.5c-1.3,1.1-2.6,1.9-4,2.4c-1.4,0.5-2.9,0.8-4.6,0.9c-1.6,0-3.1-0.3-4.6-0.9c-1.5-0.6-2.8-1.4-4-2.5
			c-1.1,1-2.4,1.9-3.9,2.5c-1.5,0.6-3,0.9-4.7,0.9v-8.1c0.6,0,1.1-0.1,1.7-0.3c0.5-0.2,1-0.5,1.5-0.9s0.8-0.9,1-1.4s0.4-1.2,0.4-2
			V269h8.1v13.3c0,0.7,0.1,1.4,0.4,1.9s0.6,1,1,1.4s0.9,0.7,1.4,0.9c0.5,0.2,1.1,0.3,1.6,0.3c0.6,0,1.1-0.1,1.7-0.3
			c0.5-0.2,1-0.5,1.4-0.9c0.4-0.4,0.8-0.9,1-1.4c0.3-0.6,0.4-1.2,0.4-1.9V269h8.1v13.3c0,0.7,0.1,1.4,0.4,1.9s0.6,1,1,1.4
			c0.4,0.4,0.9,0.7,1.4,0.9c0.5,0.2,1.1,0.3,1.6,0.4c0.6,0,1.1-0.1,1.6-0.4s1-0.5,1.4-0.9s0.8-0.9,1-1.4s0.4-1.2,0.4-1.9V269H1008.3
			z"/>
		<path class="st0" d="M1012.8,286.9c0.8,0,1.5,0,2.1-0.2s1.2-0.4,1.7-0.8c0.5-0.4,0.8-0.9,1.1-1.4c0.3-0.6,0.4-1.3,0.4-2.2v-6.2
			c0-1.7,0.3-3.4,1-4.9s1.6-2.9,2.7-4c1.2-1.1,2.5-2,4-2.7s3.2-1,4.9-1s3.4,0.3,4.9,1s2.9,1.6,4,2.7c1.2,1.1,2.1,2.5,2.7,4
			c0.7,1.5,1,3.2,1,4.9v6.3c0,1.7-0.3,3.4-1,4.9s-1.6,2.9-2.7,4s-2.5,2.1-4,2.7c-1.5,0.7-3.2,1-4.9,1c-1.7,0-3.2-0.3-4.7-0.9
			c-1.5-0.6-2.8-1.4-3.9-2.5c-1.4,1.3-2.8,2.2-4.3,2.6c-1.5,0.5-3.2,0.7-5,0.7L1012.8,286.9L1012.8,286.9z M1026.2,276.3v6
			c0,0.7,0.1,1.4,0.4,2s0.6,1,1,1.4c0.4,0.4,0.9,0.7,1.5,0.9c0.5,0.2,1.1,0.3,1.7,0.4c0.6,0,1.1,0,1.7-0.2c0.5-0.2,1-0.5,1.5-0.8
			c0.4-0.4,0.8-0.9,1-1.5c0.3-0.6,0.4-1.3,0.4-2.1v-6c0-0.8-0.1-1.5-0.4-2.1c-0.3-0.6-0.6-1.1-1-1.5c-0.4-0.4-0.9-0.7-1.5-0.9
			c-0.5-0.2-1.1-0.3-1.7-0.2s-1.1,0.1-1.7,0.4c-0.5,0.2-1,0.5-1.5,0.9c-0.4,0.4-0.8,0.9-1,1.5
			C1026.4,274.9,1026.2,275.5,1026.2,276.3z"/>
		<path class="st0" d="M1094.5,269v23.7c0,2.2-0.4,4.2-1.3,6c-0.9,1.8-2.1,3.4-3.5,4.6c-1.5,1.3-3.1,2.3-5,3
			c-1.9,0.7-3.8,1.1-5.7,1.1c-2,0-3.9-0.4-5.8-1.1s-3.6-1.7-5-3c-1.5-1.3-2.7-2.9-3.6-4.6c-0.9-1.8-1.3-3.8-1.3-6v-12.8h8.2v12.7
			c0,1.2,0.2,2.2,0.6,3c0.4,0.9,1,1.6,1.7,2.1s1.5,1,2.4,1.3c0.9,0.3,1.8,0.5,2.8,0.5c0.9,0,1.8-0.1,2.8-0.4
			c0.9-0.3,1.7-0.7,2.4-1.3c0.7-0.6,1.3-1.3,1.7-2.2c0.4-0.9,0.6-1.9,0.6-3V269H1094.5z M1075.9,260.8l5.9,5.8l-5.9,5.8l-5.8-5.8
			L1075.9,260.8z"/>
		<path class="st0" d="M1129.2,295h-6c-0.7,2.8-1.7,5-3.2,6.9c-1.5,1.8-3.2,3.2-5.2,4.2s-4.2,1.6-6.5,1.7s-4.8,0-7.2-0.6v-8.1
			c1.3,0.5,2.6,0.9,4.1,1.1c1.5,0.2,2.8,0.1,4.2-0.1c1.3-0.3,2.5-0.8,3.5-1.6c1-0.8,1.7-1.9,2.2-3.4c-0.9,0.2-1.9,0.2-3,0.2
			c-1.1,0-2.3-0.2-3.5-0.4c-1.2-0.3-2.3-0.7-3.5-1.2c-1.1-0.5-2.1-1.3-3-2.2c-0.9-0.9-1.6-2.1-2.1-3.4c-0.5-1.3-0.8-2.9-0.8-4.8
			v-7.1c0-1.7,0.3-3.4,1-4.9s1.6-2.9,2.7-4c1.1-1.1,2.5-2,4-2.7s3.2-1,4.9-1s3.4,0.3,4.9,1s2.9,1.6,4,2.7c1.2,1.1,2.1,2.5,2.7,4
			c0.7,1.5,1,3.2,1,4.9c0,2,0,3.6,0,4.8c0,1.2,0,2.2,0,3c0,0.8,0,1.4,0,1.8c0,0.4,0,0.8-0.1,1.2h4.9L1129.2,295L1129.2,295z
			 M1107.3,276.3v6c0,0.7,0.1,1.4,0.4,2s0.6,1,1,1.4c0.4,0.4,0.9,0.7,1.4,0.9c0.5,0.2,1.1,0.3,1.7,0.4h4.5v-10.7
			c0-0.8-0.1-1.5-0.4-2.1c-0.3-0.6-0.6-1.1-1-1.5c-0.4-0.4-0.9-0.7-1.5-0.9c-0.6-0.2-1.1-0.3-1.7-0.2c-0.6,0-1.1,0.1-1.7,0.4
			c-0.5,0.2-1,0.5-1.4,0.9c-0.4,0.4-0.8,0.9-1,1.5C1107.4,274.9,1107.3,275.5,1107.3,276.3z"/>
		<path class="st0" d="M1132.8,299.3l4.9,4.9l4.9-4.9l5.8,5.8l-5.8,5.8l-4.9-4.8l-4.9,4.8l-5.8-5.8L1132.8,299.3z M1141.8,282.3
			c0,0.7,0.1,1.4,0.4,2s0.6,1,1,1.4s0.9,0.7,1.4,0.9c0.6,0.2,1.1,0.3,1.7,0.3v8.1c-1.7,0-3.2-0.3-4.7-0.9c-1.5-0.6-2.8-1.4-3.9-2.5
			c-1.1,1-2.4,1.9-3.9,2.5c-1.5,0.6-3,0.9-4.7,0.9v-8.1c0.6,0,1.1-0.1,1.7-0.3c0.6-0.2,1-0.5,1.5-0.9c0.4-0.4,0.8-0.9,1-1.4
			c0.3-0.6,0.4-1.2,0.4-2V269h8.1L1141.8,282.3L1141.8,282.3z"/>
		<path class="st0" d="M1158.9,269v13.4c0,1.7-0.3,3.4-1,4.9s-1.6,2.9-2.7,4c-1.2,1.1-2.5,2-4,2.7s-3.2,1-4.9,1v-8.1
			c0.6,0,1.1-0.1,1.7-0.3c0.6-0.2,1-0.5,1.5-0.9c0.4-0.4,0.8-0.9,1-1.4c0.3-0.6,0.4-1.2,0.4-2V269H1158.9z M1155,253l5.8,5.8
			l-5.8,5.8l-5.8-5.8L1155,253z"/>
		<path class="st0" d="M1193.7,295h-6c-0.7,2.8-1.7,5-3.2,6.9c-1.5,1.8-3.2,3.2-5.2,4.2s-4.2,1.6-6.5,1.7s-4.8,0-7.2-0.6v-8.1
			c1.3,0.5,2.6,0.9,4.1,1.1c1.5,0.2,2.8,0.1,4.2-0.1c1.3-0.3,2.5-0.8,3.5-1.6c1-0.8,1.7-1.9,2.2-3.4c-0.9,0.2-1.9,0.2-3,0.2
			c-1.1,0-2.3-0.2-3.5-0.4c-1.2-0.3-2.3-0.7-3.5-1.2c-1.1-0.5-2.1-1.3-3-2.2c-0.9-0.9-1.6-2.1-2.1-3.4c-0.5-1.3-0.8-2.9-0.8-4.8
			v-7.1c0-1.7,0.3-3.4,1-4.9s1.6-2.9,2.7-4c1.1-1.1,2.5-2,4-2.7s3.2-1,4.9-1s3.4,0.3,4.9,1s2.9,1.6,4,2.7c1.2,1.1,2.1,2.5,2.7,4
			c0.7,1.5,1,3.2,1,4.9c0,2,0,3.6,0,4.8c0,1.2,0,2.2,0,3c0,0.8,0,1.4,0,1.8c0,0.4,0,0.8-0.1,1.2h4.9L1193.7,295L1193.7,295z
			 M1171.7,276.3v6c0,0.7,0.1,1.4,0.4,2s0.6,1,1,1.4c0.4,0.4,0.9,0.7,1.4,0.9c0.5,0.2,1.1,0.3,1.7,0.4h4.5v-10.7
			c0-0.8-0.1-1.5-0.4-2.1c-0.3-0.6-0.6-1.1-1-1.5c-0.4-0.4-0.9-0.7-1.5-0.9c-0.6-0.2-1.1-0.3-1.7-0.2c-0.6,0-1.1,0.1-1.7,0.4
			c-0.5,0.2-1,0.5-1.4,0.9c-0.4,0.4-0.8,0.9-1,1.5C1171.8,274.9,1171.7,275.5,1171.7,276.3z"/>
		<path class="st0" d="M1206.3,269v13.4c0,1.7-0.3,3.4-1,4.9s-1.6,2.9-2.7,4c-1.2,1.1-2.5,2-4,2.7s-3.2,1-4.9,1v-8.1
			c0.6,0,1.1-0.1,1.7-0.3c0.6-0.2,1-0.5,1.5-0.9c0.4-0.4,0.8-0.9,1-1.4c0.3-0.6,0.4-1.2,0.4-2V269H1206.3z M1202.3,253l5.8,5.8
			l-5.8,5.8l-5.8-5.8L1202.3,253z"/>
		<path class="st0" d="M1212.4,253.6h8.1v28.6c0,0.7,0.1,1.4,0.4,2s0.6,1,1,1.4s0.9,0.7,1.5,0.9c0.6,0.2,1.1,0.3,1.7,0.3v8.1
			c-1.7,0-3.4-0.3-4.9-1s-2.9-1.6-4-2.7c-1.2-1.1-2.1-2.5-2.7-4c-0.7-1.5-1-3.2-1-4.9V253.6z"/>
		<path class="st0" d="M1225,295v-8.1h5.7c-0.3-0.7-0.5-1.4-0.6-2.1s-0.2-1.5-0.2-2.3v-6.3c0-1.7,0.3-3.4,1-4.9
			c0.7-1.5,1.6-2.9,2.7-4c1.2-1.1,2.5-2,4-2.7s3.2-1,4.9-1s3.4,0.3,4.9,1s2.9,1.6,4,2.7c1.1,1.1,2.1,2.5,2.7,4c0.7,1.5,1,3.2,1,4.9
			v6.3c0,1.7-0.3,3.4-1,4.9s-1.6,2.9-2.7,4c-1.2,1.2-2.5,2.1-4,2.7c-1.5,0.7-3.2,1-4.9,1L1225,295z M1237.7,247.5l4.9,4.9l4.8-4.9
			l5.8,5.8l-5.8,5.8l-4.8-4.8l-4.9,4.8l-5.8-5.8L1237.7,247.5z M1238,276.3v6c0,0.7,0.1,1.4,0.4,2s0.6,1,1,1.4
			c0.4,0.4,0.9,0.7,1.5,0.9c0.6,0.2,1.1,0.3,1.7,0.4c0.6,0,1.1,0,1.7-0.2c0.6-0.2,1-0.5,1.5-0.8c0.4-0.4,0.8-0.9,1-1.5
			c0.3-0.6,0.4-1.3,0.4-2.1v-6c0-0.8-0.1-1.5-0.4-2.1c-0.3-0.6-0.6-1.1-1-1.5c-0.4-0.4-0.9-0.7-1.5-0.9c-0.5-0.2-1.1-0.3-1.7-0.2
			c-0.6,0-1.1,0.1-1.7,0.4c-0.5,0.2-1,0.5-1.5,0.9c-0.4,0.4-0.8,0.9-1,1.5C1238.1,274.9,1238,275.5,1238,276.3z"/>
		<path class="st0" d="M1306.3,269v23.7c0,2.2-0.4,4.2-1.3,6c-0.9,1.8-2.1,3.4-3.5,4.6c-1.5,1.3-3.1,2.3-5,3
			c-1.9,0.7-3.8,1.1-5.7,1.1c-2,0-3.9-0.4-5.8-1.1s-3.6-1.7-5-3c-1.5-1.3-2.7-2.9-3.6-4.6c-0.9-1.8-1.3-3.8-1.3-6v-12.8h8.2v12.7
			c0,1.2,0.2,2.2,0.6,3c0.4,0.9,1,1.6,1.7,2.1s1.5,1,2.4,1.3c0.9,0.3,1.8,0.5,2.8,0.5c0.9,0,1.8-0.1,2.8-0.4
			c0.9-0.3,1.7-0.7,2.4-1.3c0.7-0.6,1.3-1.3,1.7-2.2c0.4-0.9,0.6-1.9,0.6-3V269H1306.3z M1287.7,260.8l5.9,5.8l-5.9,5.8l-5.8-5.8
			L1287.7,260.8z"/>
		<path class="st0" d="M1341,295h-6c-0.7,2.8-1.7,5-3.2,6.9c-1.5,1.8-3.2,3.2-5.2,4.2s-4.2,1.6-6.5,1.7s-4.8,0-7.2-0.6v-8.1
			c1.3,0.5,2.6,0.9,4.1,1.1c1.5,0.2,2.8,0.1,4.2-0.1c1.3-0.3,2.5-0.8,3.5-1.6c1-0.8,1.7-1.9,2.2-3.4c-0.9,0.2-1.9,0.2-3,0.2
			c-1.1,0-2.3-0.2-3.5-0.4c-1.2-0.3-2.3-0.7-3.5-1.2c-1.1-0.5-2.1-1.3-3-2.2c-0.9-0.9-1.6-2.1-2.1-3.4c-0.5-1.3-0.8-2.9-0.8-4.8
			v-7.1c0-1.7,0.3-3.4,1-4.9s1.6-2.9,2.7-4c1.1-1.1,2.5-2,4-2.7s3.2-1,4.9-1s3.4,0.3,4.9,1s2.9,1.6,4,2.7c1.2,1.1,2.1,2.5,2.7,4
			c0.7,1.5,1,3.2,1,4.9c0,2,0,3.6,0,4.8c0,1.2,0,2.2,0,3c0,0.8,0,1.4,0,1.8c0,0.4,0,0.8-0.1,1.2h4.9L1341,295L1341,295z M1319,276.3
			v6c0,0.7,0.1,1.4,0.4,2s0.6,1,1,1.4c0.4,0.4,0.9,0.7,1.4,0.9c0.5,0.2,1.1,0.3,1.7,0.4h4.5v-10.7c0-0.8-0.1-1.5-0.4-2.1
			c-0.3-0.6-0.6-1.1-1-1.5c-0.4-0.4-0.9-0.7-1.5-0.9c-0.6-0.2-1.1-0.3-1.7-0.2c-0.6,0-1.1,0.1-1.7,0.4c-0.5,0.2-1,0.5-1.4,0.9
			c-0.4,0.4-0.8,0.9-1,1.5C1319.2,274.9,1319,275.5,1319,276.3z"/>
		<path class="st0" d="M1353.6,282.3c0,0.7,0.1,1.4,0.4,2s0.6,1,1,1.4s0.9,0.7,1.4,0.9c0.6,0.2,1.1,0.3,1.7,0.3v8.1
			c-1.7,0-3.2-0.3-4.7-0.9c-1.5-0.6-2.8-1.4-3.9-2.5c-1.1,1-2.4,1.9-3.9,2.5c-1.5,0.6-3,0.9-4.7,0.9v-8.1c0.6,0,1.1-0.1,1.7-0.3
			c0.6-0.2,1-0.5,1.5-0.9c0.4-0.4,0.8-0.9,1-1.4c0.3-0.6,0.4-1.2,0.4-2V269h8.1L1353.6,282.3L1353.6,282.3z M1349.4,299.5l5.9,5.8
			l-5.9,5.8l-5.8-5.8L1349.4,299.5z"/>
		<path class="st0" d="M1404.8,269v13.4c0,1.7-0.3,3.4-1,4.9s-1.6,2.9-2.7,4c-1.1,1.1-2.4,2-4,2.7c-1.5,0.7-3.1,1-4.8,1
			c-1.7,0-3.2-0.3-4.7-0.9c-1.5-0.6-2.8-1.4-3.9-2.5c-1.3,1.1-2.6,1.9-4,2.4c-1.4,0.5-2.9,0.8-4.6,0.9c-1.6,0-3.1-0.3-4.6-0.9
			s-2.8-1.4-4-2.5c-1.1,1-2.4,1.9-3.9,2.5c-1.5,0.6-3,0.9-4.7,0.9v-8.1c0.6,0,1.1-0.1,1.7-0.3c0.6-0.2,1-0.5,1.5-0.9
			c0.4-0.4,0.8-0.9,1-1.4c0.3-0.6,0.4-1.2,0.4-2V269h8.1v13.3c0,0.7,0.1,1.4,0.4,1.9s0.6,1,1,1.4s0.9,0.7,1.4,0.9s1.1,0.3,1.6,0.3
			c0.6,0,1.1-0.1,1.7-0.3s1-0.5,1.4-0.9c0.4-0.4,0.8-0.9,1-1.4c0.3-0.6,0.4-1.2,0.4-1.9V269h8.1v13.3c0,0.7,0.1,1.4,0.4,1.9
			s0.6,1,1,1.4c0.4,0.4,0.9,0.7,1.4,0.9c0.5,0.2,1.1,0.3,1.6,0.4c0.6,0,1.1-0.1,1.6-0.4c0.5-0.2,1-0.5,1.4-0.9
			c0.4-0.4,0.8-0.9,1-1.4c0.3-0.6,0.4-1.2,0.4-1.9V269H1404.8z"/>
		<path class="st0" d="M1410.9,253.6h8.1v28.6c0,0.7,0.1,1.4,0.4,2s0.6,1,1,1.4s0.9,0.7,1.5,0.9c0.6,0.2,1.1,0.3,1.7,0.3v8.1
			c-1.7,0-3.4-0.3-4.9-1s-2.9-1.6-4-2.7c-1.2-1.1-2.1-2.5-2.7-4c-0.7-1.5-1-3.2-1-4.9V253.6z"/>
		<path class="st0" d="M1463.2,295h-39.7v-8.1h23.6c-1-1.2-1.9-2.3-2.7-3.4s-1.7-2.1-2.5-3c-0.8-0.9-1.6-1.7-2.5-2.3
			c-0.9-0.6-1.8-1-2.9-1.3c-1.1-0.2-2.2-0.2-3.6,0c-1.3,0.2-2.8,0.8-4.6,1.6l-0.1-7.7c1.6-1.3,3.2-2.2,4.7-2.6
			c1.6-0.4,3.1-0.5,4.6-0.2c1.8,0.3,3.5,1,5,2.1c1.5,1.1,2.9,2.3,4.2,3.7s2.6,2.9,3.7,4.4c1.2,1.5,2.3,3,3.4,4.3
			c1.1,1.3,2.2,2.4,3.3,3.2c1.1,0.9,2.2,1.3,3.4,1.3h2.5L1463.2,295L1463.2,295z"/>
		<path class="st0" d="M1463.1,286.9c0.8,0,1.5,0,2.1-0.2s1.2-0.4,1.7-0.8c0.5-0.4,0.8-0.9,1.1-1.4c0.3-0.6,0.4-1.3,0.4-2.2v-6.2
			c0-1.7,0.3-3.4,1-4.9s1.6-2.9,2.7-4c1.2-1.1,2.5-2,4-2.7s3.2-1,4.9-1s3.4,0.3,4.9,1s2.9,1.6,4,2.7c1.2,1.1,2.1,2.5,2.7,4
			c0.7,1.5,1,3.2,1,4.9v6.3c0,1.7-0.3,3.4-1,4.9s-1.6,2.9-2.7,4s-2.5,2.1-4,2.7c-1.5,0.7-3.2,1-4.9,1c-1.7,0-3.2-0.3-4.7-0.9
			c-1.5-0.6-2.8-1.4-3.9-2.5c-1.4,1.3-2.8,2.2-4.3,2.6c-1.5,0.5-3.2,0.7-5,0.7L1463.1,286.9L1463.1,286.9z M1476.6,276.3v6
			c0,0.7,0.1,1.4,0.4,2s0.6,1,1,1.4c0.4,0.4,0.9,0.7,1.5,0.9c0.5,0.2,1.1,0.3,1.7,0.4c0.6,0,1.1,0,1.7-0.2c0.5-0.2,1-0.5,1.5-0.8
			c0.4-0.4,0.8-0.9,1-1.5c0.3-0.6,0.4-1.3,0.4-2.1v-6c0-0.8-0.1-1.5-0.4-2.1c-0.3-0.6-0.6-1.1-1-1.5c-0.4-0.4-0.9-0.7-1.5-0.9
			c-0.6-0.2-1.1-0.3-1.7-0.2c-0.6,0-1.1,0.1-1.7,0.4c-0.6,0.2-1,0.5-1.5,0.9c-0.4,0.4-0.8,0.9-1,1.5
			C1476.7,274.9,1476.6,275.5,1476.6,276.3z"/>
	</g>
	<g>
		<g>
			<path class="st0" d="M1283.2,83l2.2-1l0.4-0.3l1.3-0.9l4-2.6l5.1-3.5c1.5-1,2.9-2.1,4.6-3.1c2.3-1.6,5-3,7.7-4.3
				c2.1-1.1,4.3-2.1,6.3-3.1c2-1.3,3.9-2.5,5.8-3.7c1.3-0.8,2.7-1.5,4-2.2c2.2-1.2,4.5-2.1,6.7-3.3l4-1.9l2.5-1.3l2.3-1.4l1-0.6
				l1-0.6l0.7-0.3l2-0.7l-1.3,2.2l-0.2,0.7l-0.6,1.3c-0.5,1.3-1,2.5-1.4,3.8l-0.8,2.7l-0.3,1.3l-0.4,2.7l-0.3,1.3v1.3l0.3,2.7
				l0.5,2.7l0.8,2.7l1.1,2.7h2.2h1.8l1.3-0.4l1.2-0.4l2.2-1.3l1.7-1.9l1.2-2.7l0.8-2.5l0.6-2l0.5-2.2l-1.6,0.8l-1.1,1.1l-0.4,0.9
				l-0.3,0.4l-0.6,2l-2.8-0.8l-1.2-0.6l-1.9-1.8l-0.8-0.9l-0.7-2.7l0.2-2.7l1-2.7l0.7-1.3l1.6-2.7l1.7-2.7l1.6-2.7
				c1.2-2.1,2.1-4.3,3.2-6.5l0.5-1.3l0.3-0.7l0.8-2.2l-2.2,0.1l-0.7,0.1l-1.3,0.2l-2.5,0.9c-1.9,0.5-3.6,1.5-5.3,2.7l-1.3,0.7
				l-2.7,1.6c-1.3,0.8-2.7,1.5-4,2.2l-2.7,1.3c-1.8,0.9-3.6,1.6-5.4,2.5c-1.8,1-3.6,2.1-5.4,3.1l-5.4,3.3l-4,2.1l-2.7,1.5l-4,2.2
				c-1.4,0.9-2.7,1.5-4,2.3l-4,2.6l-4,2.4c-2.7,1.7-5.4,3.3-7.3,5.9l-1.4,2.5l-0.9,2.7l-0.6,1.8L1283.2,83"/>
			<path class="st0" d="M1185.1,57.5l0-5.4l-0.1-2.7l-0.2-1.3l-0.7-2.5l-0.6-1.2l-0.8-1l-0.9-0.7l-2.3-1.3l-2.6-0.5l-2.7,0.6
				l-1.3,0.7l-2.2,2l-1.9,2.5l-0.8,1.3l-1.3,2.7l-1,2.7l-0.6,2.7l-0.3,1.3v1.3v4l2.2,0.3l0.4,0.2l1.3,0.3l3.8,1l1.3,0.3l0.7,0.2
				l2.2,0.5l-0.8,2.2l-1.1,1.9l-1.6,2.5l-1.8,2.1l-2.9,3.5l-3.1,3.8l-4.4,5.3l-4,4.6l-1.9,2.3l-1.7,2.5l-1.2,1.8l-1,2.2l2.2-0.4
				l1.8-0.8c1.3-0.7,2.7-1.4,3.8-2.3l1.2-1l1.2-1.1c1.6-1.7,3.1-3.4,4.6-5.1c1.9-2.2,3.8-4.5,5.7-6.7c1.5-1.8,3-3.5,4.3-5.4l1.9-2.7
				l2.3-3.9l0.8-1.2l1.7-2l2-1.3l1.2-0.4l2.8-0.6l1.1-2.2l1-1.8l0.6-1.2l0.4-0.6l1-2.2L1185.1,57.5L1185.1,57.5z M1177.5,55.5
				l-0.7,0l-1.3,0.1c-1.2-0.1-2.5-0.2-3.8-0.4l-0.4-0.1l-2.2-0.2l1-2.5l0.6-1l1.7-1.3l2.1-0.5l2.1,0.5l1.6,1.3l1,1.5l0.8,2.1
				L1177.5,55.5z"/>
			<path class="st0" d="M1053.5,62.9l-4,5.4l-0.8,1.3l-1.8,2.7l-0.8,1.3l-1.2,2.7l-0.8,1.8v2.2c1.3,0.5,2.7,0.9,4,1.5l4,1.6l2.7,1.3
				l1.3,0.7l1.3,0.7l1.3,0.6l1.3,0.4l2.6,0.1c1.3-0.2,2.6-0.9,3.6-1.8l2.1-2.1l0.9-1.1l1.5-2.3l1.3-2.3l0.5-2.6l-0.6-2.4l-0.7-1
				l-2-1.7l-1.2-0.7l-2.6-1.3l-2.7-1.3c-1.7-0.8-3.4-1.7-5.4-2.3l-1.8-0.8L1053.5,62.9"/>
			<path class="st0" d="M1085.7,58.8c-1.3,1.7-2.4,3.5-3.6,5.4c-1.1,1.3-2.3,2.8-3.3,4.4l-1.3,2.3l-0.7,1.8l-0.4,2.2l2.2,0.9
				l1.8,0.9l1.3,0.6l4,1.9l2.7,1.2l2.7,0.9l1.3,0.3h1.3l1.3-0.4c1.3-0.5,2.7-1.5,4-2.3l2.4-2.7l1.1-1.3l0.9-1.3l1.4-2.5l0.3-0.7
				l0.6-2.2l-2.2-1.3l-2-1.1l-6.5-3l-5.4-2.6l-1.3-0.5l-0.4-0.3L1085.7,58.8"/>
			<path class="st0" d="M594.2,83c-0.9-1.3-1.9-2.7-2.8-4l-1.7-2.2l-1.9-2.2l-2.1-2.2c-1.1-1.2-2.4-2.2-3.6-3.2l-2.6-1.8l-2.7-1.4
				L574,65l-1.3-0.3l-1.3-0.1l-1.3,0.1l-2.1,0.8l-1.7,1.7l-0.6,1.1L565,71l-0.3,1.3V75v5.4l2.7,0.8l2.7,0.6h1.3l2.3-0.4l0.8-0.4
				L575,80l0.5-2.3l2.2,0.9l0.4,0.5l1.3,0.8c2,1.4,3.6,2.9,5.1,4.6l2.2,2.7l0.7,1.3l1.1,1.3l1.5,2.7l1.2,2.7l0.5,1.3l0.3,0.4
				l0.7,2.2l-2.2,0.1l-2,0.2c-1.3,0.3-2.6,0.6-3.8,1.3l-2.3,1.7l-1,1.1l-1.7,2.4l-1.4,2.6l-0.6,1.3l-1.9,4l-1.1,2.7l-0.9,2.7
				l-0.6,1.8l-0.5,2.2l2.2-0.4l1.8-0.7c2.7-1.1,5.3-2.4,8.1-3.2l2.7-0.7l1.3-0.2l2.7-0.2l2.7-0.5l1.3-0.2l1.3-0.1l1.3,0.1l1.2,0.3
				l1,0.5l1.1,1.7c0.2,1.3-0.5,2.6-1.1,3.6l-1,1.3l-2.4,2.7l-2.7,2.5l-3.4,3.5l-2.1,2.3l-1.8,2.5l-1.2,1.8l-0.9,2.2l2.2,0.3l1.8-0.2
				l2.7-0.8l1.3-0.6c1.8-0.9,3.6-2,5.4-3.1l2.7-1.8l1.3-1l1.3-1.1l1.3-1.1l1.2-1.3l2.2-2.7l1.8-2.7l1.5-2.7l1.2-2.7l0.5-1.3l1-2.7
				l0.8-2.7l0.5-2.7l0.2-2.7l0-2.7l-0.3-2.6l-0.4-1.2l-0.6-1.1l-0.8-0.9l-2.1-1.3l-1.2-0.4l-1.3-0.3l-1.3-0.2l-1.3-0.1l-2.7-0.1
				l-6.7,0l0.3-2.2l0.1-0.4c0.3-1.9,0.5-3.7,0.8-5.4c0.2-1.3,0.2-2.7,0.2-4c0-2.2,0-4.5,0-6.7l0.6-2.7l0.4-1.3l1.3-2.3l0.9-0.9
				l1-0.7l2.3-0.6l2,0.5l0.8,0.6l1.3,2.1l1.9-0.9l0.4-0.5l1.5-1.8l0.5-0.9l0.5-2.7l-0.1-1.3l-0.3-1.3l-1.3-2.3l-2.1-1.7l-2.5-0.9
				l-1.3-0.1l-1.3,0.1l-1.3,0.3l-2.3,1l-2,1.6l-0.8,1l-1.3,2.3l-0.9,2.6l-0.3,1.3l-0.2,1.3c-0.3,2.2-0.3,4.4-0.5,6.7l-0.4,2.7
				l-0.1,0.4L594.2,83"/>
			<path class="st0" d="M688.2,77.6l-1.8-1.3l-0.5-0.7l-1-1.1l-4.8-6.3l-2.2-2.6l-1.1-1.2l-2.3-2.1l-1.2-0.9
				c-1.2-0.8-2.6-1.3-3.9-1.8l-1.8-0.6l-2.2-0.3l-0.7,2.9l-0.3,1.3l-0.4,2.5v2.7v4h2.2c1.5,0,3.1,0.1,4.5,0.6l1.3,0.7l2.5,1.7
				l1.2,1.2l2.2,2.6c1.7,2.1,3.2,4.4,4.5,6.7l2.1,4l1.3,2.3l0.7,1.1l0.3,0.7l1.4,1.3l0.8-2.2l0.1-0.4l0.3-1.3l0.1-1.3
				c0.5-2.3,0.9-4.5,1.1-6.7l0.2-4l0.4-1.3l0.6-2.7l0.4-1.3l0.6-1.3l0.7-1.3l0.8-1.2l1-1.1l0.9-0.8l2.7-0.7l2.6,0.7l1.2,0.7l2.2,1.7
				L706,71l0.5,0.4l1.8,0.9l0.4-2.2l0.3-1.8l0.2-2.7l0-1.3l-0.6-2.6l-1.3-2.3l-2-1.7l-2.4-0.9l-2.6-0.2l-2.7,0.5l-1.3,0.6l-2.4,1.7
				l-2,2.3l-0.9,1.3l-0.6,1.3l-0.8,1.3l-0.6,2.7l-0.5,2.7C688.2,73.1,688.2,75.4,688.2,77.6"/>
			<path class="st0" d="M934,73.6l-5.4-5.4l-2.6-2.7l-2.7-2.5l-1.3-1.1l-2.7-1.8c-1.8-1-4-1.3-5.8-2.1l-2.2-0.6l-1.5,2.9l-0.6,1.3
				l-0.8,2.5l-0.3,1.3l0,2.7l0.8,2.1l1.6,1.6l2.1,0.8l1.3,0.1l2.7,0.1l1.3,0.2l1.3,0.4l1.3,0.7l2.6,2l2.4,2.6
				c1.3,1.3,2.7,2.8,3.8,4.4c1.1,1.5,1.9,3.2,2.8,5l1.4,1.9l0.9,0.8l0.4,0.5l1.8,0.9c0.3-1.8,0.7-3.6,1-5.4c0.2-1.8,0.3-3.6,0.4-5.4
				l0-6.7l0.3-2.7l0.3-1.3l1-2.5l0.8-1.1l0.9-0.9l2.1-1.2l1.3-0.2l1.3,0l1.3,0.2l2.5,0.7l0.7,0.2l2.2,0.7l0.6-2.2l0.3-1.8l0-1.3
				l-0.5-2.5l-1.3-2.1l-0.9-0.8l-1.1-0.6l-2.4-0.6h-2.6l-1.3,0.2l-1.1,0.4l-2.2,1.3l-1.8,2.1l-0.7,1.2l-0.6,1.3l-0.9,2.7
				c-0.5,1.7-0.7,3.4-1.1,5.4l-0.4,1.8L934,73.6"/>
			<path class="st0" d="M642.5,54.8l-1,2.2l-0.3,0.7l-0.5,1.3l-2.2,6.5l-1.3,4c-0.5,1.8-0.9,3.5-1,5.4c-0.1,1.8,0.2,3.6,0.5,5.4
				c0.3,1.3,0.4,2.7,1,4l1.1,4l0.7,2.7c0.3,2.2,1,4.5,1.5,6.7c0.8,3.1,1.8,6.2,2.4,9.4l0.4,4l0.8,4l1.3,6.7l0.9,5.4l0.6,4
				c0.3,2.2,0.4,4.5,0.6,6.7c0.2,1.8,0.6,3.6,1,5.4l0.9,4l0.9,5.4l0.4,2.7l0.4,2.7l0.2,4l1.2,6.7l0.5,4c0.2,1.8,0.6,3.6,0.5,5.4
				l-0.5,2.7l-0.5,1.3l-1.4,2.7l-0.9,1.3l-1,1.3l-1.1,1.3l-1.2,1.1l-2.5,2.2l-1.3,1l-2.7,1.9l-2.7,1.9l-4,2.9
				c-2.7,1.8-5.4,3.6-8.1,5.3l-4,2.4c-2.2,1.3-4.4,2.7-6.7,3.6c-2.2,1-4.4,1.9-6.7,2.6c-2.2,0.7-4.5,1.4-6.7,2
				c-1.8,0.4-3.6,0.9-5.4,1.2c-1.8,0.2-3.6,0.4-5.4,0.3c-2.3-0.1-4.6-0.7-6.7-1.6c-3.4-1.3-6.7-3.2-9.2-5.8
				c-2.3-2.2-4.3-4.9-5.7-7.8c-1.4-2.5-2.6-5.3-3-8.1c-0.5-2.2-0.9-4.4-0.9-6.7c0.2-2.3,0.7-4.5,1.2-6.7c0.7-2.7,1.5-5.4,2.7-8.1
				c0.8-1.8,1.5-3.6,2.5-5.4l1.7-4c0.9-1.8,1.7-3.5,2.4-5.3l0.8-2.5l0.5-2l0.3-2.2l-2.2,0.9l-1.8,1.3l-2,2.1l-0.9,1.2l-1.6,2.6
				c-1.4,2.7-2.5,5.4-3.6,8.1c-0.7,2.2-1.3,4.5-2,6.7l-1.3,4l-1.2,4l-1.1,4c-0.7,2.7-1.1,5.4-1.5,8.1c-0.2,1.3-0.5,2.7-0.6,4
				l-0.2,2.7v2.7v2.5c0.3,1.2,0.4,2.3,0.6,3.5c0.3,1.6,0.7,3.5,1.2,4.9l0.8,2.6c1.3,2.8,2.7,5.5,4.5,8.1c0.9,1.1,1.8,2.3,2.9,3.4
				c1.4,1.5,3,2.8,4.7,3.9c1.3,0.9,2.7,1.6,4,2.3c1.7,0.9,3.5,1.5,5.4,1.9c1.8,0.5,3.6,0.5,5.4,0.5c1.3,0,2.7,0,4,0l1.3-0.2l2.7-0.4
				c1.8-0.4,3.6-0.7,5.4-1.3c4.6-1.3,9.1-3,13.4-4.8c1.8-1,3.6-2,5.4-2.9c1.3-0.7,2.7-1.5,4-2.3c3.3-2,6.3-4.1,9.4-6.6
				c2.2-1.6,4.5-3.2,6.7-4.9c2.2-1.7,4.3-3.4,6.3-5.5c1.1-1.1,2.1-2.2,3.1-3.5c1.4-2.1,3.1-4.3,4.5-6.5l1.9-2.6l1.7-2.3l1.9-1.7
				l2.1-1.5v2.2l0.6,2l0.8,2.5l0.7,1.3l1.4,2.7c0.7,1.3,1.6,2.7,2.6,3.8c1.4,1.6,3,3,4.7,4.3c1.7,1.3,3.5,2.2,5.4,2.8l2.7,0.7
				l1.3,0.2l1.3,0.3h2.7h2.7c1.8,0,3.6,0,5.4-0.6c1.9-0.5,3.7-1.3,5.4-2.1l2.7-2.1l1.3-1.1l1.3-1.1l2.3-2.4l1.9-2.7
				c1.2-1.7,2.1-3.6,3-5.4c0.7-1.2,1.3-2.4,2.1-3.6l1.3-1.7l1.7-1.5v2.2l0.7,2l1,2.5l1.5,2.7l1.7,2.2l0.9,1.1l0.9,1l2,1.7
				c2,1.5,4.7,2.3,7.4,2.8l2.7,0.4l1.3,0.2h1.3l2.7-0.3l2.7-0.5c1.3-0.3,2.7-0.6,4-1.4l1.3-0.6l1.3-0.9l2.6-2l2.3-2.4l1-1.3l1.7-2.7
				l0.7-1.3l0.7-1.3l1.2-2.7l0.9-2.7c0.6-1.7,0.8-3.6,1-5.4l0.7-4l0.1-1.3v-2.7l-0.3-2.7l-0.5-2.7c-0.2-1.8-0.5-3.6-1.1-5.3
				c-0.8-2.3-1.9-4.5-2.9-6.8h-2.7l-1,2.2l-0.3,0.7l-0.9,2.5l-1,2.6l-0.7,1.3c-0.7,2.2-1.7,4.3-1.8,6.7c-0.1,2.8,1.2,5.4,2,8.1
				l0.7,2.7l0.2,0.4l0.3,2.2l-2.2,0.5l-0.7,0.2c-2.1,0.7-4.3,1.1-6.5,1.2l-2.7-0.2l-1.3-0.2l-2.7-0.7l-2.7-1.1l-2.2-1.4l-1.1-0.9
				l-1-1l-1.8-2.1l-0.8-1.2l-0.7-1.1l-0.9-2.7l-0.2-2.7l0.2-1.3l0.7-2.6l0.3-1.2l0.4-2l0.2-2.2l-2.2,0.5l-2,0.9l-2.5,1.7l-1.1,1.1
				l-2.1,2.5c-0.9,1.3-1.7,2.7-2.5,4c-1,1.8-1.9,3.6-3,5.4l-1.8,2.7l-1,1.3l-2.2,2.7l-1.2,1.1l-1.3,1.1l-2.6,2.1l-2.7,1.6l-1.3,0.8
				l-1.3,0.4l-2.7,0.6l-2.7,0.3h-1.3l-2.7-0.5l-2.7-0.7l-1.3-0.5l-1.3-0.6l-2.7-1.6l-2.7-2l-1.1-1.1l-2.2-2.4
				c-0.9-1.3-1.8-2.6-2.4-4c-1-2.2-1.8-4.4-2.6-6.7c-0.8-2.2-1.4-4.5-2.1-6.7l-1.1-4c-0.8-3.1-1.3-6.4-1.7-9.4l-0.5-5.4l-0.8-5.4
				l-0.7-5.4c-0.5-3.1-1.2-6.3-1.8-9.4c-0.6-2.2-0.7-4.5-1.2-6.7l-1-4l-0.6-2.7c-0.4-1.8-0.5-3.6-0.8-5.4l-1-5.4l-0.2-4
				c-0.2-1.3-0.4-2.7-0.6-4c-0.5-2.3-0.9-4.5-1.5-6.7c-0.8-2.7-1.7-5.3-2.4-8.1c-0.6-2.2-1-4.5-1.5-6.7l-1.6-8.1l-0.9-4l-0.8-2.6
				l-0.7-2.3l-0.7-1.1l-0.1-0.6L642.5,54.8"/>
			<path class="st0" d="M848,50.8l-1.3,2.2l-0.2,0.7l-0.7,1.3l-0.6,1.2l-1.3,2.6l-2.1,4c-0.8,1.8-1.8,3.6-2.4,5.4
				c-1.2,3.1-2.5,6.1-3.1,9.4c-0.4,2.2-0.4,4.5-0.4,6.7c0,1.3,0,2.7,0,4l0.5,2.7l0.3,1.3l0.4,1.3l0.6,1.3l1.6,2l2,1.5l2.7,0.7
				l2.7-0.1l1.3-0.1l1.3-0.6l2.3-1.5l1.9-1.9l0.8-1.3l1.1-2.7l0.4-1.3l0.7-2.5l0.5-2l0.6-2.2l-2.2,0.8l-0.7,0.5l-1.3,0.6l-2.5,1.3
				l-2.7,0.8h-1.3l-2.1-1.1l-1.7-1.9l-0.6-1l-0.4-1.3l-0.2-2.7c0-2.3,0.8-4.6,1.5-6.7l1-2.7l1.6-4l1.1-2.7l0.6-1.3l1-2.7l0.7-2.6
				l0.1-2.3l-0.2-1.1l-0.1-0.6L848,50.8"/>
			<path class="st0" d="M782.2,73.6l2.2-0.6l1.8-0.8l2.7-1.2l5.4-2.8c1.3-0.9,2.7-1.6,4-2.3c2.2-1.1,4.5-1.8,6.7-2.9l5.4-2.5l4-1.8
				l1.3-0.7l2.3-1.5l1.7-1.8l0.6-1.3l1-2.8c-1.4,0-2.8,0-4.2,0.1c-1.3,0.1-2.6,0.4-3.8,0.7c-1.8,0.5-3.6,1.3-5.4,2.1l-2.7,1.2
				l-6.7,3.3l-4,2l-2.7,1l-2.7,1.4l-2.4,1.6l-1.1,0.8l-1.7,2.1l-1,2.4l-0.3,1.3l-0.3,0.4L782.2,73.6"/>
			<path class="st0" d="M994.4,82.3l-0.7-0.2l-2-0.4v-2.2l0.4-1.8l0.6-4c0.2-1.3,0.3-2.7,0.3-4l-0.1-2.7l-0.2-1.3l-0.7-2.5l-0.6-1.1
				l-1.7-1.7l-2.3-0.6l-1.3,0.2l-1.3,0.5l-2.7,1.7l-2.2,2.3l-1,1.3l-1.7,2.7l-1.3,2.7l-1,2.7l-0.3,1.3l-0.2,1.3l0,1.3l0.5,2.7
				l1.3,2.4l0.9,1.1l2.2,1.9l1.9,1.3l2.2,1.2l-2.2,2.2l-5.1,5.4c-2.1,2-4.1,3.9-6.2,5.9l-6.7,6.6l-2.7,2.3l-5.4,4.6l-5.4,5.2
				c-1.3,1.1-2.7,2.3-4,3.4l-2.7,2.2l-4,3.2l-4,3.3c-1.7,1.3-3.5,2.4-5.4,4l-1.9,1.8l-0.8,1.1l-0.5,0.5l-0.9,2l2.2-0.7l0.4-0.4
				l1.3-0.6l8.1-4.7c2.7-1.6,5.4-3,8.1-4.9c4.3-3,8.1-6.5,12.1-9.9l5.4-4.4l5.4-5.2l5.3-4.6c1.3-1.2,2.6-2.3,3.8-3.7l2.3-2.7l2-2.7
				c1.2-1.3,2.2-2.6,3.3-3.8c1-1.1,2.1-2,3.4-2.6l2.5-0.6l1.3,0l0.7,0l2.2,0.3l0.6-2.2l0.4-1.8l0.3-1.8l0.1-2.2L994.4,82.3z
				 M985.5,78.4l-0.6-0.3l-2.5-1.1l-0.9-0.7l-1.5-1.8l-0.3-2.1l1-1.9l1.8-1.3l1.2-0.4l2.8-0.6l0.7,2.9l0.3,1.3l0.3,2.5l0.1,1.8
				l0,2.2L985.5,78.4z"/>
			<path class="st0" d="M1304.7,101.8l2.2,1.3l0.4,0.2l1.3,0.6c1.9,0.7,3.6,1.3,5.4,1.9l5.8,2l2.2,0.7l2.1-2.2l1.6-1.8l1.7-2.7
				l0.7-1.3l1.1-2.7c0.9-3,0.8-6.3,0.9-9.4l-2.2-0.4l-2-0.5l-3.8-1l-1.3-0.4l-2.7-0.7l-1.3-0.2l-2.4,0.2l-1.1,0.4l-1,0.7l-0.9,0.9
				l-1.6,2.3l-1.4,2.6l-0.7,1.3c-0.6,1.3-1.2,2.7-1.7,4l-0.7,1.8L1304.7,101.8"/>
			<polyline class="st0" points="795.7,74.9 794.3,77.2 794.1,77.8 792,81.7 790.6,84.3 789.4,87 788.5,89.7 787.9,91.5 787.6,93.8 
				789.8,94.6 791.6,95.6 797,98.1 798.3,98.8 801,99.9 802.4,100.5 805,100.5 807.6,99.5 808.8,98.6 809.9,97.8 811.8,95.1 
				813.1,92.4 813.9,89.7 814.1,88.4 814.1,87.1 814,85.8 813.1,83.4 812.3,82.4 810.2,80.8 809,80.3 806.4,79.2 805,78.7 
				802.6,77.6 799.3,76 798.2,75.6 797.7,75.3 795.7,74.9 			"/>
			<path class="st0" d="M1262.9,169l-0.1-1.3l-0.6-2.7l-1.3-2.6l-1-1.2l-1.1-1.1l-2.5-1.7l-2.7-1l-2.7-0.4l-2.7-0.1l-2.7,0.2
				l-2.7,0.6c-1.9,0.6-3.6,1.8-5.4,2.6l-2.7,1.5l-2.7,1.7c-1.3,0.7-2.7,1.6-3.8,2.7c-1.6,1.1-3.1,2.4-4.6,3.7
				c-2.3,1.9-4.3,3.7-6.3,5.8c-1.5,1.7-3.1,3.5-4.6,5.3c-1.2,1.4-2.3,2.7-3.6,4l-7.9,8.1c-1.1,1.3-2.3,2.7-3.5,4
				c-1.2,1.3-2.3,2.7-3.5,4c-2.5,2.4-5.2,4.6-7.8,6.9l-4,3.5c-2.2,1.8-4.4,3.6-6.7,5.2l-2.7,1.9l-2.7,1.3l-2.7,1.3
				c-1.3,0.3-2.7,0.6-4,0.9l-2.7,0.2l-1.3-0.1l-1.3-0.2l-1.3-0.3l-2.7-1.1l-2.7-1.6l-0.9-1l-1-1.1l-0.8-1.1l-0.9-2.7l-0.4-1.3v-2.7
				v-2.7l0.3-1.3l0.7-2.7l1.3-2.5l2-2.2c1.5-1.4,3.3-2.3,5.1-3.3c1.8-1,3.6-2,5.4-3.1c4-2.4,8-5.5,12.1-8.2l8.1-5
				c2.3-1.3,4.5-3,6.7-4.6l4-3c2.3-1.7,4.5-3.2,6.7-5.1c3.1-2.4,6.2-4.8,9-7.5c1.1-1.2,2.1-2.3,3.1-3.5c1-1.1,2-2.3,2.7-3.5l2.1-2.5
				l0.9-1.3l0.8-1.3l1.4-2.7l1.2-2.7l1.6-4c0.7-1.8,1.2-3.6,1.8-5.4l1.6-5.4c0.5-1.7,1-3.4,1.4-5.2c0.3-1.5,0.4-2.9,0.5-4.6l0.1-3.7
				c0-1.8,0-3.6,0-5.4l-0.2-2.7l-0.4-2.7l-0.7-2.7l-0.8-2.7c-0.6-1.3-0.8-2.7-1.3-4l-1-2.7c-0.6-1.3-1.2-2.7-1.9-4
				c-0.7-1.3-1.6-2.7-2.4-4l-0.8-1.2l-0.9-1.3l-0.5-0.7l-1.3-2.2h-1.8l-0.5-0.3l-1.1-0.3l-1-0.4l-2.4-0.8l-2.6-0.6l-1.3-0.1l-1.3,0
				l-2.7,0.3l-2.7,1l-2.7,1.3l-1.3,0.8l-1.3,1l-2.2,2.3l-2,2.6l-1.7,2.7c-0.9,1.3-1.4,2.7-2,4c-0.9,2.2-1.7,4.4-2.4,6.7
				c-0.5,1.3-0.8,2.7-1.1,4c-0.3,1.3-0.5,2.7-0.7,4c0,1.7,0,3.4,0.2,5.1l0.1,1.2l0.2,1.2l0.6,2.3l0.5,1.2l1.3,2.5l0.8,1.1l2,2l1,0.8
				l2.7,1l2.7,0.6h1.3l1.3-0.2l1.3-0.1l1.3-0.2c1.3-0.1,2.7-0.3,4-0.2l2.7,0.7l1.3,0.2l1.3,0.6l1.3,0.7l2.5,1.8l1.8,2.3l0.5,1.3
				l0.2,1.3l-0.2,1.3l-0.7,1.3l-1.6,2.4c-2,2.3-4.4,4.3-6.7,6.3c-3,2.5-6.1,4.9-9.2,7.4c-1.8,1.3-3.6,2.7-5.4,3.8
				c-1.8,1.2-3.6,2.4-5.4,3.5l-4,2.7l-4,2.8l-6.7,4.3l-4,2.5c-2.2,1.3-4.5,2.5-6.7,3.7c-2.7,1.5-5.4,3.1-8.1,4.7
				c-1.4,0.9-2.7,1.7-4,2.6c-2.2,1.7-4.4,3.2-6.7,4.7c-1.8,1.1-3.6,2.3-5.4,3.3l-4,2.5l-4,2.5l-5.4,3.5c-1.8,1.3-3.6,2.3-5.4,3.4
				c-3.1,1.9-6.3,3.4-9.4,5.1c-1.8,1-3.6,2-5.4,3.1l-6.7,3.9l-2.7,1.7l-5.4,3.8c-1.3,0.9-2.7,1.9-4,2.6c-1.8,1.1-3.6,2-5.4,3
				l-1.3,0.7l-2.7,1.5l-1.3,0.9l-1.9,1.6l-1.3,1.6l-0.9,2.1h2.2l0.4-0.3l1.3-0.2l2.7-0.6c1.8-0.5,3.6-1.2,5.4-1.9
				c2.7-1.1,5.3-2.1,8.1-3.1l4-1.3c1.8-0.6,3.6-1.1,5.4-1.7l8.1-3l6.7-2.1c1.3-0.4,2.7-0.9,4-1.5c3.2-1.4,6.3-3.1,9.4-4.9
				c2.2-1,4.4-2.6,6.7-3.6l1.3-0.5l2.6-0.7l1.2-0.2l1.3-0.4l0.7-0.1l2.2-0.8v8.1c0,2.2-0.1,4.4,0.3,6.5c0.4,2,1.2,3.9,2,5.8l1.1,2.5
				l0.5,1.3l1,1.3l2,2.3l1,1l1.3,0.8l2.7,0.9l1.3,0.4c1.3,0,2.7,0.2,4,0.3c1.3,0.1,2.7,0.2,4,0.1l2.7-0.2l2.7-0.2
				c1.8-0.4,3.6-0.8,5.4-1.2c2.7-0.7,5.3-1.5,7.7-2.8c1.7-0.9,3.1-2.2,4.6-3.4l3.8-3.2c2.2-1.9,4.5-3.7,6.5-5.7
				c1.6-1.6,2.9-3.4,4.5-5.1l4.3-5.4l5.8-6.7c1.5-1.8,3-3.6,4.6-5.4c1.7-1.8,3.4-3.6,5.1-5.4l4-3.9l2.7-2.4l2.7-2.1
				c1.7-1.1,3.5-2.4,5.4-3.4c1.3-0.8,2.7-1.5,4-2.1c2.5-1.1,5.3-2.1,8.1-1.7l2.7,0.8l1.3,0.4l1.3,0.9l1.2,0.7l2.2,2l0.6,0.5l1.5,2.1
				h2.7l0.6-2.7l0.2-1.2l0.3-2.1l0.2-2.3c0.1-1.1,0.1-2.5,0.1-3.8L1262.9,169z M1207.1,101.3l-2,0.6h-2.5c-1.3,0-2.7-0.3-4-0.5
				c-2.3-0.4-4.5-1.4-6.7-2.2l0.9-2.2l0.5-0.5l1.8-1.9l2.3-1.2l2.7-0.3l2.6,0.5l2.4,1.1l1.1,0.7l1.7,1.6l0.6,1.1l1,2.6L1207.1,101.3
				z"/>
			<path class="st0" d="M720.4,126l-1.3,2.2l-1,2l-0.9,2.5l-0.3,1.3l-0.5,1.8v2.2l2.2-0.9l0.4-0.4l1.3-0.8l4-2.8
				c1.3-0.9,2.7-1.8,4-2.7l2.7-1.6c1.8-1,3.5-2,5.4-2.9l2.7-1.2l1.3-0.6l2.3-1.6l1.7-1.9l1-2.5l0.2-1.3l0.1-0.7l0.1-2.2l-2.2,0.3
				l-2,0.4l-5.2,1.3l-2.7,0.4c-1.3,0.3-2.7,0.3-4,0.3s-2.7,0-4,0l-2.7-0.4l-1.3-0.3l-2.7-0.7v-2.7l2.2-0.8l0.5-0.3l2.6-0.9l2.2-0.4
				l1.6,0.2l1.7,0.8l1.2-2.2l0.7-1.8l0.2-1.3l0.2-2.5l-0.2-2l-0.8-2.2l-2.9,0.7l-1.3,0.6l-2.5,1.3l-2.7,1.7l-1.3,1.2l-1.1,1.2
				l-1.1,1.3l-1,1.3l-1.7,2.7l-1.1,2.7l-0.3,1.3l-0.4,1.3v2.7l0.7,2.2l1,1.9l1.5,1.4l1,0.5L720.4,126"/>
			<path class="st0" d="M1152.7,126c-0.2-1.8-0.5-3.6-0.8-5.4l-0.6-2.7c-0.3-1.3-0.7-2.7-1.1-4l-1-2.7c-0.7-1.8-1.6-3.6-2.2-5.3
				l-1.7-3.7c-0.6-1.2-1.1-2.4-1.8-3.4l-1.8-2.3l-2.3-2.6l-2.6-2.3l-2.7-1.8l-2.7-1.7l-2.7-1.2l-2.7-0.7l-1.3-0.2l-2.7,0l-2.7,0.4
				l-1.3,0.3l-1.3,0.4l-1.3,0.5l-1.3,0.7l-1.1,0.6l-2.2,1.7l-2.1,2.1l-0.7,1.2l-0.8,1.3l-0.7,1.3l-1.2,2.7l-0.9,2.7
				c-0.7,2.2-1.1,4.5-1.4,6.7c-0.5,3.1-1.1,6.2-1,9.4l0.3,2.7l0.3,1.3l0.8,2.7l1.3,2.7l1.1,1.3l1,1l2.2,2l1.1,0.8l2.7,1l2.7,0.6
				l2.7-0.3l2.7-0.4c1.3-0.3,2.7-0.6,4-0.7l4-1.3l2.7-0.6l2.7-0.1l1.3,0.3l1.3,0.5l2.4,1.7l1,1.1l0.6,1.2l0.6,2.6l-0.3,1.3l-1.4,2.5
				l-1,1.2l-1.1,1.2l-2.4,2.3l-2.6,2.4c-1.8,1.6-3.5,3.2-5.3,4.7l-4,3.3l-5.4,4c-1.8,1.4-3.6,2.8-5.4,4.2c-2.2,1.6-4.5,3.3-6.7,4.8
				c-1.8,1.3-3.6,2.5-5.4,3.7l-2.7,1.6c-2.2,1.3-4.4,2.5-6.7,3.5l-4,1.8l-2.7,1.2c-3.1,1.3-6.2,2.7-9.4,3.7
				c-2.2,0.6-4.5,1.1-6.7,1.4c-2.2,0.4-4.5,0.8-6.7,0.8c-3.2,0-6.3-0.8-9.4-1.7c-3.7-1-7.4-2.1-10.7-4.1l-2.7-1.6l-2.7-1.7l-1.1-1
				l-1.2-1l-2.2-2.2c-1.8-2-3.5-4.1-4.6-6.5c-0.7-1.3-1.3-2.7-1.8-4l-1.1-2.7c-0.3-1.3-0.8-2.7-1.3-4c-0.3-1.8-0.7-3.5-1-5.3
				c-0.3-1.4-0.5-3.2-0.6-4.9c-0.1-2.4,0-4.9,0.2-7.3c0.1-1.8,0.1-3.6,0.3-5.4c0.3-2.3,0.6-4.5,1.1-6.7l0.8-2.7l1-2.7l1.8-4l0.9-2.6
				l0.6-2.5l0.1-0.7l0.2-2.2l-1.8,1.5l-1.5,1.7c-0.9,1.2-1.7,2.3-2.4,3.6l-1.3,2.7l-1.6,4c-1,2.7-2.1,5.4-2.6,8.1
				c-0.5,2.2-0.9,4.5-1.3,6.7l-1,4l-0.7,4c-0.3,1.3-0.6,2.7-0.6,4s0,2.7,0,4c0,2.3,0,4.5,0.4,6.7c0.4,2.7,0.9,5.4,1.7,8.1
				c0.5,2.7,0.6,5.4,1.5,8.1c0.5,2.3,1.8,4.5,2.9,6.7c1.2,2.3,2.3,4.6,3.9,6.7c1,1.3,2.1,2.7,3.2,3.8l2.7,2.3l1.3,1.1l1.3,1l2.7,1.8
				l2.7,1.4l2.7,1.1l2.7,0.9l2.7,0.9c1.3,0.5,2.7,0.8,4,1.1l2.7,0.4l2.7,0.3c1.8,0,3.6,0,5.4,0h4l2.7-0.3l2.7-0.4
				c1.8-0.4,3.6-1,5.4-1.6c2.3-0.8,4.5-1.7,6.7-2.6c1.8-0.5,3.6-1.5,5.4-2.3l4-1.9c2.3-1.1,4.5-2.3,6.7-3.6c1.8-1.1,3.6-2.1,5.4-3.4
				c2.3-1.3,4.5-3,6.7-4.6c2.3-1.6,4.5-3.3,6.7-4.8l6.7-5.2c1.8-1.4,3.6-2.8,5.3-4.2l3.7-3.4c1.5-1.3,2.9-2.7,4.3-4.1
				c1.5-1.5,2.8-3.1,4.2-4.7c1.6-1.8,3-3.5,4.3-5.4c1.1-1.7,2.3-3.5,3.2-5.4l1.2-2.7l0.5-1.3l0.8-2.7l0.3-1.3l0.7-4
				c0.3-1.8,0.6-3.6,0.8-5.4C1152.8,129.6,1152.8,127.8,1152.7,126z M1127.8,112.7l-0.7,0.1l-1.3,0.2l-2.5,0.5l-2.7,0.6l-2.7,0.3
				l-2.4-0.2c-1.6-0.2-2.6-1-3.8-1.5l-1.8-1.3l0.9-2.1l0.5-0.5l1.8-1.8l0.9-0.7l1.3-0.6l2.7-0.7l2.7-0.1l2.7,0.5l2.5,1.2
				c1.1,0.8,2,1.6,2.8,2.5l0.9,1.6l0.5,2L1127.8,112.7z"/>
			<path class="st0" d="M993.4,163.7l-1.2-2.4l-0.8-1l-1-0.8l-2-1.3l-1.1-0.6l-2.4-0.5c-1.3-0.1-2.6-0.2-3.9-0.1
				c-1.3,0-2.7,0.1-4,0.2c-1.8,0.2-3.6,0.5-5.4,1.1c-1.8,0.4-3.6,1-5.4,1.8c-1.4,0.6-2.7,1.3-4,1.9c-1.4,0.7-2.7,1.4-4,2.1l-2.7,1.6
				l-4,2.8c-1.8,1.3-3.6,2.6-5.4,3.9l-2.7,2.2c-3.1,2.7-6.1,5.6-9,8.4l-4.4,4l-2.1,2.1l-2.1,2.2l-6.7,7.3c-2.6,2.7-5.3,5.4-7.9,8
				c-3,3-6.1,6.1-9.4,8.8c-1.3,1.1-2.7,2.1-4,3.3l-1.3,0.8l-2.7,1.9l-1.3,0.6l-1.3,0.8l-2.7,0.8l-2.7,0.6h-1.3H883l-1.3-0.4
				l-1.3-0.3l-2.7-1.1l-1.3-0.8l-1-0.9l-2-2.2l-1.5-2.4l-0.7-1.3l-0.8-2.7l-0.6-2.7l-0.1-1.3l0-2.7l0.3-2.7l0.3-1.3l0.4-1.3l1.3-2.7
				c0.9-1.3,2-2.7,3-4c1.3-1.4,2.7-2.6,4-3.9c1.4-1.5,3.2-2.8,4.8-4.5l4.6-4.1c2.3-1.9,4.4-3.9,6.5-5.9c1.4-1.4,2.9-2.7,4.2-4.1
				c1-1,1.8-2.1,2.7-3.3c0.8-1.1,1.4-2.4,2.3-3.8c1.3-2.6,2.4-5.4,3.6-8.1l1.8-4l1-2.7c0.4-1.3,0.8-2.7,1.1-4l1-4l1-4l0.8-4
				c0.3-1.8,0.6-3.6,0.7-5.4c0.1-3.2-0.5-6.3-1.2-9.4c-0.4-1.8-0.8-3.6-1.3-5.4l-1.3-4l-1-2.7c-0.6-1.3-1.7-2.7-2.3-4
				c-2.1-3.1-4.7-5.9-7.5-8.1c-2-1.8-4.2-3.3-6.6-4l-2.7-0.9l-1.3-0.2l-2.7-0.2l-1.3,0l-2.7,0.3l-2.7,0.9l-1.3,0.4l-2.4,1.6
				l-2.2,2.2l-1,1.2l-1.1,1.3l-1.5,2.7c-2.1,3.8-3.5,8.1-4.7,12.1l-1.5,5.4c-0.5,1.8-1,3.5-1.1,5.4l0.1,2.7l0.2,1.3l0.3,1.3
				c0.5,1.8,1,3.6,1.9,5.4c0.7,1.3,1.6,2.5,2.7,3.5l2.3,1.9l1.3,0.7l2.7,1.1l2.7,0.6l2.7,0.3c1.7,0,3.4,0,5.2,0
				c3.2-0.4,6.5-1.1,9.6,0l2.5,1.3l1.1,0.7l1,1l0.7,1.1l0.3,2.5l-0.4,1.3l-1.7,2.7l-2.4,2.7l-2.6,2.3l-2.7,2.3l-6.7,5.6l-4,3.5
				l-5.4,5.1c-1.3,1.1-2.7,2.3-4,3.4c-1.8,1.4-3.6,2.8-5.4,4.1l-5.4,4c-2.2,1.6-4.5,3.3-6.7,4.6c-2.7,1.8-5.4,3.6-8.1,5.4
				c-1.3,0.7-2.7,1.5-4,2.3l-6.7,3.5l-2.7,1.5l-6.7,4.2l-5.4,3.3l-4,2.3l-5.1,3.4c-1.6,1.1-3,2.1-4.6,3c-1.6,0.9-3.3,1.7-5,2.6
				l-5.3,2.6l-17.5,8.7l-2.7,1.3l-2.7,1.4l-1.3,0.7l-2.3,1.4l-1.8,1.6l-0.9,1.4l-0.5,1.9l2.2-0.3l1.8-0.4c2-0.4,3.7-0.7,5.4-1.3
				c2.3-0.7,4.5-1.4,6.7-2.1c4-1.3,8-2.7,12.1-4c2.2-0.7,4.5-1.3,6.7-1.9c1.8-0.5,3.6-1,5.4-1.4c2.7-0.6,5.4-0.9,8.1-1.6
				c2.7-0.4,5.4-1.6,8.1-2.6c4.7-1.9,9-4.3,13.4-6.7l6.7-3.8l5.4-3.2l5.4-3.3l6.7-4.3l3.2-2l2.2-1.4l-0.3,2.2l-0.1,0.7
				c-0.4,2.6-1,5.2-1,7.8c0,1.8,0.3,3.6,0.7,5.4c0.5,2.3,1.2,4.5,2,6.7c0.9,2.7,1.6,5.4,3.5,7.5c1.3,1.5,2.9,2.5,4.6,3.4l2.7,1.3
				l2.7,0.9l1.3,0.3l2.7,0.3l2.7-0.1l2.7-0.2c1.8-0.1,3.6-0.1,5.4-0.4c1.9-0.3,3.7-0.8,5.4-1.7c3.6-1.8,6.5-4.7,9.4-7.4l2.7-2.7
				l5.4-5.4c2.2-2.2,4.4-4.4,6.6-6.7l4.7-5c1.6-1.6,3.2-3.1,4.8-4.6l4-3.8c2.2-2.2,4.4-4.4,6.7-6.5c2.6-2.3,5.3-4.3,8.1-6.4
				c2.2-1.6,4.4-3.1,6.7-4.4c2.2-1.2,4.4-2.3,6.7-3.1c1.3-0.5,2.7-1,4-1.4l2.7-0.7l2.7-0.4l1.3-0.3l1.3-0.1l2.7,0.1
				c2.3,0.4,4.3,1.6,6.5,2.2l2,0.7h2.2v-2.2l0.5-1.8l1.4-5.4l0.3-1.3l0.1-2.7L993.4,163.7z M894.1,119l-3.2-0.2l-4-0.1
				c-1.3-0.1-2.7-0.2-4-0.4c-1.8-0.3-3.5-0.8-5.4-1.3l-1.3-0.4l-0.4-0.3l-2.2-1l1-2.6l0.6-1.1l1.7-1.5l2.1-1l1.3-0.3l2.7-0.1
				l2.7,0.3l1.3,0.3l2.5,1l2.3,1.4l2,1.7l1.4,1.9l0.9,1.7l0.4,2.1L894.1,119z"/>
			<path class="st0" d="M716.4,152.9h5.4l1.3-1.9l0.7-0.4l1.1-0.9l2.3-1.4l2.7-1.3c2.7-1.3,5.4-2.4,8.1-3.7l1.3-0.6l2.7-1.3l1.3-0.8
				l1.2-0.9l1.1-0.9l1.7-1.9l1-2.5l0.2-1.3l0.1-0.6l0.1-2.2l-2.2,0.6l-2,0.8l-5.2,2.3l-4,1.8l-6.7,2.7c-1.8,0.8-3.7,1.7-5.4,2.8
				l-2.4,1.9l-1.1,1.1l-1.7,2.3l-1,2.6l-0.3,1.3l-0.3,0.4L716.4,152.9 M986.4,113.9l-1.4,2.2l-0.3,0.7l-1.4,2.5
				c-0.9,1.7-1.9,3.5-2.5,5.3c-0.8,2.2-1.2,4.4-1.6,6.7l-0.4,2.7l-0.1,1.3l0,1.3l0.3,2.7l1,2.4l0.8,1.1l0.9,0.9l1,0.7l2.3,0.6
				l2.3-0.6l1.8-1.6l1.8-2.1l0.9-2.7l0.9-2.5l0.3-2l0.1-2.2c-1.3,0.8-2.3,1.7-3.5,2.7l-1,0.3l-2.3,0.2l-1.8-1.1l-1.1-2.1l-0.2-2.7
				l0.2-1.3l0.7-2.7l0.4-1.3l1.1-2.7c0.6-1.3,1.3-2.6,2-3.8l0.2-0.7l1.3-2.2L986.4,113.9 M1041.4,138.1l2.2-1l0.4-0.3l1.3-0.8
				l1.3-0.5l2.7-1.6c1.3-0.6,2.7-1.1,4-1.5c3.1-0.8,6.2-0.9,9.4-1l9.4,0l-6.8,6.8c-1.8,1.8-3.5,3.5-5.3,5.3
				c-2.7,2.3-5.4,4.6-8.1,6.8l-4,3.3l-4,3l-0.9,1l-1.8,2.1l-0.9,1.8l-0.5,2.2l2.2-0.9l0.4-0.3l1.3-0.6l2.7-1.3
				c2.7-1.5,5.4-3.2,8.1-4.9c3.3-2.4,6.3-4.9,9.4-7.5c1.3-1.1,2.7-2.3,4-3.5c1.8-1.6,3.6-3.4,5.3-5.1c1.7-1.7,3.3-3.5,4.7-5.4
				l1.9-2.7l0.8-1.3l0.7-1.3l1.2-2.7l0.4-1.3l0.6-2.7l0.1-2.6l-0.2-1.2l-0.9-2.1l-1.7-1.3l-1.1-0.4l-1.2-0.3l-1.3-0.2h-1.3l-2.7-0.6
				l-2.7-0.3l-2.7-0.1l-1.3,0.1c-1.8,0.2-3.6,0.5-5.4,0.9c-1.3,0.1-2.7,0.3-4,0.8c-1.4,0.6-2.7,1-4,1.9c-1.7,0.9-3.2,2.4-4.5,4.1
				c-1,1.3-1.8,2.6-2.6,4c-1.1,1.8-2,3.6-3,5.4l-0.7,1.3l-0.8,2.7l-0.3,1.3L1041.4,138.1"/>
			<path class="st0" d="M693.5,142.1l-0.1-1.3l-0.5-2.7l-0.8-2.7l-0.5-1.3l-1.3-2.3l-1.4-1.7l-1.9-1.5l0.8-2.2l0.1-0.4l0.3-1.3
				l0.2-2.7l0-1.3l-0.2-2.7l-0.5-2.7l-0.8-2.6l-1.3-2.4l-1.7-2l-2.2-1.4l-0.5-0.3l-2.2-0.6l-1.3,2.2l-0.2,0.7l-0.6,1.3l-0.8,2.5
				c-0.6,2.1-1,4.3-1.4,6.7l-0.4,1.8l-0.6,2.2l1.9-0.9l0.4-0.4l0.9-0.8l1.2-1.9l0.3-0.5l0.6-2.2l2.2,2.9l0.9,1.3l0.9,2.5l0.7,2.7
				l0.1,1.3l-0.1,1.3l-0.7,2.7l-1.1,2.7l-0.7,1.3l-1.4,2.7c-0.9,1.7-1.7,3.5-2.2,5.4l-0.4,2.7l0,1.3l0.2,1.3l1.2,2.4l2,2l1,0.8
				l1.3,0.6l1.3,0.4l2.6,0.1l2.4-0.8l1.1-0.8l0.9-1l1.3-2.3l0.4-1.3l0.3-1.3l0.2-2.7L693.5,142.1z M680.2,146.1l0.5-2.2l0.2-0.5
				l0.4-1.3l1.5-4h2.7l1.2,2.2l1,1.8l0.4,1.3l0.5,0.5l0.8,2.2L680.2,146.1L680.2,146.1z"/>
			<path class="st0" d="M842.4,147.5c-0.2-2.3-0.7-4.5-1.1-6.7c-0.5-2.7-1.3-5.4-2.1-8.1c-0.7-1.8-1.5-3.6-2.3-5.4l-0.7-1.3
				l-1.6-2.7c-1-2.1-2.1-4.1-3.7-6.1l-2-2l-2.4-1.9l-1.3-0.8l-2.7-1.3l-2.7-1l-2.7-0.6l-2.7-0.2l-1.3,0.1l-1.3,0.4l-1.3,0.3
				l-1.3,0.5l-2.4,1.5c-1.9,1.5-3.4,3.4-4.8,5.4c-0.8,1.1-1.5,2.3-2.2,3.4l-1.3,2.4c-0.4,1.3-0.8,2.6-1.3,3.9l-0.7,2.7l-1.4,4
				c-0.6,1.3-0.9,2.7-1.2,4l-0.3,2.7l0,1.3l0.1,1.3l0.4,2.7l0.3,2.7l0.5,1.3l0.5,1.3l1.4,2.7l2,2.3l1,1l2.7,1.6l2.7,0.9l2.7,0.3
				l2.7-0.2l2.7-0.6c2.3-0.6,4.5-1.4,6.7-2c1.7-0.4,3.6-0.7,5.3-0.3l2.6,0.9l1.2,0.7l1.1,0.9l1.8,2l1.2,2.1v2.1l-0.4,1l-1.5,2
				l-2.2,1.6c-2.1,1.4-4.3,2.7-6.5,4c-3,1.6-6.1,3.2-9.4,4.1c-2.7,0.7-5.1,1.1-7.7,1.2c-2.4,0.1-4.8-0.1-7.2-0.7l-1.3-0.4l-2.7-1
				l-1.3-0.6l-2.7-1.3c-1.3-0.7-2.7-1.5-4-2.5c-1.5-1.3-2.9-2.8-4-4.5c-2-3.3-2.7-7.1-3.5-10.7c-0.7-3.6-1.5-7.1-1.9-10.7
				c0-1.8,0-3.6,0-5.4c0-1.8,0-3.6-0.2-5.4c-0.2-2.3-0.6-4.5-1.1-6.7l-0.8-5.4c-0.3-1.8-0.6-3.6-1-5.4c-0.3-1.3-0.9-2.7-1.1-4
				l-0.4-1.3l-0.5-2.7l-0.5-4l-0.5-2.7c-0.5-1.3-0.8-2.7-1.2-4l-1.6-5.4c-0.5-1.8-1-3.6-1.4-5.4s-0.8-3.6-1.3-5.4
				c-0.8-2.7-1.9-5.3-2.7-8.1c-0.4-1.3-0.8-2.7-1-4c-0.6-2.7-0.9-5.4-1.5-8.1c-0.5-1.3-0.7-2.7-1.1-4l-0.9-2.3l-0.7-1.1l-0.5-0.6
				l-1.3-1.5l-1,2.2l-0.3,0.7l-0.5,1.3l-1.8,5.2l-1,2.7l-0.5,1.3l-0.4,1.3l-0.4,2.7c-0.1,1.8,0.4,3.6,0.8,5.4l0.9,4
				c0.9,3.1,1.3,6.3,2.4,9.4c1.1,3.6,2.7,7.1,3.8,10.7c0.5,1.8,0.8,3.6,1.2,5.4l0.6,2.7l0.8,2.7l1.6,5.4c0.4,1.3,0.8,2.7,1.1,4
				c0.4,1.8,0.7,3.6,1,5.4l0.8,4l1.5,6.7c0.7,2.2,1.2,4.5,1.6,6.7c0.3,1.3,0.5,2.7,0.7,4c0.4,3.4,0.4,6.9,0.7,10.4
				c0.2,2,0.5,3.9,0.7,5.9l0.7,5.3l0.7,4l0.3,2.5c0.3,1.2,0.5,2.3,0.8,3.5c0.5,1.7,1.1,3.5,1.9,4.9c0.7,1.4,1.3,2.7,2.3,4l2.1,2.4
				l1,1.1l1.3,1l2.7,1.7c1.3,0.7,2.7,1.3,4,1.9c2.2,0.9,4.4,1.7,6.7,2.2c2.2,0.5,4.5,0.5,6.7,0.5h2.7l2.7-0.3c1.3-0.2,2.7-0.4,4-0.8
				c1.3-0.3,2.7-0.9,4-1.4c1.3-0.5,2.7-1.1,4-1.6c2.3-1.3,4.5-2.5,6.7-3.8c1.8-1.1,3.7-2.3,5.3-3.6c1.3-1.1,2.5-2,3.6-3.3l1.9-2.7
				l1.3-2.7l0.9-1.3l1.1-2.7l0.7-2.7c0.7-2.2,1.1-4.5,1.3-6.7c0.6-2.7,1-5.4,1.2-8.1c0.1-1.8,0.1-3.6,0.1-5.4
				C842.6,151.1,842.6,149.3,842.4,147.5z M815.8,139.4l-2.7,0.4l-1.3,0.1l-1.3,0l-2.7-0.4l-0.9-0.5l-0.9-0.7l-1.2-1.9l-0.2-1.1
				l0.2-1.1l0.3-1l1.8-1.7l2.3-1l1.3-0.3l2.7-0.1l1.3,0.2l1.3,0.3l2.6,1l2.3,1.5l1.1,1l0.6,0.5l1.5,2
				C821.2,137.7,818.5,138.7,815.8,139.4z"/>
			<path class="st0" d="M606.3,142.1l-1,2.2l-0.3,0.7l-0.5,1.3l-2.2,6.5c-0.7,2.2-1.5,4.5-2.1,6.7c-0.6,1.3-0.7,2.7-1,4
				c-0.4,1.8-0.9,3.6-1.1,5.4c-0.3,1.8-0.6,3.6-0.5,5.4l0.4,2.7l0.3,1.3l0.8,2.7l0.5,1.3l1.3,2.7l2.7-0.4l1.3-0.4l1.3-0.5l2.4-1.8
				l1.1-0.9l1-1.3l1.6-2.7l1.2-2.6l0.8-2.5l1.3-4.2l-1.9,0.9l-0.4,0.5l-1,0.8l-0.8,0.9l-1.9,2l-2.1,1.7l-1.8,0.9l-2.2,0.5l-0.5-2.2
				l-0.2-0.4l-0.6-2.7l-0.3-2.7c-0.1-1.8,0.2-3.6,0.5-5.4c0.3-1.3,0.6-2.7,0.9-4c0.5-1.8,1-3.6,1.5-5.4l0.9-2.7l0.7-2.6l0.4-2.3
				l-0.1-1.1l0-0.6L606.3,142.1"/>
			<path class="st0" d="M1355.3,171.6l-0.9-5.4c-0.2-2.2-0.4-4.5-1-6.7c-0.4-1.8-1-3.6-1.7-5.4l-1.6-4l-1.3-2.7
				c-1.2-2.3-2.2-4.5-3.4-6.7l-0.8-1.3l-1.8-2.6l-2.2-2.4l-1.2-1l-1.3-0.9l-2.6-1.5l-2.7-1l-1.3-0.5l-2.7-0.5l-2.7-0.1l-1.3,0.1
				l-1.3,0.3l-2.7,0.9l-2.7,1.4l-2.7,1.9l-2.4,2.2l-2.2,2.5l-1.8,2.6c-0.8,1.3-1.6,2.7-2.1,4c-0.6,1.3-1.1,2.7-1.6,4
				c-0.5,1.3-0.8,2.7-1.3,4c-0.4,1.3-0.8,2.7-1.1,4c-0.3,1.3-0.6,2.7-0.7,4l0,2.7l0.4,2.7l0.7,2.7l1.3,2.7l0.8,1.3l1,1.3l2.3,2.2
				l2.5,1.8l1.2,0.4l2.3,0.6c2.1,0.4,4.1,0.4,6.2,0.1c1.8-0.1,3.6-0.5,5.4-0.8l2.7-0.3l2.7-0.3l1.3-0.1l1.3,0l2.7,0.4l2.7,0.6
				l2.4,1.5l1,1l1.1,2.3l-0.5,2.6l-0.6,1.3l-1,1l-1.2,1l-1.3,0.9l-1.3,0.8c-1.8,1-3.6,2-5.4,2.9c-1.8,0.9-3.5,1.9-5.4,2.7
				c-3.1,0.9-6.2,1.8-9.4,2.7c-1.8,0.3-3.6,0.7-5.4,0.9c-1.3,0.1-2.7,0.1-4,0l-2.7-0.6l-1.3-0.3l-1.3-0.8l-1.3-0.6l-2.7-1.9
				l-1.3-1.1l-2.2-2.4l-2-2.7l-1.7-2.7c-0.8-1.3-1.6-2.6-2.2-4l-1.3-2.7l-0.4-1.3c-0.6-1.8-1.2-3.6-1.6-5.4
				c-0.7-2.2-0.8-4.5-1.1-6.7l-0.6-5.4l-0.3-2.7l-0.4-4c-0.3-2.2-0.7-4.5-1-6.7c-0.1-2.7,0-5.4-0.1-8.1c-0.2-2.3-0.5-4.5-0.9-6.7
				l-0.7-5.4c-0.3-1.8-0.6-3.6-0.8-5.4c-0.3-3.1-0.2-6.3-0.5-9.4c-0.4-3.6-1.5-7.1-2.1-10.7l-0.8-5.4c-0.3-2.2-0.8-4.3-1-6.5
				c-0.3-1.9-0.3-3.9-0.7-5.8c-0.4-2.2-0.9-4.3-1.4-6.5l-1.4-6.7l-1.3-5.4l-1.3-5.4c-0.5-1.8-0.9-3.6-1.5-5.4l-1-2.7l-1.3-2.7
				l-0.8-1.3l-0.8-1.3l-1.9-2.3l-1.3-1.1l-0.5-0.6l-2.2-1.5l-1.5,2.2l-0.3,0.7l-0.9,1.3c-0.8,2.1-1.6,4.3-2.4,6.5l-2,5.4l-1.6,4.5
				l-0.7,2.2h6.7l0.3,2.2l0.6,2l2.4,6.5c0.5,1.3,0.7,2.7,1.3,4c0.5,1.8,1.1,3.6,1.5,5.4l1.8,8.1c0.7,3.1,1.5,6.2,2.2,9.4l0.9,5.4
				l1,6.3l1.3,7.2c0.4,1.8,0.8,3.6,1.2,5.3l0.9,4c0.4,2.2,0.6,4.5,1,6.7c0.3,1.8,0.6,3.6,0.8,5.4c0.2,2.2,0.2,4.5,0.2,6.7l0.4,2.7
				c0.2,1.8,0.6,3.6,0.7,5.4c0.2,2.7,0.2,5.1,0.5,7.7c0.1,1.2,0.3,2.3,0.5,3.4l1.2,5c0.4,2.2,0.7,4.5,1.1,6.7c0.2,1.4,0.6,2.7,0.9,4
				l1,4c0.5,2.3,1,4.5,1.7,6.7c0.5,1.4,1,2.7,1.6,4c0.8,1.9,1.8,3.6,2.8,5.4c0.8,1.3,1.6,2.7,2.3,4l2,2.4l2.1,2.2l1.3,0.9l2.7,1.6
				l2.7,1.1l1.3,0.4l2.7,0.5c1.8,0.3,3.6,0.3,5.4,0.3c2.2,0,4.5,0,6.7-0.2c2.3-0.2,4.5-0.8,6.7-1.1c1.8-0.7,3.6-1.3,5.4-2
				c3.3-1.3,6.4-3,9.4-4.8l4-2.4l1.3-0.8l2.3-1.7l1-0.9l1.8-1.9c0.8-1,1.4-2.1,2-3.3c0.7-1.1,1.1-2.4,1.8-3.8
				c0.8-1.8,1.6-3.5,2.2-5.4c0.7-2.2,1.1-4.4,1.6-6.7c0.2-1.3,0.5-2.7,0.6-4c0.1-1.3,0.2-2.7,0.2-4
				C1355.6,174.3,1355.5,173,1355.3,171.6z M1332.1,155.5l-0.6,0.8l-1.7,1.3l-2.3,0.9l-1.3,0.3l-2.7,0.4l-1.3,0.3l-2.7-0.4l-1.3-0.4
				l-1.3-0.5l-0.9-0.8l-1.6-1.9l-0.3-1.3V153l0.3-1.1l0.7-1l1.8-1.5l2.7-0.9l1.3-0.2l1.3,0l1.3,0.1l2.7,0.8c1.3,0.5,2.6,1.3,3.8,2
				l0.7,0.4l2.2,1.3L1332.1,155.5z"/>
			<path class="st0" d="M686.9,230.7l-1.5-1.8l-0.6-0.5l-1.1-1l-2.3-1.7l-1.3-0.7l-2.7-0.9l-1.3,0l-1.3,0.3l-1.3,0.6l-2.7,1.9
				l-1.3,1.2c-1.3,0.9-2.5,2-3.6,3.3l-1.6,2.3l-0.4,1.2l0,1.3l0.8,2l0.7,1l2,1.9l2.3,1.8l1.1,0.7l2.7,1.4l2.7,0.9l2.7,0.1l1.3-0.3
				l2.7-1.2l1.3-0.9l1.3-1.1l2.3-2.4l1.7-2.5l0.9-2l0.5-2.2l2,1.5l3.8,3.2l3.6,3.1l2.7,2c2,1.4,4,2.8,6.7,2.8c2,0,3.8-1,5.3-1.9
				c1.3-1.1,2.5-2.2,3.7-3.3l1-1.1l0.9-1.2l0.6-1.1l0.4-2.6c-0.2-1.9-1.5-3.5-2.9-4.8c-1.2-1.2-2.5-2.2-3.8-3.3
				c-1.3-1.1-2.7-2.1-4-3.1l-2.7-1.6l-2.7-0.7h-1.3l-1.3,0.2l-2.7,1.6l-1.3,1.1c-1.3,1.2-2.7,2.3-4,3.2l-2.7,1.5l-2.7,0.9l-0.4,0.2
				L686.9,230.7 M978.3,186.4l-2.1,2.2l-0.6,0.7l-1.9,2.5l-1.6,2.6l-0.7,1.3c-0.8,1.8-1.6,3.6-2.3,5.4c-0.7,1.8-1.2,3.6-1.8,5.4
				l-0.6,2.7c-0.3,1.3-0.6,2.7-0.6,4c0,1.8,0,3.6,0,5.4c0.2,1.3,0.4,2.7,0.8,4l1,2.2l0.7,1l1.9,1.6l2.3,1l1.3,0.2l2.6-0.2l2.4-1.2
				l2.1-1.9l1.8-2.7l1.5-2.7l0.5-1.3l1.2-2.5l0.5-1.3l1-2.9l-2,0.9L984,214l-1,0.8c-1.1,0.8-2.2,1.6-3.5,1.9l-1.3,0.1l-2-0.7
				l-0.8-0.8l-0.6-1l-0.6-1l-0.1-1.3l-0.2-2.4c0-1.2,0.1-2.3,0.2-3.4l0-1.2l0.5-1.1l0.8-2.7l1.1-2.7c0.8-1.8,1.6-3.5,2.3-5.3
				l0.9-2.5l0.4-1.3l0.2-0.7l0.5-2.2L978.3,186.4"/>
		</g>
		<g>
			<path class="st0" d="M1524.3,199.1h-6.6c-5.6,0-9.5-1.1-11.7-3.3c-0.6-0.6-2.1-3.2-4.4-7.8c-25.4,13-48.9,19.5-70.6,19.5
				c-16.2,0-29.4-3.4-39.4-10.3c-10-6.9-15.1-16.3-15.1-28.4c0-9.4,4-20.3,11.9-32.5l2.7,1.3c-3.8,6.6-5.8,11.6-5.8,14.8
				c0,9.7,4.9,17.3,14.8,22.6c9.9,5.3,23.2,8,39.8,8c20.5,0,36-2.1,46.5-6.2c7.1-2.8,12.8-7.2,17.3-13.3l2,0.7
				c0.7,5.5,2.7,8.9,6,10.2c1.8,0.7,6,1.1,12.6,1.1L1524.3,199.1L1524.3,199.1z M1459.7,230.5l-8.2,15.5l-12.8-10.4l7.3-14.4
				L1459.7,230.5z"/>
			<path class="st0" d="M1563.5,199.1c-6.5-0.3-10.7-1-12.6-2.2c-1.9-1.2-4.7-4.9-8.4-11.1c-4.6,6.9-7.5,10.8-8.8,11.5
				c-1.3,0.7-5.6,1.3-12.9,1.8v-23.7c9.2,0,15.3-0.7,18.4-2s6.6-4.6,10.6-10l1.3,0.7c0.9,4.9,2.1,7.8,3.5,8.9c1,0.9,4,1.7,8.8,2.4
				L1563.5,199.1L1563.5,199.1z M1564.1,138l-8,14.4l-13.9-9.5l-7.3,12.4l-12.8-9.3l7.8-15.1l13.7,9.3l6.9-12.2L1564.1,138z"/>
			<path class="st0" d="M1665.1,199.1c-7.1-0.4-16-5.5-26.8-15.3c-8.3-8.3-16.5-16.5-24.8-24.8c1.3,4.7,2,8.9,2,12.6
				c0,10.3-3.7,17.6-11.1,21.9c-6.2,3.7-15.9,5.5-29,5.5h-15.3v-23.7h21c18.4,0,27.7-2.7,27.7-8.2c0-3.2-3.7-7.2-11.1-11.9
				c-12.3-8.1-19-12.7-20.2-13.7c-7.4-6.1-11.1-12.2-11.1-18.4c0-24.3,31.3-48.3,93.8-71.9c-2.9,11.8-4.9,18.4-5.8,19.9
				c-1.8,2.8-7,6.3-15.7,10.4c-20.1,9.3-36.1,17-48,23.2c-12.6,6.5-18.8,11.2-18.8,14.2c0,1.3,2.9,3,8.9,4.9
				c9.2,2.9,17.8,6.9,25.9,11.7c11.9,7.2,22.9,15.4,33,24.4c8,7.4,15,12.3,21,14.8c1,0,2.4,0.2,4.2,0.7L1665.1,199.1L1665.1,199.1z"
				/>
			<path class="st0" d="M1720.8,168.3c0,6.1-1.3,11-3.9,14.9c-2.6,3.9-6.2,5.9-10.7,5.9c-3.5,0-7.7-1-12.4-3.1
				c-3.8-1.9-7.8-3.8-11.7-5.8c-3.7,8.3-5.8,12.8-6.4,13.5c-2.5,3-6.9,4.7-13.3,5.3v-23.7c8.1-0.4,14.2-4.1,18.2-11.1
				c2.5-6.3,5.1-12.8,7.9-19.4c2.7-6.6,7-9.9,12.7-9.9c5,0,9.6,3.5,13.6,10.5C1718.8,152.7,1720.8,160.2,1720.8,168.3z M1708,164.4
				c0-2.7-1.1-5-3.2-7c-2.1-2-4.7-3-7.6-3c-3.3,0-6.1,2.2-8.4,6.6c0.6,0.3,2.3,1.3,5.3,2.9c2.1,1.2,3.9,2.1,5.6,2.8
				c1.7,0.7,3.4,1,5.2,1C1707,167.7,1708,166.6,1708,164.4z"/>
		</g>
	</g>
</g>
<g>
	<g>
		<g>
			<path class="st0" d="M90.3,278.8c0.9,1.2,1.8,2.6,2.6,4.1c0.8,1.5,1.5,3.2,2.2,4.9s1.2,3.5,1.7,5.4c0.5,1.9,0.9,3.8,1.2,5.6
				c0.3,1.9,0.6,3.7,0.8,5.5c0.2,1.8,0.3,3.5,0.3,5.1l-2.3,4.8c-1.1-5.2-2.4-10.1-3.9-14.5c-1.5-4.5-3.3-8.6-5.4-12.4L90.3,278.8z"
				/>
			<path class="st0" d="M124.5,278c0.6,0,1.1,0.1,1.4,0.4c0.4,0.3,0.8,0.8,1.1,1.5c0.3,0.7,0.7,1.8,1.1,3.1c0.4,1.3,0.9,3,1.5,5.1
				c0.6,2.1,1.4,4.6,2.3,7.6c0.9,3,2.1,6.5,3.4,10.6l-2.4,8.8l-5.9-16.4c-1.8,0.4-3.3,0.7-4.6,0.7s-2.4,0-3.3-0.3s-1.7-0.6-2.2-1
				s-1-1-1.3-1.6s-0.5-1.3-0.7-2s-0.2-1.4-0.2-2.2c0-0.6,0.1-1.5,0.4-2.4s0.6-2,1.1-3.1s1-2.1,1.6-3.2c0.6-1.1,1.3-2,2-2.9
				s1.5-1.5,2.2-2.1C123,278.3,123.8,278,124.5,278z M123,285.5c-0.3,0-0.6,0.1-1,0.3c-0.3,0.2-0.7,0.5-1,0.9s-0.7,0.8-1,1.4
				s-0.6,1-0.7,1.6c0,0.5,0.2,1,0.4,1.3s0.6,0.5,0.9,0.7c0.4,0.1,0.8,0.2,1.2,0.3c0.4,0,0.9,0,1.3,0s0.8-0.1,1.2-0.1
				c0.4,0,0.7-0.1,1-0.1c-0.2-1.1-0.4-2.1-0.5-2.9s-0.3-1.4-0.4-1.9s-0.3-0.9-0.6-1.1S123.4,285.5,123,285.5z"/>
			<path class="st0" d="M144.7,288.1l2.9-6.9l10.6,23.1l11-24l0.8,7.1l-12.6,27.7L144.7,288.1z"/>
			<path class="st0" d="M194.3,295.4l-2.6,9l-7.4-4.4l2.6-9.2L194.3,295.4z"/>
			<path class="st0" d="M221.6,321.5c-0.5-1.2-0.9-2.4-1.2-3.7c-0.4-1.3-0.6-2.5-0.7-3.8c-0.1-1.2-0.1-2.5,0-3.6
				c0.1-1.2,0.5-2.3,1-3.3s1.3-1.9,2.4-2.7s2.3-1.4,3.9-1.9l0-6.2c0-1.4,0.3-2.7,0.8-3.9s1.3-2.3,2.2-3.2s2-1.6,3.2-2.2
				s2.6-0.8,4-0.8s2.7,0.3,3.9,0.8s2.3,1.3,3.2,2.2c0.9,0.9,1.6,2,2.2,3.2s0.8,2.5,0.8,3.9v5.4c0,1.4-0.3,2.7-0.8,3.9
				s-1.3,2.3-2.2,3.2c-1,1-1.9,1.6-2.9,2c-0.9,0.4-1.9,0.6-2.9,0.7c-1,0-2-0.1-3-0.3s-2.1-0.6-3.2-1c-0.7-0.2-1.4-0.4-2-0.5
				s-1.3,0-1.8,0.2c-0.5,0.2-1,0.5-1.3,1c-0.4,0.5-0.6,1.2-0.6,2c-0.1,0.9,0.1,2,0.4,3.4c0.4,1.4,1,3,1.9,4.9L221.6,321.5
				L221.6,321.5z M233.4,296.6v6.9c0.1,0.1,0.3,0.2,0.7,0.4s0.9,0.4,1.4,0.5s1.1,0.3,1.7,0.4c0.6,0.1,1.2,0,1.7-0.1s0.9-0.5,1.3-1
				c0.3-0.5,0.5-1.2,0.5-2.1v-5c0-0.7-0.1-1.3-0.3-1.7c-0.2-0.5-0.5-0.9-0.8-1.2s-0.7-0.5-1.2-0.7s-0.9-0.2-1.3-0.2
				s-0.9,0.1-1.3,0.3c-0.4,0.2-0.8,0.4-1.2,0.8s-0.6,0.7-0.8,1.2C233.5,295.5,233.4,296,233.4,296.6z"/>
			<path class="st0" d="M252.2,278.4h6.5v23c0,0.6,0.1,1.1,0.3,1.6s0.5,0.8,0.8,1.1c0.3,0.3,0.7,0.5,1.2,0.7
				c0.4,0.2,0.9,0.3,1.3,0.3v6.5c-1.4,0-2.7-0.3-4-0.8s-2.3-1.3-3.2-2.2c-0.9-0.9-1.6-2-2.2-3.2c-0.5-1.2-0.8-2.6-0.8-4L252.2,278.4
				L252.2,278.4z"/>
			<path class="st0" d="M287.4,311.7h-25.1v-6.5h4.6c-0.7-1.2-1.1-2.5-1.4-3.9c-0.2-1.4-0.3-2.8-0.1-4.2c0.2-1.4,0.5-2.7,1.1-4
				c0.6-1.3,1.3-2.4,2.2-3.4c0.9-1,2-1.8,3.3-2.4c1.3-0.6,2.8-0.9,4.4-0.9c1.4,0,2.7,0.3,3.9,0.8s2.3,1.3,3.2,2.3s1.6,2.1,2.2,3.4
				s0.8,2.7,0.8,4.3H280c0-0.8-0.1-1.4-0.4-2s-0.6-0.9-1-1.2c-0.4-0.3-0.9-0.5-1.4-0.6c-0.5-0.1-1-0.1-1.4,0c-1,0.2-1.8,0.7-2.4,1.4
				s-0.9,1.5-1,2.4c-0.1,0.9-0.1,1.8,0.1,2.8c0.2,1,0.6,1.9,1.1,2.7c0.5,0.8,1.1,1.5,1.9,2s1.6,0.8,2.5,0.8l9.5-0.1L287.4,311.7
				L287.4,311.7z"/>
			<path class="st0" d="M328.5,290.8v14.4h3.7c0.5,0,0.9-0.1,1.3-0.3s0.8-0.4,1.2-0.7c0.3-0.3,0.6-0.7,0.8-1.1
				c0.2-0.5,0.3-1,0.3-1.6v-10.7h6.5v10.7c0,0.6,0.1,1.1,0.3,1.5c0.2,0.5,0.5,0.8,0.8,1.1s0.7,0.5,1.1,0.7c0.4,0.2,0.9,0.3,1.3,0.3
				c0.5,0,0.9-0.1,1.3-0.3s0.8-0.4,1.1-0.7s0.6-0.7,0.8-1.1s0.3-1,0.3-1.5v-10.7h6.5v10.7c0,0.6,0.1,1.1,0.3,1.6s0.5,0.8,0.8,1.1
				c0.3,0.3,0.7,0.5,1.2,0.7c0.4,0.2,0.9,0.3,1.3,0.3v6.5c-1.3,0-2.6-0.2-3.8-0.7c-1.2-0.5-2.2-1.1-3.1-2c-0.9,0.8-1.9,1.5-3.1,1.9
				c-1.2,0.5-2.4,0.7-3.7,0.7c-1.3,0-2.6-0.2-3.8-0.7c-1.2-0.5-2.2-1.1-3.1-2c-0.9,0.8-2,1.5-3.1,2c-1.2,0.5-2.5,0.7-3.8,0.7h-3.8
				c-0.2,1.5-0.8,2.9-1.5,4.1c-0.8,1.2-1.8,2.3-2.9,3.2c-1.1,0.9-2.4,1.5-3.8,2s-2.8,0.7-4.2,0.7c-1.6,0-3.1-0.3-4.6-0.9
				c-1.5-0.6-2.9-1.4-4-2.4c-1.2-1-2.1-2.3-2.9-3.8c-0.7-1.5-1.1-3.1-1.1-4.9v-10.3h6.6v10.2c0,0.9,0.2,1.7,0.5,2.4
				c0.3,0.7,0.8,1.3,1.4,1.7s1.2,0.8,1.9,1s1.5,0.4,2.2,0.4s1.5-0.1,2.2-0.3s1.4-0.6,1.9-1s1-1,1.4-1.8c0.3-0.7,0.5-1.5,0.5-2.5v-19
				L328.5,290.8L328.5,290.8z"/>
			<path class="st0" d="M397.3,290.8v10.8c0,1.4-0.3,2.7-0.8,3.9s-1.3,2.3-2.1,3.2c-0.9,0.9-2,1.6-3.2,2.2s-2.5,0.8-3.9,0.8
				c-1.3,0-2.6-0.2-3.8-0.7c-1.2-0.5-2.2-1.1-3.1-2c-1,0.9-2.1,1.5-3.2,2s-2.4,0.6-3.7,0.7c-1.3,0-2.5-0.2-3.7-0.7s-2.3-1.1-3.2-2
				c-0.9,0.8-2,1.5-3.1,2s-2.4,0.7-3.8,0.7v-6.5c0.5,0,0.9-0.1,1.3-0.3c0.4-0.2,0.8-0.4,1.2-0.7c0.3-0.3,0.6-0.7,0.8-1.1
				s0.3-1,0.3-1.6v-10.7h6.5v10.7c0,0.6,0.1,1.1,0.3,1.5c0.2,0.5,0.5,0.8,0.8,1.2c0.3,0.3,0.7,0.6,1.1,0.7s0.9,0.3,1.3,0.3
				c0.5,0,0.9-0.1,1.3-0.3c0.4-0.2,0.8-0.4,1.2-0.7s0.6-0.7,0.8-1.2c0.2-0.5,0.3-1,0.3-1.5v-10.7h6.5v10.7c0,0.6,0.1,1.1,0.3,1.5
				c0.2,0.5,0.5,0.8,0.8,1.1c0.3,0.3,0.7,0.5,1.1,0.7s0.9,0.3,1.3,0.3c0.5,0,0.9-0.1,1.3-0.3s0.8-0.4,1.1-0.7
				c0.3-0.3,0.6-0.7,0.8-1.1c0.2-0.5,0.3-1,0.3-1.5v-10.7L397.3,290.8L397.3,290.8z"/>
			<path class="st0" d="M409.3,275.6c-1.4,0-2.8,0-4,0.1c-1.3,0-2.6,0.2-3.9,0.5l-0.5-2.4l2.3-0.6c-0.5-0.7-0.8-1.4-0.8-2.1
				s0.1-1.3,0.3-1.9s0.6-1,1.1-1.4s1-0.7,1.6-0.9s1.2-0.2,1.9-0.1c0.6,0.1,1.2,0.3,1.8,0.7l-0.7,2.4c-0.2-0.1-0.5-0.2-0.8-0.2
				c-0.3-0.1-0.6-0.1-0.8-0.1s-0.5,0.1-0.8,0.2s-0.4,0.3-0.6,0.5c-0.2,0.3-0.2,0.6-0.2,1c0.1,0.3,0.2,0.6,0.4,0.9
				c0.3,0.3,0.6,0.5,0.9,0.7c0.3,0.1,0.7,0.2,1.1,0.2c0.4,0,0.8,0,1.1,0c0.4,0,0.8-0.1,1.1-0.1L409.3,275.6z M402.2,278.4h6.5v23
				c0,0.6,0.1,1.1,0.3,1.6s0.5,0.8,0.8,1.1c0.3,0.3,0.7,0.5,1.2,0.7c0.4,0.2,0.9,0.3,1.3,0.3v6.5c-1.4,0-2.7-0.3-4-0.8
				s-2.3-1.3-3.2-2.2c-0.9-0.9-1.6-2-2.2-3.2c-0.5-1.2-0.8-2.6-0.8-4L402.2,278.4L402.2,278.4z"/>
			<path class="st0" d="M419.9,281.7l3.9-3.9l4.7,4.7l-4.7,4.7l-3.9-3.9l-3.9,3.9l-4.7-4.7l4.7-4.7L419.9,281.7z M426.9,301.5
				c0,1.4-0.3,2.7-0.8,3.9s-1.3,2.3-2.2,3.2c-0.9,0.9-2,1.6-3.2,2.2s-2.6,0.8-4,0.8h-4.4v-6.5h4.4c0.5,0,0.9-0.1,1.3-0.3
				c0.4-0.2,0.8-0.4,1.2-0.7c0.3-0.3,0.6-0.7,0.8-1.1c0.2-0.5,0.3-1,0.3-1.6v-10.7h6.5L426.9,301.5L426.9,301.5z"/>
		</g>
	</g>
	<g>
		<polygon class="st0" points="79.4,9.8 252.9,9.8 224.3,64.4 215.4,52.4 143,52.4 143,101.3 218.6,101.3 205.2,136.9 143.6,136.9 
			143.6,210.5 153.1,223.3 81.4,223.3 87.7,214.4 87.7,23.2 		"/>
		<path class="st0" d="M419.3,72.7c0-52.1-35.6-62.9-66.1-62.9c-22.3,0-100.4,0-100.4,0l12.7,11.4v192.5l-12.1,8.3l75.6,1.9
			l-11.4-17.1v-68.6l43.2,65.4l30.5-38.1c0,0-19.7-28.6-22.9-32.4C365.3,129.2,419.3,124.8,419.3,72.7z M344.3,95.9
			c-3.8,0.2-29.4-0.1-29.4-0.1V43.3l0.9,0.4c0,0,21.3-0.3,28.9-0.1c14,0.3,22.8,7.7,22.8,25.9C367.4,87.7,353.6,95.5,344.3,95.9z"/>
		<path class="st0" d="M389.7,161.3c7.8-10.7,14.9-20.5,22-30.2c6.3-8.5,10.5-8.1,14.7,1.7c7,16.2,14,32.4,21.6,50.1
			c6.6-7.9,12.9-15,18.8-22.4c5.8-7.3,11.2-14.8,17.5-23c-5.4-2.6-10.4-5.1-16.9-8.2c14.6-4.5,26.7-8.2,39.6-12.2
			c0,12.2,0,24.7,0,40.2c-4.8-5.3-8-8.9-12.3-13.6c-11,13.9-21.8,27.7-32.7,41.4c-2.9,3.6-5.9,7.2-8.9,10.7c-6,6.9-10.5,5.6-14-2.5
			c-6.8-16.2-13.7-32.4-21.4-50.3c-22.7,31.6-45,61.2-65.7,92c-8.9,13.3-18.3,18.7-34.9,18.5c-80-1-160-0.4-240.1-0.5
			c-5.4,0-13.2,2.3-10.7-9.9c29.8,0,58.9,0,88.1,0c55,0,110.1-0.1,165.1,0.2c7.9,0,13.4-1.4,17.8-8.6"/>
	</g>
</g>
</svg>
